G04 #@! TF.GenerationSoftware,KiCad,Pcbnew,6.0.0-rc1-unknown-4d73cfb~66~ubuntu18.04.1*
G04 #@! TF.CreationDate,2018-11-28T14:14:14-05:00
G04 #@! TF.ProjectId,servo_controller_3x2,73657276-6f5f-4636-9f6e-74726f6c6c65,1.0*
G04 #@! TF.SameCoordinates,Original*
G04 #@! TF.FileFunction,Legend,Bot*
G04 #@! TF.FilePolarity,Positive*
%FSLAX46Y46*%
G04 Gerber Fmt 4.6, Leading zero omitted, Abs format (unit mm)*
G04 Created by KiCad (PCBNEW 6.0.0-rc1-unknown-4d73cfb~66~ubuntu18.04.1) date Wed 28 Nov 2018 02:14:14 PM EST*
%MOMM*%
%LPD*%
G01*
G04 APERTURE LIST*
%ADD10C,0.228600*%
%ADD11C,0.381000*%
%ADD12C,0.127000*%
%ADD13C,0.150000*%
%ADD14C,0.190500*%
%ADD15R,1.350000X0.400000*%
%ADD16C,3.556000*%
%ADD17O,1.854200X2.540000*%
%ADD18R,1.854200X2.540000*%
%ADD19O,1.524000X2.032000*%
%ADD20R,1.524000X2.032000*%
%ADD21R,1.270000X2.540000*%
%ADD22R,4.000000X5.160000*%
%ADD23R,1.800000X1.640000*%
%ADD24O,2.032000X1.524000*%
%ADD25C,1.930400*%
%ADD26O,4.572000X3.556000*%
%ADD27O,4.064000X5.080000*%
%ADD28O,5.080000X3.556000*%
%ADD29R,2.540000X1.270000*%
%ADD30R,0.650000X1.000000*%
G04 APERTURE END LIST*
D10*
X156210000Y-67945000D02*
X85725000Y-67945000D01*
X156210000Y-109855000D02*
X156210000Y-67945000D01*
X85725000Y-109855000D02*
X156210000Y-109855000D01*
X85725000Y-67945000D02*
X85725000Y-109855000D01*
G04 #@! TO.C,U1*
X115275000Y-83005000D02*
X115275000Y-73205000D01*
X119675000Y-83005000D02*
X115275000Y-83005000D01*
X119675000Y-73205000D02*
X119675000Y-83005000D01*
X115275000Y-73205000D02*
X119675000Y-73205000D01*
X119191228Y-73905000D02*
G75*
G03X119191228Y-73905000I-316228J0D01*
G01*
D11*
G04 #@! TO.C,MDB1*
X127635000Y-69850000D02*
X86995000Y-69850000D01*
X127635000Y-72390000D02*
X127635000Y-69850000D01*
X86995000Y-72390000D02*
X127635000Y-72390000D01*
X86995000Y-69850000D02*
X86995000Y-72390000D01*
X127635000Y-105410000D02*
X86995000Y-105410000D01*
X127635000Y-107950000D02*
X127635000Y-105410000D01*
X86995000Y-107950000D02*
X127635000Y-107950000D01*
X86995000Y-105410000D02*
X86995000Y-107950000D01*
D12*
G04 #@! TO.C,C2*
X119761000Y-86487000D02*
X118237000Y-86487000D01*
X119761000Y-83693000D02*
X119761000Y-86487000D01*
X118237000Y-83693000D02*
X119761000Y-83693000D01*
X115189000Y-83693000D02*
X116713000Y-83693000D01*
X115189000Y-86487000D02*
X115189000Y-83693000D01*
X116713000Y-86487000D02*
X115189000Y-86487000D01*
G04 #@! TO.C,C3*
X116713000Y-89662000D02*
X115189000Y-89662000D01*
X115189000Y-89662000D02*
X115189000Y-86868000D01*
X115189000Y-86868000D02*
X116713000Y-86868000D01*
X118237000Y-86868000D02*
X119761000Y-86868000D01*
X119761000Y-86868000D02*
X119761000Y-89662000D01*
X119761000Y-89662000D02*
X118237000Y-89662000D01*
D10*
G04 #@! TO.C,D1*
X93740000Y-89595000D02*
X89140000Y-89595000D01*
X89140000Y-89595000D02*
X89140000Y-97095000D01*
X89140000Y-97095000D02*
X93740000Y-97095000D01*
X93740000Y-97095000D02*
X93740000Y-89595000D01*
D12*
G04 #@! TO.C,R1*
X110998000Y-100203000D02*
X110998000Y-98679000D01*
X110998000Y-98679000D02*
X113792000Y-98679000D01*
X113792000Y-98679000D02*
X113792000Y-100203000D01*
X113792000Y-101727000D02*
X113792000Y-103251000D01*
X113792000Y-103251000D02*
X110998000Y-103251000D01*
X110998000Y-103251000D02*
X110998000Y-101727000D01*
G04 #@! TO.C,R2*
X106553000Y-103251000D02*
X106553000Y-101727000D01*
X109347000Y-103251000D02*
X106553000Y-103251000D01*
X109347000Y-101727000D02*
X109347000Y-103251000D01*
X109347000Y-98679000D02*
X109347000Y-100203000D01*
X106553000Y-98679000D02*
X109347000Y-98679000D01*
X106553000Y-100203000D02*
X106553000Y-98679000D01*
D13*
G04 #@! TO.C,RP1*
X135255000Y-84760000D02*
X130175000Y-84760000D01*
X135255000Y-84760000D02*
X135255000Y-87960000D01*
X135255000Y-87960000D02*
X130175000Y-87960000D01*
X130175000Y-87960000D02*
X130175000Y-84760000D01*
X132715000Y-84760000D02*
X132715000Y-87960000D01*
X133985000Y-84760000D02*
X133985000Y-87960000D01*
X131445000Y-84760000D02*
X131445000Y-87960000D01*
X135255000Y-85260000D02*
X130175000Y-85260000D01*
X135255000Y-87460000D02*
X130175000Y-87460000D01*
G04 #@! TO.C,RP2*
X127635000Y-87460000D02*
X122555000Y-87460000D01*
X127635000Y-85260000D02*
X122555000Y-85260000D01*
X123825000Y-84760000D02*
X123825000Y-87960000D01*
X126365000Y-84760000D02*
X126365000Y-87960000D01*
X125095000Y-84760000D02*
X125095000Y-87960000D01*
X122555000Y-87960000D02*
X122555000Y-84760000D01*
X127635000Y-87960000D02*
X122555000Y-87960000D01*
X127635000Y-84760000D02*
X127635000Y-87960000D01*
X127635000Y-84760000D02*
X122555000Y-84760000D01*
G04 #@! TO.C,RP3*
X112395000Y-84760000D02*
X107315000Y-84760000D01*
X112395000Y-84760000D02*
X112395000Y-87960000D01*
X112395000Y-87960000D02*
X107315000Y-87960000D01*
X107315000Y-87960000D02*
X107315000Y-84760000D01*
X109855000Y-84760000D02*
X109855000Y-87960000D01*
X111125000Y-84760000D02*
X111125000Y-87960000D01*
X108585000Y-84760000D02*
X108585000Y-87960000D01*
X112395000Y-85260000D02*
X107315000Y-85260000D01*
X112395000Y-87460000D02*
X107315000Y-87460000D01*
G04 #@! TO.C,RP4*
X104775000Y-87460000D02*
X99695000Y-87460000D01*
X104775000Y-85260000D02*
X99695000Y-85260000D01*
X100965000Y-84760000D02*
X100965000Y-87960000D01*
X103505000Y-84760000D02*
X103505000Y-87960000D01*
X102235000Y-84760000D02*
X102235000Y-87960000D01*
X99695000Y-87960000D02*
X99695000Y-84760000D01*
X104775000Y-87960000D02*
X99695000Y-87960000D01*
X104775000Y-84760000D02*
X104775000Y-87960000D01*
X104775000Y-84760000D02*
X99695000Y-84760000D01*
G04 #@! TD*
G04 #@! TO.C,U1*
D14*
X121502714Y-77524428D02*
X122119571Y-77524428D01*
X122192142Y-77560714D01*
X122228428Y-77597000D01*
X122264714Y-77669571D01*
X122264714Y-77814714D01*
X122228428Y-77887285D01*
X122192142Y-77923571D01*
X122119571Y-77959857D01*
X121502714Y-77959857D01*
X122264714Y-78721857D02*
X122264714Y-78286428D01*
X122264714Y-78504142D02*
X121502714Y-78504142D01*
X121611571Y-78431571D01*
X121684142Y-78359000D01*
X121720428Y-78286428D01*
G04 #@! TO.C,C2*
X120922142Y-84963000D02*
X120958428Y-84926714D01*
X120994714Y-84817857D01*
X120994714Y-84745285D01*
X120958428Y-84636428D01*
X120885857Y-84563857D01*
X120813285Y-84527571D01*
X120668142Y-84491285D01*
X120559285Y-84491285D01*
X120414142Y-84527571D01*
X120341571Y-84563857D01*
X120269000Y-84636428D01*
X120232714Y-84745285D01*
X120232714Y-84817857D01*
X120269000Y-84926714D01*
X120305285Y-84963000D01*
X120305285Y-85253285D02*
X120269000Y-85289571D01*
X120232714Y-85362142D01*
X120232714Y-85543571D01*
X120269000Y-85616142D01*
X120305285Y-85652428D01*
X120377857Y-85688714D01*
X120450428Y-85688714D01*
X120559285Y-85652428D01*
X120994714Y-85217000D01*
X120994714Y-85688714D01*
X113882714Y-83838142D02*
X113882714Y-83910714D01*
X113919000Y-83983285D01*
X113955285Y-84019571D01*
X114027857Y-84055857D01*
X114173000Y-84092142D01*
X114354428Y-84092142D01*
X114499571Y-84055857D01*
X114572142Y-84019571D01*
X114608428Y-83983285D01*
X114644714Y-83910714D01*
X114644714Y-83838142D01*
X114608428Y-83765571D01*
X114572142Y-83729285D01*
X114499571Y-83693000D01*
X114354428Y-83656714D01*
X114173000Y-83656714D01*
X114027857Y-83693000D01*
X113955285Y-83729285D01*
X113919000Y-83765571D01*
X113882714Y-83838142D01*
X114572142Y-84418714D02*
X114608428Y-84455000D01*
X114644714Y-84418714D01*
X114608428Y-84382428D01*
X114572142Y-84418714D01*
X114644714Y-84418714D01*
X114644714Y-85180714D02*
X114644714Y-84745285D01*
X114644714Y-84963000D02*
X113882714Y-84963000D01*
X113991571Y-84890428D01*
X114064142Y-84817857D01*
X114100428Y-84745285D01*
X114136714Y-85833857D02*
X114644714Y-85833857D01*
X114136714Y-85507285D02*
X114535857Y-85507285D01*
X114608428Y-85543571D01*
X114644714Y-85616142D01*
X114644714Y-85725000D01*
X114608428Y-85797571D01*
X114572142Y-85833857D01*
X114245571Y-86450714D02*
X114245571Y-86196714D01*
X114644714Y-86196714D02*
X113882714Y-86196714D01*
X113882714Y-86559571D01*
G04 #@! TO.C,C3*
X114572142Y-88138000D02*
X114608428Y-88101714D01*
X114644714Y-87992857D01*
X114644714Y-87920285D01*
X114608428Y-87811428D01*
X114535857Y-87738857D01*
X114463285Y-87702571D01*
X114318142Y-87666285D01*
X114209285Y-87666285D01*
X114064142Y-87702571D01*
X113991571Y-87738857D01*
X113919000Y-87811428D01*
X113882714Y-87920285D01*
X113882714Y-87992857D01*
X113919000Y-88101714D01*
X113955285Y-88138000D01*
X113882714Y-88392000D02*
X113882714Y-88863714D01*
X114173000Y-88609714D01*
X114173000Y-88718571D01*
X114209285Y-88791142D01*
X114245571Y-88827428D01*
X114318142Y-88863714D01*
X114499571Y-88863714D01*
X114572142Y-88827428D01*
X114608428Y-88791142D01*
X114644714Y-88718571D01*
X114644714Y-88500857D01*
X114608428Y-88428285D01*
X114572142Y-88392000D01*
X120994714Y-87448571D02*
X120994714Y-87013142D01*
X120994714Y-87230857D02*
X120232714Y-87230857D01*
X120341571Y-87158285D01*
X120414142Y-87085714D01*
X120450428Y-87013142D01*
X120232714Y-87920285D02*
X120232714Y-87992857D01*
X120269000Y-88065428D01*
X120305285Y-88101714D01*
X120377857Y-88138000D01*
X120523000Y-88174285D01*
X120704428Y-88174285D01*
X120849571Y-88138000D01*
X120922142Y-88101714D01*
X120958428Y-88065428D01*
X120994714Y-87992857D01*
X120994714Y-87920285D01*
X120958428Y-87847714D01*
X120922142Y-87811428D01*
X120849571Y-87775142D01*
X120704428Y-87738857D01*
X120523000Y-87738857D01*
X120377857Y-87775142D01*
X120305285Y-87811428D01*
X120269000Y-87847714D01*
X120232714Y-87920285D01*
X120486714Y-88827428D02*
X120994714Y-88827428D01*
X120486714Y-88500857D02*
X120885857Y-88500857D01*
X120958428Y-88537142D01*
X120994714Y-88609714D01*
X120994714Y-88718571D01*
X120958428Y-88791142D01*
X120922142Y-88827428D01*
X120595571Y-89444285D02*
X120595571Y-89190285D01*
X120994714Y-89190285D02*
X120232714Y-89190285D01*
X120232714Y-89553142D01*
G04 #@! TO.C,D1*
X92002428Y-98289714D02*
X92002428Y-97527714D01*
X91821000Y-97527714D01*
X91712142Y-97564000D01*
X91639571Y-97636571D01*
X91603285Y-97709142D01*
X91567000Y-97854285D01*
X91567000Y-97963142D01*
X91603285Y-98108285D01*
X91639571Y-98180857D01*
X91712142Y-98253428D01*
X91821000Y-98289714D01*
X92002428Y-98289714D01*
X90841285Y-98289714D02*
X91276714Y-98289714D01*
X91059000Y-98289714D02*
X91059000Y-97527714D01*
X91131571Y-97636571D01*
X91204142Y-97709142D01*
X91276714Y-97745428D01*
G04 #@! TO.C,R1*
X112522000Y-104484714D02*
X112776000Y-104121857D01*
X112957428Y-104484714D02*
X112957428Y-103722714D01*
X112667142Y-103722714D01*
X112594571Y-103759000D01*
X112558285Y-103795285D01*
X112522000Y-103867857D01*
X112522000Y-103976714D01*
X112558285Y-104049285D01*
X112594571Y-104085571D01*
X112667142Y-104121857D01*
X112957428Y-104121857D01*
X111796285Y-104484714D02*
X112231714Y-104484714D01*
X112014000Y-104484714D02*
X112014000Y-103722714D01*
X112086571Y-103831571D01*
X112159142Y-103904142D01*
X112231714Y-103940428D01*
X114136714Y-100257428D02*
X114644714Y-100257428D01*
X113846428Y-100076000D02*
X114390714Y-99894571D01*
X114390714Y-100366285D01*
X114572142Y-100656571D02*
X114608428Y-100692857D01*
X114644714Y-100656571D01*
X114608428Y-100620285D01*
X114572142Y-100656571D01*
X114644714Y-100656571D01*
X113882714Y-100946857D02*
X113882714Y-101454857D01*
X114644714Y-101128285D01*
X114644714Y-101745142D02*
X113882714Y-101745142D01*
X114354428Y-101817714D02*
X114644714Y-102035428D01*
X114136714Y-102035428D02*
X114427000Y-101745142D01*
G04 #@! TO.C,R2*
X108077000Y-104484714D02*
X108331000Y-104121857D01*
X108512428Y-104484714D02*
X108512428Y-103722714D01*
X108222142Y-103722714D01*
X108149571Y-103759000D01*
X108113285Y-103795285D01*
X108077000Y-103867857D01*
X108077000Y-103976714D01*
X108113285Y-104049285D01*
X108149571Y-104085571D01*
X108222142Y-104121857D01*
X108512428Y-104121857D01*
X107786714Y-103795285D02*
X107750428Y-103759000D01*
X107677857Y-103722714D01*
X107496428Y-103722714D01*
X107423857Y-103759000D01*
X107387571Y-103795285D01*
X107351285Y-103867857D01*
X107351285Y-103940428D01*
X107387571Y-104049285D01*
X107823000Y-104484714D01*
X107351285Y-104484714D01*
X105881714Y-100257428D02*
X106389714Y-100257428D01*
X105591428Y-100076000D02*
X106135714Y-99894571D01*
X106135714Y-100366285D01*
X106317142Y-100656571D02*
X106353428Y-100692857D01*
X106389714Y-100656571D01*
X106353428Y-100620285D01*
X106317142Y-100656571D01*
X106389714Y-100656571D01*
X105627714Y-100946857D02*
X105627714Y-101454857D01*
X106389714Y-101128285D01*
X106389714Y-101745142D02*
X105627714Y-101745142D01*
X106099428Y-101817714D02*
X106389714Y-102035428D01*
X105881714Y-102035428D02*
X106172000Y-101745142D01*
G04 #@! TO.C,RP1*
X133223000Y-84164714D02*
X133477000Y-83801857D01*
X133658428Y-84164714D02*
X133658428Y-83402714D01*
X133368142Y-83402714D01*
X133295571Y-83439000D01*
X133259285Y-83475285D01*
X133223000Y-83547857D01*
X133223000Y-83656714D01*
X133259285Y-83729285D01*
X133295571Y-83765571D01*
X133368142Y-83801857D01*
X133658428Y-83801857D01*
X132896428Y-84164714D02*
X132896428Y-83402714D01*
X132606142Y-83402714D01*
X132533571Y-83439000D01*
X132497285Y-83475285D01*
X132461000Y-83547857D01*
X132461000Y-83656714D01*
X132497285Y-83729285D01*
X132533571Y-83765571D01*
X132606142Y-83801857D01*
X132896428Y-83801857D01*
X131735285Y-84164714D02*
X132170714Y-84164714D01*
X131953000Y-84164714D02*
X131953000Y-83402714D01*
X132025571Y-83511571D01*
X132098142Y-83584142D01*
X132170714Y-83620428D01*
X129195285Y-84745285D02*
X129159000Y-84781571D01*
X129122714Y-84854142D01*
X129122714Y-85035571D01*
X129159000Y-85108142D01*
X129195285Y-85144428D01*
X129267857Y-85180714D01*
X129340428Y-85180714D01*
X129449285Y-85144428D01*
X129884714Y-84709000D01*
X129884714Y-85180714D01*
X129195285Y-85471000D02*
X129159000Y-85507285D01*
X129122714Y-85579857D01*
X129122714Y-85761285D01*
X129159000Y-85833857D01*
X129195285Y-85870142D01*
X129267857Y-85906428D01*
X129340428Y-85906428D01*
X129449285Y-85870142D01*
X129884714Y-85434714D01*
X129884714Y-85906428D01*
X129122714Y-86378142D02*
X129122714Y-86450714D01*
X129159000Y-86523285D01*
X129195285Y-86559571D01*
X129267857Y-86595857D01*
X129413000Y-86632142D01*
X129594428Y-86632142D01*
X129739571Y-86595857D01*
X129812142Y-86559571D01*
X129848428Y-86523285D01*
X129884714Y-86450714D01*
X129884714Y-86378142D01*
X129848428Y-86305571D01*
X129812142Y-86269285D01*
X129739571Y-86233000D01*
X129594428Y-86196714D01*
X129413000Y-86196714D01*
X129267857Y-86233000D01*
X129195285Y-86269285D01*
X129159000Y-86305571D01*
X129122714Y-86378142D01*
X129884714Y-86886142D02*
X129376714Y-87285285D01*
X129376714Y-86886142D02*
X129884714Y-87285285D01*
X129376714Y-87902142D02*
X129884714Y-87902142D01*
X129086428Y-87720714D02*
X129630714Y-87539285D01*
X129630714Y-88011000D01*
G04 #@! TO.C,RP2*
X125603000Y-84164714D02*
X125857000Y-83801857D01*
X126038428Y-84164714D02*
X126038428Y-83402714D01*
X125748142Y-83402714D01*
X125675571Y-83439000D01*
X125639285Y-83475285D01*
X125603000Y-83547857D01*
X125603000Y-83656714D01*
X125639285Y-83729285D01*
X125675571Y-83765571D01*
X125748142Y-83801857D01*
X126038428Y-83801857D01*
X125276428Y-84164714D02*
X125276428Y-83402714D01*
X124986142Y-83402714D01*
X124913571Y-83439000D01*
X124877285Y-83475285D01*
X124841000Y-83547857D01*
X124841000Y-83656714D01*
X124877285Y-83729285D01*
X124913571Y-83765571D01*
X124986142Y-83801857D01*
X125276428Y-83801857D01*
X124550714Y-83475285D02*
X124514428Y-83439000D01*
X124441857Y-83402714D01*
X124260428Y-83402714D01*
X124187857Y-83439000D01*
X124151571Y-83475285D01*
X124115285Y-83547857D01*
X124115285Y-83620428D01*
X124151571Y-83729285D01*
X124587000Y-84164714D01*
X124115285Y-84164714D01*
X121575285Y-84745285D02*
X121539000Y-84781571D01*
X121502714Y-84854142D01*
X121502714Y-85035571D01*
X121539000Y-85108142D01*
X121575285Y-85144428D01*
X121647857Y-85180714D01*
X121720428Y-85180714D01*
X121829285Y-85144428D01*
X122264714Y-84709000D01*
X122264714Y-85180714D01*
X121575285Y-85471000D02*
X121539000Y-85507285D01*
X121502714Y-85579857D01*
X121502714Y-85761285D01*
X121539000Y-85833857D01*
X121575285Y-85870142D01*
X121647857Y-85906428D01*
X121720428Y-85906428D01*
X121829285Y-85870142D01*
X122264714Y-85434714D01*
X122264714Y-85906428D01*
X121502714Y-86378142D02*
X121502714Y-86450714D01*
X121539000Y-86523285D01*
X121575285Y-86559571D01*
X121647857Y-86595857D01*
X121793000Y-86632142D01*
X121974428Y-86632142D01*
X122119571Y-86595857D01*
X122192142Y-86559571D01*
X122228428Y-86523285D01*
X122264714Y-86450714D01*
X122264714Y-86378142D01*
X122228428Y-86305571D01*
X122192142Y-86269285D01*
X122119571Y-86233000D01*
X121974428Y-86196714D01*
X121793000Y-86196714D01*
X121647857Y-86233000D01*
X121575285Y-86269285D01*
X121539000Y-86305571D01*
X121502714Y-86378142D01*
X122264714Y-86886142D02*
X121756714Y-87285285D01*
X121756714Y-86886142D02*
X122264714Y-87285285D01*
X121756714Y-87902142D02*
X122264714Y-87902142D01*
X121466428Y-87720714D02*
X122010714Y-87539285D01*
X122010714Y-88011000D01*
G04 #@! TO.C,RP3*
X110363000Y-84164714D02*
X110617000Y-83801857D01*
X110798428Y-84164714D02*
X110798428Y-83402714D01*
X110508142Y-83402714D01*
X110435571Y-83439000D01*
X110399285Y-83475285D01*
X110363000Y-83547857D01*
X110363000Y-83656714D01*
X110399285Y-83729285D01*
X110435571Y-83765571D01*
X110508142Y-83801857D01*
X110798428Y-83801857D01*
X110036428Y-84164714D02*
X110036428Y-83402714D01*
X109746142Y-83402714D01*
X109673571Y-83439000D01*
X109637285Y-83475285D01*
X109601000Y-83547857D01*
X109601000Y-83656714D01*
X109637285Y-83729285D01*
X109673571Y-83765571D01*
X109746142Y-83801857D01*
X110036428Y-83801857D01*
X109347000Y-83402714D02*
X108875285Y-83402714D01*
X109129285Y-83693000D01*
X109020428Y-83693000D01*
X108947857Y-83729285D01*
X108911571Y-83765571D01*
X108875285Y-83838142D01*
X108875285Y-84019571D01*
X108911571Y-84092142D01*
X108947857Y-84128428D01*
X109020428Y-84164714D01*
X109238142Y-84164714D01*
X109310714Y-84128428D01*
X109347000Y-84092142D01*
X106335285Y-84745285D02*
X106299000Y-84781571D01*
X106262714Y-84854142D01*
X106262714Y-85035571D01*
X106299000Y-85108142D01*
X106335285Y-85144428D01*
X106407857Y-85180714D01*
X106480428Y-85180714D01*
X106589285Y-85144428D01*
X107024714Y-84709000D01*
X107024714Y-85180714D01*
X106335285Y-85471000D02*
X106299000Y-85507285D01*
X106262714Y-85579857D01*
X106262714Y-85761285D01*
X106299000Y-85833857D01*
X106335285Y-85870142D01*
X106407857Y-85906428D01*
X106480428Y-85906428D01*
X106589285Y-85870142D01*
X107024714Y-85434714D01*
X107024714Y-85906428D01*
X106262714Y-86378142D02*
X106262714Y-86450714D01*
X106299000Y-86523285D01*
X106335285Y-86559571D01*
X106407857Y-86595857D01*
X106553000Y-86632142D01*
X106734428Y-86632142D01*
X106879571Y-86595857D01*
X106952142Y-86559571D01*
X106988428Y-86523285D01*
X107024714Y-86450714D01*
X107024714Y-86378142D01*
X106988428Y-86305571D01*
X106952142Y-86269285D01*
X106879571Y-86233000D01*
X106734428Y-86196714D01*
X106553000Y-86196714D01*
X106407857Y-86233000D01*
X106335285Y-86269285D01*
X106299000Y-86305571D01*
X106262714Y-86378142D01*
X107024714Y-86886142D02*
X106516714Y-87285285D01*
X106516714Y-86886142D02*
X107024714Y-87285285D01*
X106516714Y-87902142D02*
X107024714Y-87902142D01*
X106226428Y-87720714D02*
X106770714Y-87539285D01*
X106770714Y-88011000D01*
G04 #@! TO.C,RP4*
X102743000Y-84164714D02*
X102997000Y-83801857D01*
X103178428Y-84164714D02*
X103178428Y-83402714D01*
X102888142Y-83402714D01*
X102815571Y-83439000D01*
X102779285Y-83475285D01*
X102743000Y-83547857D01*
X102743000Y-83656714D01*
X102779285Y-83729285D01*
X102815571Y-83765571D01*
X102888142Y-83801857D01*
X103178428Y-83801857D01*
X102416428Y-84164714D02*
X102416428Y-83402714D01*
X102126142Y-83402714D01*
X102053571Y-83439000D01*
X102017285Y-83475285D01*
X101981000Y-83547857D01*
X101981000Y-83656714D01*
X102017285Y-83729285D01*
X102053571Y-83765571D01*
X102126142Y-83801857D01*
X102416428Y-83801857D01*
X101327857Y-83656714D02*
X101327857Y-84164714D01*
X101509285Y-83366428D02*
X101690714Y-83910714D01*
X101219000Y-83910714D01*
X98715285Y-84745285D02*
X98679000Y-84781571D01*
X98642714Y-84854142D01*
X98642714Y-85035571D01*
X98679000Y-85108142D01*
X98715285Y-85144428D01*
X98787857Y-85180714D01*
X98860428Y-85180714D01*
X98969285Y-85144428D01*
X99404714Y-84709000D01*
X99404714Y-85180714D01*
X98715285Y-85471000D02*
X98679000Y-85507285D01*
X98642714Y-85579857D01*
X98642714Y-85761285D01*
X98679000Y-85833857D01*
X98715285Y-85870142D01*
X98787857Y-85906428D01*
X98860428Y-85906428D01*
X98969285Y-85870142D01*
X99404714Y-85434714D01*
X99404714Y-85906428D01*
X98642714Y-86378142D02*
X98642714Y-86450714D01*
X98679000Y-86523285D01*
X98715285Y-86559571D01*
X98787857Y-86595857D01*
X98933000Y-86632142D01*
X99114428Y-86632142D01*
X99259571Y-86595857D01*
X99332142Y-86559571D01*
X99368428Y-86523285D01*
X99404714Y-86450714D01*
X99404714Y-86378142D01*
X99368428Y-86305571D01*
X99332142Y-86269285D01*
X99259571Y-86233000D01*
X99114428Y-86196714D01*
X98933000Y-86196714D01*
X98787857Y-86233000D01*
X98715285Y-86269285D01*
X98679000Y-86305571D01*
X98642714Y-86378142D01*
X99404714Y-86886142D02*
X98896714Y-87285285D01*
X98896714Y-86886142D02*
X99404714Y-87285285D01*
X98896714Y-87902142D02*
X99404714Y-87902142D01*
X98606428Y-87720714D02*
X99150714Y-87539285D01*
X99150714Y-88011000D01*
G04 #@! TD*
%LPC*%
D15*
G04 #@! TO.C,U1*
X114550000Y-73880000D03*
X114550000Y-74530000D03*
X114550000Y-75180000D03*
X114550000Y-75830000D03*
X114550000Y-76480000D03*
X114550000Y-77130000D03*
X114550000Y-77780000D03*
X114550000Y-78430000D03*
X114550000Y-79080000D03*
X114550000Y-79730000D03*
X114550000Y-80380000D03*
X114550000Y-81030000D03*
X114550000Y-81680000D03*
X114550000Y-82330000D03*
X120400000Y-82330000D03*
X120400000Y-81680000D03*
X120400000Y-81030000D03*
X120400000Y-80380000D03*
X120400000Y-79730000D03*
X120400000Y-79080000D03*
X120400000Y-78430000D03*
X120400000Y-77780000D03*
X120400000Y-77130000D03*
X120400000Y-76480000D03*
X120400000Y-75830000D03*
X120400000Y-75180000D03*
X120400000Y-74530000D03*
X120400000Y-73880000D03*
G04 #@! TD*
D16*
G04 #@! TO.C,MDB1*
X130175000Y-71120000D03*
X130175000Y-106680000D03*
X89535000Y-101600000D03*
X89535000Y-76200000D03*
D17*
X88265000Y-106680000D03*
X90805000Y-106680000D03*
X93345000Y-106680000D03*
X95885000Y-106680000D03*
X98425000Y-106680000D03*
X100965000Y-106680000D03*
X103505000Y-106680000D03*
X106045000Y-106680000D03*
X108585000Y-106680000D03*
X111125000Y-106680000D03*
X113665000Y-106680000D03*
X116205000Y-106680000D03*
X118745000Y-106680000D03*
X121285000Y-106680000D03*
X123825000Y-106680000D03*
X126365000Y-106680000D03*
X126365000Y-71120000D03*
X123825000Y-71120000D03*
X121285000Y-71120000D03*
X118745000Y-71120000D03*
X116205000Y-71120000D03*
X113665000Y-71120000D03*
X111125000Y-71120000D03*
X108585000Y-71120000D03*
X106045000Y-71120000D03*
X103505000Y-71120000D03*
X100965000Y-71120000D03*
X98425000Y-71120000D03*
X95885000Y-71120000D03*
D18*
X88265000Y-71120000D03*
D17*
X93345000Y-71120000D03*
X90805000Y-71120000D03*
G04 #@! TD*
D19*
G04 #@! TO.C,P2*
X98425000Y-93980000D03*
X100965000Y-93980000D03*
X103505000Y-93980000D03*
X106045000Y-93980000D03*
X108585000Y-93980000D03*
X111125000Y-93980000D03*
X113665000Y-93980000D03*
X116205000Y-93980000D03*
X118745000Y-93980000D03*
X121285000Y-93980000D03*
X123825000Y-93980000D03*
X126365000Y-93980000D03*
X128905000Y-93980000D03*
X131445000Y-93980000D03*
X133985000Y-93980000D03*
X136525000Y-93980000D03*
X98425000Y-96774000D03*
X98425000Y-91186000D03*
X100965000Y-96774000D03*
X100965000Y-91186000D03*
X103505000Y-96774000D03*
X103505000Y-91186000D03*
X106045000Y-96774000D03*
X106045000Y-91186000D03*
X108585000Y-96774000D03*
X108585000Y-91186000D03*
X111125000Y-96774000D03*
X111125000Y-91186000D03*
X113665000Y-96774000D03*
X113665000Y-91186000D03*
X116205000Y-96774000D03*
X116205000Y-91186000D03*
X118745000Y-96774000D03*
X118745000Y-91186000D03*
X121285000Y-96774000D03*
X121285000Y-91186000D03*
X123825000Y-96774000D03*
X123825000Y-91186000D03*
X126365000Y-96774000D03*
X126365000Y-91186000D03*
X128905000Y-96774000D03*
X128905000Y-91186000D03*
X131445000Y-96774000D03*
X131445000Y-91186000D03*
X133985000Y-96774000D03*
X133985000Y-91186000D03*
X136525000Y-96774000D03*
D20*
X136525000Y-91186000D03*
G04 #@! TD*
D21*
G04 #@! TO.C,C2*
X118999000Y-85090000D03*
X115951000Y-85090000D03*
G04 #@! TD*
G04 #@! TO.C,C3*
X115951000Y-88265000D03*
X118999000Y-88265000D03*
G04 #@! TD*
D22*
G04 #@! TO.C,D1*
X91440000Y-94365000D03*
D23*
X92505000Y-90565000D03*
X90375000Y-90565000D03*
G04 #@! TD*
D24*
G04 #@! TO.C,L1*
X142240000Y-95250000D03*
X147320000Y-95250000D03*
G04 #@! TD*
D25*
G04 #@! TO.C,P1*
X153212800Y-88900000D03*
D26*
X149707600Y-88900000D03*
D27*
X144221200Y-88900000D03*
D28*
X151206200Y-84404200D03*
X151206200Y-93395800D03*
G04 #@! TD*
D29*
G04 #@! TO.C,R1*
X112395000Y-99441000D03*
X112395000Y-102489000D03*
G04 #@! TD*
G04 #@! TO.C,R2*
X107950000Y-102489000D03*
X107950000Y-99441000D03*
G04 #@! TD*
D30*
G04 #@! TO.C,RP1*
X134620000Y-84760000D03*
X134620000Y-87960000D03*
X133350000Y-84760000D03*
X133350000Y-87960000D03*
X132080000Y-84760000D03*
X132080000Y-87960000D03*
X130810000Y-84760000D03*
X130810000Y-87960000D03*
G04 #@! TD*
G04 #@! TO.C,RP2*
X123190000Y-87960000D03*
X123190000Y-84760000D03*
X124460000Y-87960000D03*
X124460000Y-84760000D03*
X125730000Y-87960000D03*
X125730000Y-84760000D03*
X127000000Y-87960000D03*
X127000000Y-84760000D03*
G04 #@! TD*
G04 #@! TO.C,RP3*
X111760000Y-84760000D03*
X111760000Y-87960000D03*
X110490000Y-84760000D03*
X110490000Y-87960000D03*
X109220000Y-84760000D03*
X109220000Y-87960000D03*
X107950000Y-84760000D03*
X107950000Y-87960000D03*
G04 #@! TD*
G04 #@! TO.C,RP4*
X100330000Y-87960000D03*
X100330000Y-84760000D03*
X101600000Y-87960000D03*
X101600000Y-84760000D03*
X102870000Y-87960000D03*
X102870000Y-84760000D03*
X104140000Y-87960000D03*
X104140000Y-84760000D03*
G04 #@! TD*
M02*
