G04 #@! TF.GenerationSoftware,KiCad,Pcbnew,6.0.0-rc1-unknown-4d73cfb~66~ubuntu18.04.1*
G04 #@! TF.CreationDate,2018-11-28T14:14:14-05:00
G04 #@! TF.ProjectId,servo_controller_3x2,73657276-6f5f-4636-9f6e-74726f6c6c65,1.0*
G04 #@! TF.SameCoordinates,Original*
G04 #@! TF.FileFunction,Soldermask,Bot*
G04 #@! TF.FilePolarity,Negative*
%FSLAX46Y46*%
G04 Gerber Fmt 4.6, Leading zero omitted, Abs format (unit mm)*
G04 Created by KiCad (PCBNEW 6.0.0-rc1-unknown-4d73cfb~66~ubuntu18.04.1) date Wed 28 Nov 2018 02:14:14 PM EST*
%MOMM*%
%LPD*%
G01*
G04 APERTURE LIST*
%ADD10C,0.228600*%
%ADD11C,0.100000*%
G04 APERTURE END LIST*
D10*
X156210000Y-67945000D02*
X85725000Y-67945000D01*
X156210000Y-109855000D02*
X156210000Y-67945000D01*
X85725000Y-109855000D02*
X156210000Y-109855000D01*
X85725000Y-67945000D02*
X85725000Y-109855000D01*
D11*
G36*
X130464620Y-104924776D02*
X130693625Y-104970328D01*
X131017197Y-105104355D01*
X131211339Y-105234077D01*
X131308409Y-105298937D01*
X131556063Y-105546591D01*
X131620923Y-105643661D01*
X131750645Y-105837803D01*
X131884672Y-106161375D01*
X131953000Y-106504883D01*
X131953000Y-106855117D01*
X131884672Y-107198625D01*
X131750645Y-107522197D01*
X131644115Y-107681630D01*
X131566704Y-107797484D01*
X131556062Y-107813410D01*
X131308410Y-108061062D01*
X131017197Y-108255645D01*
X130693625Y-108389672D01*
X130464620Y-108435224D01*
X130350118Y-108458000D01*
X129999882Y-108458000D01*
X129885380Y-108435224D01*
X129656375Y-108389672D01*
X129332803Y-108255645D01*
X129041590Y-108061062D01*
X128793938Y-107813410D01*
X128783297Y-107797484D01*
X128705885Y-107681630D01*
X128599355Y-107522197D01*
X128465328Y-107198625D01*
X128397000Y-106855117D01*
X128397000Y-106504883D01*
X128465328Y-106161375D01*
X128599355Y-105837803D01*
X128729077Y-105643661D01*
X128793937Y-105546591D01*
X129041591Y-105298937D01*
X129138661Y-105234077D01*
X129332803Y-105104355D01*
X129656375Y-104970328D01*
X129885380Y-104924776D01*
X129999882Y-104902000D01*
X130350118Y-104902000D01*
X130464620Y-104924776D01*
X130464620Y-104924776D01*
G37*
G36*
X88446739Y-105423414D02*
X88621501Y-105476427D01*
X88782563Y-105562516D01*
X88923730Y-105678370D01*
X89039584Y-105819537D01*
X89125673Y-105980598D01*
X89178686Y-106155360D01*
X89192100Y-106291556D01*
X89192100Y-107068443D01*
X89178686Y-107204639D01*
X89125673Y-107379402D01*
X89039584Y-107540463D01*
X88923730Y-107681630D01*
X88782563Y-107797484D01*
X88621502Y-107883573D01*
X88446740Y-107936586D01*
X88265000Y-107954486D01*
X88083261Y-107936586D01*
X87908499Y-107883573D01*
X87747438Y-107797484D01*
X87606271Y-107681630D01*
X87490417Y-107540463D01*
X87404329Y-107379403D01*
X87384719Y-107314760D01*
X87351315Y-107204643D01*
X87351315Y-107204640D01*
X87351314Y-107204638D01*
X87337900Y-107068444D01*
X87337900Y-106291557D01*
X87351314Y-106155361D01*
X87404327Y-105980599D01*
X87490416Y-105819537D01*
X87606270Y-105678370D01*
X87747437Y-105562516D01*
X87908498Y-105476427D01*
X88083260Y-105423414D01*
X88265000Y-105405514D01*
X88446739Y-105423414D01*
X88446739Y-105423414D01*
G37*
G36*
X90986739Y-105423414D02*
X91161501Y-105476427D01*
X91322563Y-105562516D01*
X91463730Y-105678370D01*
X91579584Y-105819537D01*
X91665673Y-105980598D01*
X91718686Y-106155360D01*
X91732100Y-106291556D01*
X91732100Y-107068443D01*
X91718686Y-107204639D01*
X91665673Y-107379402D01*
X91579584Y-107540463D01*
X91463730Y-107681630D01*
X91322563Y-107797484D01*
X91161502Y-107883573D01*
X90986740Y-107936586D01*
X90805000Y-107954486D01*
X90623261Y-107936586D01*
X90448499Y-107883573D01*
X90287438Y-107797484D01*
X90146271Y-107681630D01*
X90030417Y-107540463D01*
X89944329Y-107379403D01*
X89924719Y-107314760D01*
X89891315Y-107204643D01*
X89891315Y-107204640D01*
X89891314Y-107204638D01*
X89877900Y-107068444D01*
X89877900Y-106291557D01*
X89891314Y-106155361D01*
X89944327Y-105980599D01*
X90030416Y-105819537D01*
X90146270Y-105678370D01*
X90287437Y-105562516D01*
X90448498Y-105476427D01*
X90623260Y-105423414D01*
X90805000Y-105405514D01*
X90986739Y-105423414D01*
X90986739Y-105423414D01*
G37*
G36*
X108766739Y-105423414D02*
X108941501Y-105476427D01*
X109102563Y-105562516D01*
X109243730Y-105678370D01*
X109359584Y-105819537D01*
X109445673Y-105980598D01*
X109498686Y-106155360D01*
X109512100Y-106291556D01*
X109512100Y-107068443D01*
X109498686Y-107204639D01*
X109445673Y-107379402D01*
X109359584Y-107540463D01*
X109243730Y-107681630D01*
X109102563Y-107797484D01*
X108941502Y-107883573D01*
X108766740Y-107936586D01*
X108585000Y-107954486D01*
X108403261Y-107936586D01*
X108228499Y-107883573D01*
X108067438Y-107797484D01*
X107926271Y-107681630D01*
X107810417Y-107540463D01*
X107724329Y-107379403D01*
X107704719Y-107314760D01*
X107671315Y-107204643D01*
X107671315Y-107204640D01*
X107671314Y-107204638D01*
X107657900Y-107068444D01*
X107657900Y-106291557D01*
X107671314Y-106155361D01*
X107724327Y-105980599D01*
X107810416Y-105819537D01*
X107926270Y-105678370D01*
X108067437Y-105562516D01*
X108228498Y-105476427D01*
X108403260Y-105423414D01*
X108585000Y-105405514D01*
X108766739Y-105423414D01*
X108766739Y-105423414D01*
G37*
G36*
X93526739Y-105423414D02*
X93701501Y-105476427D01*
X93862563Y-105562516D01*
X94003730Y-105678370D01*
X94119584Y-105819537D01*
X94205673Y-105980598D01*
X94258686Y-106155360D01*
X94272100Y-106291556D01*
X94272100Y-107068443D01*
X94258686Y-107204639D01*
X94205673Y-107379402D01*
X94119584Y-107540463D01*
X94003730Y-107681630D01*
X93862563Y-107797484D01*
X93701502Y-107883573D01*
X93526740Y-107936586D01*
X93345000Y-107954486D01*
X93163261Y-107936586D01*
X92988499Y-107883573D01*
X92827438Y-107797484D01*
X92686271Y-107681630D01*
X92570417Y-107540463D01*
X92484329Y-107379403D01*
X92464719Y-107314760D01*
X92431315Y-107204643D01*
X92431315Y-107204640D01*
X92431314Y-107204638D01*
X92417900Y-107068444D01*
X92417900Y-106291557D01*
X92431314Y-106155361D01*
X92484327Y-105980599D01*
X92570416Y-105819537D01*
X92686270Y-105678370D01*
X92827437Y-105562516D01*
X92988498Y-105476427D01*
X93163260Y-105423414D01*
X93345000Y-105405514D01*
X93526739Y-105423414D01*
X93526739Y-105423414D01*
G37*
G36*
X96066739Y-105423414D02*
X96241501Y-105476427D01*
X96402563Y-105562516D01*
X96543730Y-105678370D01*
X96659584Y-105819537D01*
X96745673Y-105980598D01*
X96798686Y-106155360D01*
X96812100Y-106291556D01*
X96812100Y-107068443D01*
X96798686Y-107204639D01*
X96745673Y-107379402D01*
X96659584Y-107540463D01*
X96543730Y-107681630D01*
X96402563Y-107797484D01*
X96241502Y-107883573D01*
X96066740Y-107936586D01*
X95885000Y-107954486D01*
X95703261Y-107936586D01*
X95528499Y-107883573D01*
X95367438Y-107797484D01*
X95226271Y-107681630D01*
X95110417Y-107540463D01*
X95024329Y-107379403D01*
X95004719Y-107314760D01*
X94971315Y-107204643D01*
X94971315Y-107204640D01*
X94971314Y-107204638D01*
X94957900Y-107068444D01*
X94957900Y-106291557D01*
X94971314Y-106155361D01*
X95024327Y-105980599D01*
X95110416Y-105819537D01*
X95226270Y-105678370D01*
X95367437Y-105562516D01*
X95528498Y-105476427D01*
X95703260Y-105423414D01*
X95885000Y-105405514D01*
X96066739Y-105423414D01*
X96066739Y-105423414D01*
G37*
G36*
X98606739Y-105423414D02*
X98781501Y-105476427D01*
X98942563Y-105562516D01*
X99083730Y-105678370D01*
X99199584Y-105819537D01*
X99285673Y-105980598D01*
X99338686Y-106155360D01*
X99352100Y-106291556D01*
X99352100Y-107068443D01*
X99338686Y-107204639D01*
X99285673Y-107379402D01*
X99199584Y-107540463D01*
X99083730Y-107681630D01*
X98942563Y-107797484D01*
X98781502Y-107883573D01*
X98606740Y-107936586D01*
X98425000Y-107954486D01*
X98243261Y-107936586D01*
X98068499Y-107883573D01*
X97907438Y-107797484D01*
X97766271Y-107681630D01*
X97650417Y-107540463D01*
X97564329Y-107379403D01*
X97544719Y-107314760D01*
X97511315Y-107204643D01*
X97511315Y-107204640D01*
X97511314Y-107204638D01*
X97497900Y-107068444D01*
X97497900Y-106291557D01*
X97511314Y-106155361D01*
X97564327Y-105980599D01*
X97650416Y-105819537D01*
X97766270Y-105678370D01*
X97907437Y-105562516D01*
X98068498Y-105476427D01*
X98243260Y-105423414D01*
X98425000Y-105405514D01*
X98606739Y-105423414D01*
X98606739Y-105423414D01*
G37*
G36*
X101146739Y-105423414D02*
X101321501Y-105476427D01*
X101482563Y-105562516D01*
X101623730Y-105678370D01*
X101739584Y-105819537D01*
X101825673Y-105980598D01*
X101878686Y-106155360D01*
X101892100Y-106291556D01*
X101892100Y-107068443D01*
X101878686Y-107204639D01*
X101825673Y-107379402D01*
X101739584Y-107540463D01*
X101623730Y-107681630D01*
X101482563Y-107797484D01*
X101321502Y-107883573D01*
X101146740Y-107936586D01*
X100965000Y-107954486D01*
X100783261Y-107936586D01*
X100608499Y-107883573D01*
X100447438Y-107797484D01*
X100306271Y-107681630D01*
X100190417Y-107540463D01*
X100104329Y-107379403D01*
X100084719Y-107314760D01*
X100051315Y-107204643D01*
X100051315Y-107204640D01*
X100051314Y-107204638D01*
X100037900Y-107068444D01*
X100037900Y-106291557D01*
X100051314Y-106155361D01*
X100104327Y-105980599D01*
X100190416Y-105819537D01*
X100306270Y-105678370D01*
X100447437Y-105562516D01*
X100608498Y-105476427D01*
X100783260Y-105423414D01*
X100965000Y-105405514D01*
X101146739Y-105423414D01*
X101146739Y-105423414D01*
G37*
G36*
X103686739Y-105423414D02*
X103861501Y-105476427D01*
X104022563Y-105562516D01*
X104163730Y-105678370D01*
X104279584Y-105819537D01*
X104365673Y-105980598D01*
X104418686Y-106155360D01*
X104432100Y-106291556D01*
X104432100Y-107068443D01*
X104418686Y-107204639D01*
X104365673Y-107379402D01*
X104279584Y-107540463D01*
X104163730Y-107681630D01*
X104022563Y-107797484D01*
X103861502Y-107883573D01*
X103686740Y-107936586D01*
X103505000Y-107954486D01*
X103323261Y-107936586D01*
X103148499Y-107883573D01*
X102987438Y-107797484D01*
X102846271Y-107681630D01*
X102730417Y-107540463D01*
X102644329Y-107379403D01*
X102624719Y-107314760D01*
X102591315Y-107204643D01*
X102591315Y-107204640D01*
X102591314Y-107204638D01*
X102577900Y-107068444D01*
X102577900Y-106291557D01*
X102591314Y-106155361D01*
X102644327Y-105980599D01*
X102730416Y-105819537D01*
X102846270Y-105678370D01*
X102987437Y-105562516D01*
X103148498Y-105476427D01*
X103323260Y-105423414D01*
X103505000Y-105405514D01*
X103686739Y-105423414D01*
X103686739Y-105423414D01*
G37*
G36*
X111306739Y-105423414D02*
X111481501Y-105476427D01*
X111642563Y-105562516D01*
X111783730Y-105678370D01*
X111899584Y-105819537D01*
X111985673Y-105980598D01*
X112038686Y-106155360D01*
X112052100Y-106291556D01*
X112052100Y-107068443D01*
X112038686Y-107204639D01*
X111985673Y-107379402D01*
X111899584Y-107540463D01*
X111783730Y-107681630D01*
X111642563Y-107797484D01*
X111481502Y-107883573D01*
X111306740Y-107936586D01*
X111125000Y-107954486D01*
X110943261Y-107936586D01*
X110768499Y-107883573D01*
X110607438Y-107797484D01*
X110466271Y-107681630D01*
X110350417Y-107540463D01*
X110264329Y-107379403D01*
X110244719Y-107314760D01*
X110211315Y-107204643D01*
X110211315Y-107204640D01*
X110211314Y-107204638D01*
X110197900Y-107068444D01*
X110197900Y-106291557D01*
X110211314Y-106155361D01*
X110264327Y-105980599D01*
X110350416Y-105819537D01*
X110466270Y-105678370D01*
X110607437Y-105562516D01*
X110768498Y-105476427D01*
X110943260Y-105423414D01*
X111125000Y-105405514D01*
X111306739Y-105423414D01*
X111306739Y-105423414D01*
G37*
G36*
X113846739Y-105423414D02*
X114021501Y-105476427D01*
X114182563Y-105562516D01*
X114323730Y-105678370D01*
X114439584Y-105819537D01*
X114525673Y-105980598D01*
X114578686Y-106155360D01*
X114592100Y-106291556D01*
X114592100Y-107068443D01*
X114578686Y-107204639D01*
X114525673Y-107379402D01*
X114439584Y-107540463D01*
X114323730Y-107681630D01*
X114182563Y-107797484D01*
X114021502Y-107883573D01*
X113846740Y-107936586D01*
X113665000Y-107954486D01*
X113483261Y-107936586D01*
X113308499Y-107883573D01*
X113147438Y-107797484D01*
X113006271Y-107681630D01*
X112890417Y-107540463D01*
X112804329Y-107379403D01*
X112784719Y-107314760D01*
X112751315Y-107204643D01*
X112751315Y-107204640D01*
X112751314Y-107204638D01*
X112737900Y-107068444D01*
X112737900Y-106291557D01*
X112751314Y-106155361D01*
X112804327Y-105980599D01*
X112890416Y-105819537D01*
X113006270Y-105678370D01*
X113147437Y-105562516D01*
X113308498Y-105476427D01*
X113483260Y-105423414D01*
X113665000Y-105405514D01*
X113846739Y-105423414D01*
X113846739Y-105423414D01*
G37*
G36*
X116386739Y-105423414D02*
X116561501Y-105476427D01*
X116722563Y-105562516D01*
X116863730Y-105678370D01*
X116979584Y-105819537D01*
X117065673Y-105980598D01*
X117118686Y-106155360D01*
X117132100Y-106291556D01*
X117132100Y-107068443D01*
X117118686Y-107204639D01*
X117065673Y-107379402D01*
X116979584Y-107540463D01*
X116863730Y-107681630D01*
X116722563Y-107797484D01*
X116561502Y-107883573D01*
X116386740Y-107936586D01*
X116205000Y-107954486D01*
X116023261Y-107936586D01*
X115848499Y-107883573D01*
X115687438Y-107797484D01*
X115546271Y-107681630D01*
X115430417Y-107540463D01*
X115344329Y-107379403D01*
X115324719Y-107314760D01*
X115291315Y-107204643D01*
X115291315Y-107204640D01*
X115291314Y-107204638D01*
X115277900Y-107068444D01*
X115277900Y-106291557D01*
X115291314Y-106155361D01*
X115344327Y-105980599D01*
X115430416Y-105819537D01*
X115546270Y-105678370D01*
X115687437Y-105562516D01*
X115848498Y-105476427D01*
X116023260Y-105423414D01*
X116205000Y-105405514D01*
X116386739Y-105423414D01*
X116386739Y-105423414D01*
G37*
G36*
X118926739Y-105423414D02*
X119101501Y-105476427D01*
X119262563Y-105562516D01*
X119403730Y-105678370D01*
X119519584Y-105819537D01*
X119605673Y-105980598D01*
X119658686Y-106155360D01*
X119672100Y-106291556D01*
X119672100Y-107068443D01*
X119658686Y-107204639D01*
X119605673Y-107379402D01*
X119519584Y-107540463D01*
X119403730Y-107681630D01*
X119262563Y-107797484D01*
X119101502Y-107883573D01*
X118926740Y-107936586D01*
X118745000Y-107954486D01*
X118563261Y-107936586D01*
X118388499Y-107883573D01*
X118227438Y-107797484D01*
X118086271Y-107681630D01*
X117970417Y-107540463D01*
X117884329Y-107379403D01*
X117864719Y-107314760D01*
X117831315Y-107204643D01*
X117831315Y-107204640D01*
X117831314Y-107204638D01*
X117817900Y-107068444D01*
X117817900Y-106291557D01*
X117831314Y-106155361D01*
X117884327Y-105980599D01*
X117970416Y-105819537D01*
X118086270Y-105678370D01*
X118227437Y-105562516D01*
X118388498Y-105476427D01*
X118563260Y-105423414D01*
X118745000Y-105405514D01*
X118926739Y-105423414D01*
X118926739Y-105423414D01*
G37*
G36*
X121466739Y-105423414D02*
X121641501Y-105476427D01*
X121802563Y-105562516D01*
X121943730Y-105678370D01*
X122059584Y-105819537D01*
X122145673Y-105980598D01*
X122198686Y-106155360D01*
X122212100Y-106291556D01*
X122212100Y-107068443D01*
X122198686Y-107204639D01*
X122145673Y-107379402D01*
X122059584Y-107540463D01*
X121943730Y-107681630D01*
X121802563Y-107797484D01*
X121641502Y-107883573D01*
X121466740Y-107936586D01*
X121285000Y-107954486D01*
X121103261Y-107936586D01*
X120928499Y-107883573D01*
X120767438Y-107797484D01*
X120626271Y-107681630D01*
X120510417Y-107540463D01*
X120424329Y-107379403D01*
X120404719Y-107314760D01*
X120371315Y-107204643D01*
X120371315Y-107204640D01*
X120371314Y-107204638D01*
X120357900Y-107068444D01*
X120357900Y-106291557D01*
X120371314Y-106155361D01*
X120424327Y-105980599D01*
X120510416Y-105819537D01*
X120626270Y-105678370D01*
X120767437Y-105562516D01*
X120928498Y-105476427D01*
X121103260Y-105423414D01*
X121285000Y-105405514D01*
X121466739Y-105423414D01*
X121466739Y-105423414D01*
G37*
G36*
X124006739Y-105423414D02*
X124181501Y-105476427D01*
X124342563Y-105562516D01*
X124483730Y-105678370D01*
X124599584Y-105819537D01*
X124685673Y-105980598D01*
X124738686Y-106155360D01*
X124752100Y-106291556D01*
X124752100Y-107068443D01*
X124738686Y-107204639D01*
X124685673Y-107379402D01*
X124599584Y-107540463D01*
X124483730Y-107681630D01*
X124342563Y-107797484D01*
X124181502Y-107883573D01*
X124006740Y-107936586D01*
X123825000Y-107954486D01*
X123643261Y-107936586D01*
X123468499Y-107883573D01*
X123307438Y-107797484D01*
X123166271Y-107681630D01*
X123050417Y-107540463D01*
X122964329Y-107379403D01*
X122944719Y-107314760D01*
X122911315Y-107204643D01*
X122911315Y-107204640D01*
X122911314Y-107204638D01*
X122897900Y-107068444D01*
X122897900Y-106291557D01*
X122911314Y-106155361D01*
X122964327Y-105980599D01*
X123050416Y-105819537D01*
X123166270Y-105678370D01*
X123307437Y-105562516D01*
X123468498Y-105476427D01*
X123643260Y-105423414D01*
X123825000Y-105405514D01*
X124006739Y-105423414D01*
X124006739Y-105423414D01*
G37*
G36*
X126546739Y-105423414D02*
X126721501Y-105476427D01*
X126882563Y-105562516D01*
X127023730Y-105678370D01*
X127139584Y-105819537D01*
X127225673Y-105980598D01*
X127278686Y-106155360D01*
X127292100Y-106291556D01*
X127292100Y-107068443D01*
X127278686Y-107204639D01*
X127225673Y-107379402D01*
X127139584Y-107540463D01*
X127023730Y-107681630D01*
X126882563Y-107797484D01*
X126721502Y-107883573D01*
X126546740Y-107936586D01*
X126365000Y-107954486D01*
X126183261Y-107936586D01*
X126008499Y-107883573D01*
X125847438Y-107797484D01*
X125706271Y-107681630D01*
X125590417Y-107540463D01*
X125504329Y-107379403D01*
X125484719Y-107314760D01*
X125451315Y-107204643D01*
X125451315Y-107204640D01*
X125451314Y-107204638D01*
X125437900Y-107068444D01*
X125437900Y-106291557D01*
X125451314Y-106155361D01*
X125504327Y-105980599D01*
X125590416Y-105819537D01*
X125706270Y-105678370D01*
X125847437Y-105562516D01*
X126008498Y-105476427D01*
X126183260Y-105423414D01*
X126365000Y-105405514D01*
X126546739Y-105423414D01*
X126546739Y-105423414D01*
G37*
G36*
X106226739Y-105423414D02*
X106401501Y-105476427D01*
X106562563Y-105562516D01*
X106703730Y-105678370D01*
X106819584Y-105819537D01*
X106905673Y-105980598D01*
X106958686Y-106155360D01*
X106972100Y-106291556D01*
X106972100Y-107068443D01*
X106958686Y-107204639D01*
X106905673Y-107379402D01*
X106819584Y-107540463D01*
X106703730Y-107681630D01*
X106562563Y-107797484D01*
X106401502Y-107883573D01*
X106226740Y-107936586D01*
X106045000Y-107954486D01*
X105863261Y-107936586D01*
X105688499Y-107883573D01*
X105527438Y-107797484D01*
X105386271Y-107681630D01*
X105270417Y-107540463D01*
X105184329Y-107379403D01*
X105164719Y-107314760D01*
X105131315Y-107204643D01*
X105131315Y-107204640D01*
X105131314Y-107204638D01*
X105117900Y-107068444D01*
X105117900Y-106291557D01*
X105131314Y-106155361D01*
X105184327Y-105980599D01*
X105270416Y-105819537D01*
X105386270Y-105678370D01*
X105527437Y-105562516D01*
X105688498Y-105476427D01*
X105863260Y-105423414D01*
X106045000Y-105405514D01*
X106226739Y-105423414D01*
X106226739Y-105423414D01*
G37*
G36*
X89824620Y-99844776D02*
X90053625Y-99890328D01*
X90377197Y-100024355D01*
X90668410Y-100218938D01*
X90916062Y-100466590D01*
X91110645Y-100757803D01*
X91244672Y-101081375D01*
X91313000Y-101424883D01*
X91313000Y-101775117D01*
X91244672Y-102118625D01*
X91110645Y-102442197D01*
X90916062Y-102733410D01*
X90668410Y-102981062D01*
X90377197Y-103175645D01*
X90053625Y-103309672D01*
X89824620Y-103355224D01*
X89710118Y-103378000D01*
X89359882Y-103378000D01*
X89245380Y-103355224D01*
X89016375Y-103309672D01*
X88692803Y-103175645D01*
X88401590Y-102981062D01*
X88153938Y-102733410D01*
X87959355Y-102442197D01*
X87825328Y-102118625D01*
X87757000Y-101775117D01*
X87757000Y-101424883D01*
X87825328Y-101081375D01*
X87959355Y-100757803D01*
X88153938Y-100466590D01*
X88401590Y-100218938D01*
X88692803Y-100024355D01*
X89016375Y-99890328D01*
X89245380Y-99844776D01*
X89359882Y-99822000D01*
X89710118Y-99822000D01*
X89824620Y-99844776D01*
X89824620Y-99844776D01*
G37*
G36*
X109220000Y-103124000D02*
X106680000Y-103124000D01*
X106680000Y-101854000D01*
X109220000Y-101854000D01*
X109220000Y-103124000D01*
X109220000Y-103124000D01*
G37*
G36*
X113665000Y-103124000D02*
X111125000Y-103124000D01*
X111125000Y-101854000D01*
X113665000Y-101854000D01*
X113665000Y-103124000D01*
X113665000Y-103124000D01*
G37*
G36*
X113665000Y-100076000D02*
X111125000Y-100076000D01*
X111125000Y-98806000D01*
X113665000Y-98806000D01*
X113665000Y-100076000D01*
X113665000Y-100076000D01*
G37*
G36*
X109220000Y-100076000D02*
X106680000Y-100076000D01*
X106680000Y-98806000D01*
X109220000Y-98806000D01*
X109220000Y-100076000D01*
X109220000Y-100076000D01*
G37*
G36*
X134134373Y-95769025D02*
X134134376Y-95769026D01*
X134134377Y-95769026D01*
X134278014Y-95812598D01*
X134393299Y-95874219D01*
X134410393Y-95883356D01*
X134526422Y-95978578D01*
X134621644Y-96094606D01*
X134621645Y-96094608D01*
X134692402Y-96226985D01*
X134692402Y-96226986D01*
X134735975Y-96370626D01*
X134747000Y-96482568D01*
X134747000Y-97065432D01*
X134735975Y-97177374D01*
X134735974Y-97177377D01*
X134735974Y-97177378D01*
X134692402Y-97321015D01*
X134630781Y-97436300D01*
X134621644Y-97453394D01*
X134526422Y-97569422D01*
X134410394Y-97664644D01*
X134410392Y-97664645D01*
X134278015Y-97735402D01*
X134134378Y-97778974D01*
X134134377Y-97778974D01*
X134134374Y-97778975D01*
X133985000Y-97793687D01*
X133835627Y-97778975D01*
X133835624Y-97778974D01*
X133835623Y-97778974D01*
X133691986Y-97735402D01*
X133559609Y-97664645D01*
X133559607Y-97664644D01*
X133443579Y-97569422D01*
X133348354Y-97453391D01*
X133277600Y-97321021D01*
X133234025Y-97177374D01*
X133223000Y-97065432D01*
X133223000Y-96482569D01*
X133234025Y-96370627D01*
X133234026Y-96370623D01*
X133277598Y-96226986D01*
X133348355Y-96094609D01*
X133348356Y-96094607D01*
X133443578Y-95978578D01*
X133559606Y-95883356D01*
X133576700Y-95874219D01*
X133691985Y-95812598D01*
X133835622Y-95769026D01*
X133835623Y-95769026D01*
X133835626Y-95769025D01*
X133985000Y-95754313D01*
X134134373Y-95769025D01*
X134134373Y-95769025D01*
G37*
G36*
X101114373Y-95769025D02*
X101114376Y-95769026D01*
X101114377Y-95769026D01*
X101258014Y-95812598D01*
X101373299Y-95874219D01*
X101390393Y-95883356D01*
X101506422Y-95978578D01*
X101601644Y-96094606D01*
X101601645Y-96094608D01*
X101672402Y-96226985D01*
X101672402Y-96226986D01*
X101715975Y-96370626D01*
X101727000Y-96482568D01*
X101727000Y-97065432D01*
X101715975Y-97177374D01*
X101715974Y-97177377D01*
X101715974Y-97177378D01*
X101672402Y-97321015D01*
X101610781Y-97436300D01*
X101601644Y-97453394D01*
X101506422Y-97569422D01*
X101390394Y-97664644D01*
X101390392Y-97664645D01*
X101258015Y-97735402D01*
X101114378Y-97778974D01*
X101114377Y-97778974D01*
X101114374Y-97778975D01*
X100965000Y-97793687D01*
X100815627Y-97778975D01*
X100815624Y-97778974D01*
X100815623Y-97778974D01*
X100671986Y-97735402D01*
X100539609Y-97664645D01*
X100539607Y-97664644D01*
X100423579Y-97569422D01*
X100328354Y-97453391D01*
X100257600Y-97321021D01*
X100214025Y-97177374D01*
X100203000Y-97065432D01*
X100203000Y-96482569D01*
X100214025Y-96370627D01*
X100214026Y-96370623D01*
X100257598Y-96226986D01*
X100328355Y-96094609D01*
X100328356Y-96094607D01*
X100423578Y-95978578D01*
X100539606Y-95883356D01*
X100556700Y-95874219D01*
X100671985Y-95812598D01*
X100815622Y-95769026D01*
X100815623Y-95769026D01*
X100815626Y-95769025D01*
X100965000Y-95754313D01*
X101114373Y-95769025D01*
X101114373Y-95769025D01*
G37*
G36*
X103654373Y-95769025D02*
X103654376Y-95769026D01*
X103654377Y-95769026D01*
X103798014Y-95812598D01*
X103913299Y-95874219D01*
X103930393Y-95883356D01*
X104046422Y-95978578D01*
X104141644Y-96094606D01*
X104141645Y-96094608D01*
X104212402Y-96226985D01*
X104212402Y-96226986D01*
X104255975Y-96370626D01*
X104267000Y-96482568D01*
X104267000Y-97065432D01*
X104255975Y-97177374D01*
X104255974Y-97177377D01*
X104255974Y-97177378D01*
X104212402Y-97321015D01*
X104150781Y-97436300D01*
X104141644Y-97453394D01*
X104046422Y-97569422D01*
X103930394Y-97664644D01*
X103930392Y-97664645D01*
X103798015Y-97735402D01*
X103654378Y-97778974D01*
X103654377Y-97778974D01*
X103654374Y-97778975D01*
X103505000Y-97793687D01*
X103355627Y-97778975D01*
X103355624Y-97778974D01*
X103355623Y-97778974D01*
X103211986Y-97735402D01*
X103079609Y-97664645D01*
X103079607Y-97664644D01*
X102963579Y-97569422D01*
X102868354Y-97453391D01*
X102797600Y-97321021D01*
X102754025Y-97177374D01*
X102743000Y-97065432D01*
X102743000Y-96482569D01*
X102754025Y-96370627D01*
X102754026Y-96370623D01*
X102797598Y-96226986D01*
X102868355Y-96094609D01*
X102868356Y-96094607D01*
X102963578Y-95978578D01*
X103079606Y-95883356D01*
X103096700Y-95874219D01*
X103211985Y-95812598D01*
X103355622Y-95769026D01*
X103355623Y-95769026D01*
X103355626Y-95769025D01*
X103505000Y-95754313D01*
X103654373Y-95769025D01*
X103654373Y-95769025D01*
G37*
G36*
X106194373Y-95769025D02*
X106194376Y-95769026D01*
X106194377Y-95769026D01*
X106338014Y-95812598D01*
X106453299Y-95874219D01*
X106470393Y-95883356D01*
X106586422Y-95978578D01*
X106681644Y-96094606D01*
X106681645Y-96094608D01*
X106752402Y-96226985D01*
X106752402Y-96226986D01*
X106795975Y-96370626D01*
X106807000Y-96482568D01*
X106807000Y-97065432D01*
X106795975Y-97177374D01*
X106795974Y-97177377D01*
X106795974Y-97177378D01*
X106752402Y-97321015D01*
X106690781Y-97436300D01*
X106681644Y-97453394D01*
X106586422Y-97569422D01*
X106470394Y-97664644D01*
X106470392Y-97664645D01*
X106338015Y-97735402D01*
X106194378Y-97778974D01*
X106194377Y-97778974D01*
X106194374Y-97778975D01*
X106045000Y-97793687D01*
X105895627Y-97778975D01*
X105895624Y-97778974D01*
X105895623Y-97778974D01*
X105751986Y-97735402D01*
X105619609Y-97664645D01*
X105619607Y-97664644D01*
X105503579Y-97569422D01*
X105408354Y-97453391D01*
X105337600Y-97321021D01*
X105294025Y-97177374D01*
X105283000Y-97065432D01*
X105283000Y-96482569D01*
X105294025Y-96370627D01*
X105294026Y-96370623D01*
X105337598Y-96226986D01*
X105408355Y-96094609D01*
X105408356Y-96094607D01*
X105503578Y-95978578D01*
X105619606Y-95883356D01*
X105636700Y-95874219D01*
X105751985Y-95812598D01*
X105895622Y-95769026D01*
X105895623Y-95769026D01*
X105895626Y-95769025D01*
X106045000Y-95754313D01*
X106194373Y-95769025D01*
X106194373Y-95769025D01*
G37*
G36*
X108734373Y-95769025D02*
X108734376Y-95769026D01*
X108734377Y-95769026D01*
X108878014Y-95812598D01*
X108993299Y-95874219D01*
X109010393Y-95883356D01*
X109126422Y-95978578D01*
X109221644Y-96094606D01*
X109221645Y-96094608D01*
X109292402Y-96226985D01*
X109292402Y-96226986D01*
X109335975Y-96370626D01*
X109347000Y-96482568D01*
X109347000Y-97065432D01*
X109335975Y-97177374D01*
X109335974Y-97177377D01*
X109335974Y-97177378D01*
X109292402Y-97321015D01*
X109230781Y-97436300D01*
X109221644Y-97453394D01*
X109126422Y-97569422D01*
X109010394Y-97664644D01*
X109010392Y-97664645D01*
X108878015Y-97735402D01*
X108734378Y-97778974D01*
X108734377Y-97778974D01*
X108734374Y-97778975D01*
X108585000Y-97793687D01*
X108435627Y-97778975D01*
X108435624Y-97778974D01*
X108435623Y-97778974D01*
X108291986Y-97735402D01*
X108159609Y-97664645D01*
X108159607Y-97664644D01*
X108043579Y-97569422D01*
X107948354Y-97453391D01*
X107877600Y-97321021D01*
X107834025Y-97177374D01*
X107823000Y-97065432D01*
X107823000Y-96482569D01*
X107834025Y-96370627D01*
X107834026Y-96370623D01*
X107877598Y-96226986D01*
X107948355Y-96094609D01*
X107948356Y-96094607D01*
X108043578Y-95978578D01*
X108159606Y-95883356D01*
X108176700Y-95874219D01*
X108291985Y-95812598D01*
X108435622Y-95769026D01*
X108435623Y-95769026D01*
X108435626Y-95769025D01*
X108585000Y-95754313D01*
X108734373Y-95769025D01*
X108734373Y-95769025D01*
G37*
G36*
X111274373Y-95769025D02*
X111274376Y-95769026D01*
X111274377Y-95769026D01*
X111418014Y-95812598D01*
X111533299Y-95874219D01*
X111550393Y-95883356D01*
X111666422Y-95978578D01*
X111761644Y-96094606D01*
X111761645Y-96094608D01*
X111832402Y-96226985D01*
X111832402Y-96226986D01*
X111875975Y-96370626D01*
X111887000Y-96482568D01*
X111887000Y-97065432D01*
X111875975Y-97177374D01*
X111875974Y-97177377D01*
X111875974Y-97177378D01*
X111832402Y-97321015D01*
X111770781Y-97436300D01*
X111761644Y-97453394D01*
X111666422Y-97569422D01*
X111550394Y-97664644D01*
X111550392Y-97664645D01*
X111418015Y-97735402D01*
X111274378Y-97778974D01*
X111274377Y-97778974D01*
X111274374Y-97778975D01*
X111125000Y-97793687D01*
X110975627Y-97778975D01*
X110975624Y-97778974D01*
X110975623Y-97778974D01*
X110831986Y-97735402D01*
X110699609Y-97664645D01*
X110699607Y-97664644D01*
X110583579Y-97569422D01*
X110488354Y-97453391D01*
X110417600Y-97321021D01*
X110374025Y-97177374D01*
X110363000Y-97065432D01*
X110363000Y-96482569D01*
X110374025Y-96370627D01*
X110374026Y-96370623D01*
X110417598Y-96226986D01*
X110488355Y-96094609D01*
X110488356Y-96094607D01*
X110583578Y-95978578D01*
X110699606Y-95883356D01*
X110716700Y-95874219D01*
X110831985Y-95812598D01*
X110975622Y-95769026D01*
X110975623Y-95769026D01*
X110975626Y-95769025D01*
X111125000Y-95754313D01*
X111274373Y-95769025D01*
X111274373Y-95769025D01*
G37*
G36*
X113814373Y-95769025D02*
X113814376Y-95769026D01*
X113814377Y-95769026D01*
X113958014Y-95812598D01*
X114073299Y-95874219D01*
X114090393Y-95883356D01*
X114206422Y-95978578D01*
X114301644Y-96094606D01*
X114301645Y-96094608D01*
X114372402Y-96226985D01*
X114372402Y-96226986D01*
X114415975Y-96370626D01*
X114427000Y-96482568D01*
X114427000Y-97065432D01*
X114415975Y-97177374D01*
X114415974Y-97177377D01*
X114415974Y-97177378D01*
X114372402Y-97321015D01*
X114310781Y-97436300D01*
X114301644Y-97453394D01*
X114206422Y-97569422D01*
X114090394Y-97664644D01*
X114090392Y-97664645D01*
X113958015Y-97735402D01*
X113814378Y-97778974D01*
X113814377Y-97778974D01*
X113814374Y-97778975D01*
X113665000Y-97793687D01*
X113515627Y-97778975D01*
X113515624Y-97778974D01*
X113515623Y-97778974D01*
X113371986Y-97735402D01*
X113239609Y-97664645D01*
X113239607Y-97664644D01*
X113123579Y-97569422D01*
X113028354Y-97453391D01*
X112957600Y-97321021D01*
X112914025Y-97177374D01*
X112903000Y-97065432D01*
X112903000Y-96482569D01*
X112914025Y-96370627D01*
X112914026Y-96370623D01*
X112957598Y-96226986D01*
X113028355Y-96094609D01*
X113028356Y-96094607D01*
X113123578Y-95978578D01*
X113239606Y-95883356D01*
X113256700Y-95874219D01*
X113371985Y-95812598D01*
X113515622Y-95769026D01*
X113515623Y-95769026D01*
X113515626Y-95769025D01*
X113665000Y-95754313D01*
X113814373Y-95769025D01*
X113814373Y-95769025D01*
G37*
G36*
X116354373Y-95769025D02*
X116354376Y-95769026D01*
X116354377Y-95769026D01*
X116498014Y-95812598D01*
X116613299Y-95874219D01*
X116630393Y-95883356D01*
X116746422Y-95978578D01*
X116841644Y-96094606D01*
X116841645Y-96094608D01*
X116912402Y-96226985D01*
X116912402Y-96226986D01*
X116955975Y-96370626D01*
X116967000Y-96482568D01*
X116967000Y-97065432D01*
X116955975Y-97177374D01*
X116955974Y-97177377D01*
X116955974Y-97177378D01*
X116912402Y-97321015D01*
X116850781Y-97436300D01*
X116841644Y-97453394D01*
X116746422Y-97569422D01*
X116630394Y-97664644D01*
X116630392Y-97664645D01*
X116498015Y-97735402D01*
X116354378Y-97778974D01*
X116354377Y-97778974D01*
X116354374Y-97778975D01*
X116205000Y-97793687D01*
X116055627Y-97778975D01*
X116055624Y-97778974D01*
X116055623Y-97778974D01*
X115911986Y-97735402D01*
X115779609Y-97664645D01*
X115779607Y-97664644D01*
X115663579Y-97569422D01*
X115568354Y-97453391D01*
X115497600Y-97321021D01*
X115454025Y-97177374D01*
X115443000Y-97065432D01*
X115443000Y-96482569D01*
X115454025Y-96370627D01*
X115454026Y-96370623D01*
X115497598Y-96226986D01*
X115568355Y-96094609D01*
X115568356Y-96094607D01*
X115663578Y-95978578D01*
X115779606Y-95883356D01*
X115796700Y-95874219D01*
X115911985Y-95812598D01*
X116055622Y-95769026D01*
X116055623Y-95769026D01*
X116055626Y-95769025D01*
X116205000Y-95754313D01*
X116354373Y-95769025D01*
X116354373Y-95769025D01*
G37*
G36*
X126514373Y-95769025D02*
X126514376Y-95769026D01*
X126514377Y-95769026D01*
X126658014Y-95812598D01*
X126773299Y-95874219D01*
X126790393Y-95883356D01*
X126906422Y-95978578D01*
X127001644Y-96094606D01*
X127001645Y-96094608D01*
X127072402Y-96226985D01*
X127072402Y-96226986D01*
X127115975Y-96370626D01*
X127127000Y-96482568D01*
X127127000Y-97065432D01*
X127115975Y-97177374D01*
X127115974Y-97177377D01*
X127115974Y-97177378D01*
X127072402Y-97321015D01*
X127010781Y-97436300D01*
X127001644Y-97453394D01*
X126906422Y-97569422D01*
X126790394Y-97664644D01*
X126790392Y-97664645D01*
X126658015Y-97735402D01*
X126514378Y-97778974D01*
X126514377Y-97778974D01*
X126514374Y-97778975D01*
X126365000Y-97793687D01*
X126215627Y-97778975D01*
X126215624Y-97778974D01*
X126215623Y-97778974D01*
X126071986Y-97735402D01*
X125939609Y-97664645D01*
X125939607Y-97664644D01*
X125823579Y-97569422D01*
X125728354Y-97453391D01*
X125657600Y-97321021D01*
X125614025Y-97177374D01*
X125603000Y-97065432D01*
X125603000Y-96482569D01*
X125614025Y-96370627D01*
X125614026Y-96370623D01*
X125657598Y-96226986D01*
X125728355Y-96094609D01*
X125728356Y-96094607D01*
X125823578Y-95978578D01*
X125939606Y-95883356D01*
X125956700Y-95874219D01*
X126071985Y-95812598D01*
X126215622Y-95769026D01*
X126215623Y-95769026D01*
X126215626Y-95769025D01*
X126365000Y-95754313D01*
X126514373Y-95769025D01*
X126514373Y-95769025D01*
G37*
G36*
X123974373Y-95769025D02*
X123974376Y-95769026D01*
X123974377Y-95769026D01*
X124118014Y-95812598D01*
X124233299Y-95874219D01*
X124250393Y-95883356D01*
X124366422Y-95978578D01*
X124461644Y-96094606D01*
X124461645Y-96094608D01*
X124532402Y-96226985D01*
X124532402Y-96226986D01*
X124575975Y-96370626D01*
X124587000Y-96482568D01*
X124587000Y-97065432D01*
X124575975Y-97177374D01*
X124575974Y-97177377D01*
X124575974Y-97177378D01*
X124532402Y-97321015D01*
X124470781Y-97436300D01*
X124461644Y-97453394D01*
X124366422Y-97569422D01*
X124250394Y-97664644D01*
X124250392Y-97664645D01*
X124118015Y-97735402D01*
X123974378Y-97778974D01*
X123974377Y-97778974D01*
X123974374Y-97778975D01*
X123825000Y-97793687D01*
X123675627Y-97778975D01*
X123675624Y-97778974D01*
X123675623Y-97778974D01*
X123531986Y-97735402D01*
X123399609Y-97664645D01*
X123399607Y-97664644D01*
X123283579Y-97569422D01*
X123188354Y-97453391D01*
X123117600Y-97321021D01*
X123074025Y-97177374D01*
X123063000Y-97065432D01*
X123063000Y-96482569D01*
X123074025Y-96370627D01*
X123074026Y-96370623D01*
X123117598Y-96226986D01*
X123188355Y-96094609D01*
X123188356Y-96094607D01*
X123283578Y-95978578D01*
X123399606Y-95883356D01*
X123416700Y-95874219D01*
X123531985Y-95812598D01*
X123675622Y-95769026D01*
X123675623Y-95769026D01*
X123675626Y-95769025D01*
X123825000Y-95754313D01*
X123974373Y-95769025D01*
X123974373Y-95769025D01*
G37*
G36*
X129054373Y-95769025D02*
X129054376Y-95769026D01*
X129054377Y-95769026D01*
X129198014Y-95812598D01*
X129313299Y-95874219D01*
X129330393Y-95883356D01*
X129446422Y-95978578D01*
X129541644Y-96094606D01*
X129541645Y-96094608D01*
X129612402Y-96226985D01*
X129612402Y-96226986D01*
X129655975Y-96370626D01*
X129667000Y-96482568D01*
X129667000Y-97065432D01*
X129655975Y-97177374D01*
X129655974Y-97177377D01*
X129655974Y-97177378D01*
X129612402Y-97321015D01*
X129550781Y-97436300D01*
X129541644Y-97453394D01*
X129446422Y-97569422D01*
X129330394Y-97664644D01*
X129330392Y-97664645D01*
X129198015Y-97735402D01*
X129054378Y-97778974D01*
X129054377Y-97778974D01*
X129054374Y-97778975D01*
X128905000Y-97793687D01*
X128755627Y-97778975D01*
X128755624Y-97778974D01*
X128755623Y-97778974D01*
X128611986Y-97735402D01*
X128479609Y-97664645D01*
X128479607Y-97664644D01*
X128363579Y-97569422D01*
X128268354Y-97453391D01*
X128197600Y-97321021D01*
X128154025Y-97177374D01*
X128143000Y-97065432D01*
X128143000Y-96482569D01*
X128154025Y-96370627D01*
X128154026Y-96370623D01*
X128197598Y-96226986D01*
X128268355Y-96094609D01*
X128268356Y-96094607D01*
X128363578Y-95978578D01*
X128479606Y-95883356D01*
X128496700Y-95874219D01*
X128611985Y-95812598D01*
X128755622Y-95769026D01*
X128755623Y-95769026D01*
X128755626Y-95769025D01*
X128905000Y-95754313D01*
X129054373Y-95769025D01*
X129054373Y-95769025D01*
G37*
G36*
X131594373Y-95769025D02*
X131594376Y-95769026D01*
X131594377Y-95769026D01*
X131738014Y-95812598D01*
X131853299Y-95874219D01*
X131870393Y-95883356D01*
X131986422Y-95978578D01*
X132081644Y-96094606D01*
X132081645Y-96094608D01*
X132152402Y-96226985D01*
X132152402Y-96226986D01*
X132195975Y-96370626D01*
X132207000Y-96482568D01*
X132207000Y-97065432D01*
X132195975Y-97177374D01*
X132195974Y-97177377D01*
X132195974Y-97177378D01*
X132152402Y-97321015D01*
X132090781Y-97436300D01*
X132081644Y-97453394D01*
X131986422Y-97569422D01*
X131870394Y-97664644D01*
X131870392Y-97664645D01*
X131738015Y-97735402D01*
X131594378Y-97778974D01*
X131594377Y-97778974D01*
X131594374Y-97778975D01*
X131445000Y-97793687D01*
X131295627Y-97778975D01*
X131295624Y-97778974D01*
X131295623Y-97778974D01*
X131151986Y-97735402D01*
X131019609Y-97664645D01*
X131019607Y-97664644D01*
X130903579Y-97569422D01*
X130808354Y-97453391D01*
X130737600Y-97321021D01*
X130694025Y-97177374D01*
X130683000Y-97065432D01*
X130683000Y-96482569D01*
X130694025Y-96370627D01*
X130694026Y-96370623D01*
X130737598Y-96226986D01*
X130808355Y-96094609D01*
X130808356Y-96094607D01*
X130903578Y-95978578D01*
X131019606Y-95883356D01*
X131036700Y-95874219D01*
X131151985Y-95812598D01*
X131295622Y-95769026D01*
X131295623Y-95769026D01*
X131295626Y-95769025D01*
X131445000Y-95754313D01*
X131594373Y-95769025D01*
X131594373Y-95769025D01*
G37*
G36*
X121434373Y-95769025D02*
X121434376Y-95769026D01*
X121434377Y-95769026D01*
X121578014Y-95812598D01*
X121693299Y-95874219D01*
X121710393Y-95883356D01*
X121826422Y-95978578D01*
X121921644Y-96094606D01*
X121921645Y-96094608D01*
X121992402Y-96226985D01*
X121992402Y-96226986D01*
X122035975Y-96370626D01*
X122047000Y-96482568D01*
X122047000Y-97065432D01*
X122035975Y-97177374D01*
X122035974Y-97177377D01*
X122035974Y-97177378D01*
X121992402Y-97321015D01*
X121930781Y-97436300D01*
X121921644Y-97453394D01*
X121826422Y-97569422D01*
X121710394Y-97664644D01*
X121710392Y-97664645D01*
X121578015Y-97735402D01*
X121434378Y-97778974D01*
X121434377Y-97778974D01*
X121434374Y-97778975D01*
X121285000Y-97793687D01*
X121135627Y-97778975D01*
X121135624Y-97778974D01*
X121135623Y-97778974D01*
X120991986Y-97735402D01*
X120859609Y-97664645D01*
X120859607Y-97664644D01*
X120743579Y-97569422D01*
X120648354Y-97453391D01*
X120577600Y-97321021D01*
X120534025Y-97177374D01*
X120523000Y-97065432D01*
X120523000Y-96482569D01*
X120534025Y-96370627D01*
X120534026Y-96370623D01*
X120577598Y-96226986D01*
X120648355Y-96094609D01*
X120648356Y-96094607D01*
X120743578Y-95978578D01*
X120859606Y-95883356D01*
X120876700Y-95874219D01*
X120991985Y-95812598D01*
X121135622Y-95769026D01*
X121135623Y-95769026D01*
X121135626Y-95769025D01*
X121285000Y-95754313D01*
X121434373Y-95769025D01*
X121434373Y-95769025D01*
G37*
G36*
X136674373Y-95769025D02*
X136674376Y-95769026D01*
X136674377Y-95769026D01*
X136818014Y-95812598D01*
X136933299Y-95874219D01*
X136950393Y-95883356D01*
X137066422Y-95978578D01*
X137161644Y-96094606D01*
X137161645Y-96094608D01*
X137232402Y-96226985D01*
X137232402Y-96226986D01*
X137275975Y-96370626D01*
X137287000Y-96482568D01*
X137287000Y-97065432D01*
X137275975Y-97177374D01*
X137275974Y-97177377D01*
X137275974Y-97177378D01*
X137232402Y-97321015D01*
X137170781Y-97436300D01*
X137161644Y-97453394D01*
X137066422Y-97569422D01*
X136950394Y-97664644D01*
X136950392Y-97664645D01*
X136818015Y-97735402D01*
X136674378Y-97778974D01*
X136674377Y-97778974D01*
X136674374Y-97778975D01*
X136525000Y-97793687D01*
X136375627Y-97778975D01*
X136375624Y-97778974D01*
X136375623Y-97778974D01*
X136231986Y-97735402D01*
X136099609Y-97664645D01*
X136099607Y-97664644D01*
X135983579Y-97569422D01*
X135888354Y-97453391D01*
X135817600Y-97321021D01*
X135774025Y-97177374D01*
X135763000Y-97065432D01*
X135763000Y-96482569D01*
X135774025Y-96370627D01*
X135774026Y-96370623D01*
X135817598Y-96226986D01*
X135888355Y-96094609D01*
X135888356Y-96094607D01*
X135983578Y-95978578D01*
X136099606Y-95883356D01*
X136116700Y-95874219D01*
X136231985Y-95812598D01*
X136375622Y-95769026D01*
X136375623Y-95769026D01*
X136375626Y-95769025D01*
X136525000Y-95754313D01*
X136674373Y-95769025D01*
X136674373Y-95769025D01*
G37*
G36*
X98574373Y-95769025D02*
X98574376Y-95769026D01*
X98574377Y-95769026D01*
X98718014Y-95812598D01*
X98833299Y-95874219D01*
X98850393Y-95883356D01*
X98966422Y-95978578D01*
X99061644Y-96094606D01*
X99061645Y-96094608D01*
X99132402Y-96226985D01*
X99132402Y-96226986D01*
X99175975Y-96370626D01*
X99187000Y-96482568D01*
X99187000Y-97065432D01*
X99175975Y-97177374D01*
X99175974Y-97177377D01*
X99175974Y-97177378D01*
X99132402Y-97321015D01*
X99070781Y-97436300D01*
X99061644Y-97453394D01*
X98966422Y-97569422D01*
X98850394Y-97664644D01*
X98850392Y-97664645D01*
X98718015Y-97735402D01*
X98574378Y-97778974D01*
X98574377Y-97778974D01*
X98574374Y-97778975D01*
X98425000Y-97793687D01*
X98275627Y-97778975D01*
X98275624Y-97778974D01*
X98275623Y-97778974D01*
X98131986Y-97735402D01*
X97999609Y-97664645D01*
X97999607Y-97664644D01*
X97883579Y-97569422D01*
X97788354Y-97453391D01*
X97717600Y-97321021D01*
X97674025Y-97177374D01*
X97663000Y-97065432D01*
X97663000Y-96482569D01*
X97674025Y-96370627D01*
X97674026Y-96370623D01*
X97717598Y-96226986D01*
X97788355Y-96094609D01*
X97788356Y-96094607D01*
X97883578Y-95978578D01*
X97999606Y-95883356D01*
X98016700Y-95874219D01*
X98131985Y-95812598D01*
X98275622Y-95769026D01*
X98275623Y-95769026D01*
X98275626Y-95769025D01*
X98425000Y-95754313D01*
X98574373Y-95769025D01*
X98574373Y-95769025D01*
G37*
G36*
X118894373Y-95769025D02*
X118894376Y-95769026D01*
X118894377Y-95769026D01*
X119038014Y-95812598D01*
X119153299Y-95874219D01*
X119170393Y-95883356D01*
X119286422Y-95978578D01*
X119381644Y-96094606D01*
X119381645Y-96094608D01*
X119452402Y-96226985D01*
X119452402Y-96226986D01*
X119495975Y-96370626D01*
X119507000Y-96482568D01*
X119507000Y-97065432D01*
X119495975Y-97177374D01*
X119495974Y-97177377D01*
X119495974Y-97177378D01*
X119452402Y-97321015D01*
X119390781Y-97436300D01*
X119381644Y-97453394D01*
X119286422Y-97569422D01*
X119170394Y-97664644D01*
X119170392Y-97664645D01*
X119038015Y-97735402D01*
X118894378Y-97778974D01*
X118894377Y-97778974D01*
X118894374Y-97778975D01*
X118745000Y-97793687D01*
X118595627Y-97778975D01*
X118595624Y-97778974D01*
X118595623Y-97778974D01*
X118451986Y-97735402D01*
X118319609Y-97664645D01*
X118319607Y-97664644D01*
X118203579Y-97569422D01*
X118108354Y-97453391D01*
X118037600Y-97321021D01*
X117994025Y-97177374D01*
X117983000Y-97065432D01*
X117983000Y-96482569D01*
X117994025Y-96370627D01*
X117994026Y-96370623D01*
X118037598Y-96226986D01*
X118108355Y-96094609D01*
X118108356Y-96094607D01*
X118203578Y-95978578D01*
X118319606Y-95883356D01*
X118336700Y-95874219D01*
X118451985Y-95812598D01*
X118595622Y-95769026D01*
X118595623Y-95769026D01*
X118595626Y-95769025D01*
X118745000Y-95754313D01*
X118894373Y-95769025D01*
X118894373Y-95769025D01*
G37*
G36*
X93440000Y-96945000D02*
X89440000Y-96945000D01*
X89440000Y-91785000D01*
X93440000Y-91785000D01*
X93440000Y-96945000D01*
X93440000Y-96945000D01*
G37*
G36*
X142643374Y-94499025D02*
X142643377Y-94499026D01*
X142643378Y-94499026D01*
X142787015Y-94542598D01*
X142902300Y-94604219D01*
X142919394Y-94613356D01*
X143035422Y-94708578D01*
X143130644Y-94824606D01*
X143130645Y-94824608D01*
X143201402Y-94956985D01*
X143228527Y-95046404D01*
X143244975Y-95100626D01*
X143259687Y-95250000D01*
X143244975Y-95399374D01*
X143244974Y-95399377D01*
X143244974Y-95399378D01*
X143201402Y-95543015D01*
X143201401Y-95543016D01*
X143130644Y-95675394D01*
X143035422Y-95791422D01*
X142919394Y-95886644D01*
X142919392Y-95886645D01*
X142787015Y-95957402D01*
X142643378Y-96000974D01*
X142643377Y-96000974D01*
X142643374Y-96000975D01*
X142531432Y-96012000D01*
X141948568Y-96012000D01*
X141836626Y-96000975D01*
X141836623Y-96000974D01*
X141836622Y-96000974D01*
X141692985Y-95957402D01*
X141560608Y-95886645D01*
X141560606Y-95886644D01*
X141444578Y-95791422D01*
X141349356Y-95675394D01*
X141278599Y-95543016D01*
X141278598Y-95543015D01*
X141235026Y-95399378D01*
X141235026Y-95399377D01*
X141235025Y-95399374D01*
X141220313Y-95250000D01*
X141235025Y-95100626D01*
X141251473Y-95046404D01*
X141278598Y-94956985D01*
X141349355Y-94824608D01*
X141349356Y-94824606D01*
X141444578Y-94708578D01*
X141560606Y-94613356D01*
X141577700Y-94604219D01*
X141692985Y-94542598D01*
X141836622Y-94499026D01*
X141836623Y-94499026D01*
X141836626Y-94499025D01*
X141948568Y-94488000D01*
X142531432Y-94488000D01*
X142643374Y-94499025D01*
X142643374Y-94499025D01*
G37*
G36*
X147723374Y-94499025D02*
X147723377Y-94499026D01*
X147723378Y-94499026D01*
X147867015Y-94542598D01*
X147982300Y-94604219D01*
X147999394Y-94613356D01*
X148115422Y-94708578D01*
X148210644Y-94824606D01*
X148210645Y-94824608D01*
X148281402Y-94956985D01*
X148308527Y-95046404D01*
X148324975Y-95100626D01*
X148339687Y-95250000D01*
X148324975Y-95399374D01*
X148324974Y-95399377D01*
X148324974Y-95399378D01*
X148281402Y-95543015D01*
X148281401Y-95543016D01*
X148210644Y-95675394D01*
X148115422Y-95791422D01*
X147999394Y-95886644D01*
X147999392Y-95886645D01*
X147867015Y-95957402D01*
X147723378Y-96000974D01*
X147723377Y-96000974D01*
X147723374Y-96000975D01*
X147611432Y-96012000D01*
X147028568Y-96012000D01*
X146916626Y-96000975D01*
X146916623Y-96000974D01*
X146916622Y-96000974D01*
X146772985Y-95957402D01*
X146640608Y-95886645D01*
X146640606Y-95886644D01*
X146524578Y-95791422D01*
X146429356Y-95675394D01*
X146358599Y-95543016D01*
X146358598Y-95543015D01*
X146315026Y-95399378D01*
X146315026Y-95399377D01*
X146315025Y-95399374D01*
X146300313Y-95250000D01*
X146315025Y-95100626D01*
X146331473Y-95046404D01*
X146358598Y-94956985D01*
X146429355Y-94824608D01*
X146429356Y-94824606D01*
X146524578Y-94708578D01*
X146640606Y-94613356D01*
X146657700Y-94604219D01*
X146772985Y-94542598D01*
X146916622Y-94499026D01*
X146916623Y-94499026D01*
X146916626Y-94499025D01*
X147028568Y-94488000D01*
X147611432Y-94488000D01*
X147723374Y-94499025D01*
X147723374Y-94499025D01*
G37*
G36*
X152316744Y-91643526D02*
X152316746Y-91643527D01*
X152316749Y-91643527D01*
X152651903Y-91745195D01*
X152876775Y-91865392D01*
X152960785Y-91910296D01*
X153231518Y-92132482D01*
X153453704Y-92403215D01*
X153453705Y-92403217D01*
X153618805Y-92712097D01*
X153720473Y-93047251D01*
X153720473Y-93047254D01*
X153720474Y-93047256D01*
X153754803Y-93395800D01*
X153720474Y-93744344D01*
X153720473Y-93744346D01*
X153720473Y-93744349D01*
X153618805Y-94079503D01*
X153464364Y-94368441D01*
X153453704Y-94388385D01*
X153231518Y-94659118D01*
X152960785Y-94881304D01*
X152960783Y-94881305D01*
X152651903Y-95046405D01*
X152316749Y-95148073D01*
X152316746Y-95148073D01*
X152316744Y-95148074D01*
X152055544Y-95173800D01*
X150356856Y-95173800D01*
X150095656Y-95148074D01*
X150095654Y-95148073D01*
X150095651Y-95148073D01*
X149760497Y-95046405D01*
X149451617Y-94881305D01*
X149451615Y-94881304D01*
X149180882Y-94659118D01*
X148958696Y-94388385D01*
X148948036Y-94368441D01*
X148793595Y-94079503D01*
X148691927Y-93744349D01*
X148691927Y-93744346D01*
X148691926Y-93744344D01*
X148657597Y-93395800D01*
X148691926Y-93047256D01*
X148691927Y-93047254D01*
X148691927Y-93047251D01*
X148793595Y-92712097D01*
X148958695Y-92403217D01*
X148958696Y-92403215D01*
X149180882Y-92132482D01*
X149451615Y-91910296D01*
X149535625Y-91865392D01*
X149760497Y-91745195D01*
X150095651Y-91643527D01*
X150095654Y-91643527D01*
X150095656Y-91643526D01*
X150356856Y-91617800D01*
X152055544Y-91617800D01*
X152316744Y-91643526D01*
X152316744Y-91643526D01*
G37*
G36*
X103654373Y-92975025D02*
X103654376Y-92975026D01*
X103654377Y-92975026D01*
X103798014Y-93018598D01*
X103851620Y-93047251D01*
X103930393Y-93089356D01*
X104046422Y-93184578D01*
X104141644Y-93300606D01*
X104141645Y-93300608D01*
X104212402Y-93432985D01*
X104212402Y-93432986D01*
X104255975Y-93576626D01*
X104267000Y-93688568D01*
X104267000Y-94271432D01*
X104255975Y-94383374D01*
X104255974Y-94383377D01*
X104255974Y-94383378D01*
X104212402Y-94527015D01*
X104204072Y-94542599D01*
X104141644Y-94659394D01*
X104046422Y-94775422D01*
X103930394Y-94870644D01*
X103930392Y-94870645D01*
X103798015Y-94941402D01*
X103654378Y-94984974D01*
X103654377Y-94984974D01*
X103654374Y-94984975D01*
X103505000Y-94999687D01*
X103355627Y-94984975D01*
X103355624Y-94984974D01*
X103355623Y-94984974D01*
X103211986Y-94941402D01*
X103079609Y-94870645D01*
X103079607Y-94870644D01*
X102963579Y-94775422D01*
X102868354Y-94659391D01*
X102797600Y-94527021D01*
X102754025Y-94383374D01*
X102743000Y-94271432D01*
X102743000Y-93688569D01*
X102754025Y-93576627D01*
X102754026Y-93576623D01*
X102797598Y-93432986D01*
X102868355Y-93300609D01*
X102868356Y-93300607D01*
X102963578Y-93184578D01*
X103079606Y-93089356D01*
X103158379Y-93047251D01*
X103211985Y-93018598D01*
X103355622Y-92975026D01*
X103355623Y-92975026D01*
X103355626Y-92975025D01*
X103505000Y-92960313D01*
X103654373Y-92975025D01*
X103654373Y-92975025D01*
G37*
G36*
X136674373Y-92975025D02*
X136674376Y-92975026D01*
X136674377Y-92975026D01*
X136818014Y-93018598D01*
X136871620Y-93047251D01*
X136950393Y-93089356D01*
X137066422Y-93184578D01*
X137161644Y-93300606D01*
X137161645Y-93300608D01*
X137232402Y-93432985D01*
X137232402Y-93432986D01*
X137275975Y-93576626D01*
X137287000Y-93688568D01*
X137287000Y-94271432D01*
X137275975Y-94383374D01*
X137275974Y-94383377D01*
X137275974Y-94383378D01*
X137232402Y-94527015D01*
X137224072Y-94542599D01*
X137161644Y-94659394D01*
X137066422Y-94775422D01*
X136950394Y-94870644D01*
X136950392Y-94870645D01*
X136818015Y-94941402D01*
X136674378Y-94984974D01*
X136674377Y-94984974D01*
X136674374Y-94984975D01*
X136525000Y-94999687D01*
X136375627Y-94984975D01*
X136375624Y-94984974D01*
X136375623Y-94984974D01*
X136231986Y-94941402D01*
X136099609Y-94870645D01*
X136099607Y-94870644D01*
X135983579Y-94775422D01*
X135888354Y-94659391D01*
X135817600Y-94527021D01*
X135774025Y-94383374D01*
X135763000Y-94271432D01*
X135763000Y-93688569D01*
X135774025Y-93576627D01*
X135774026Y-93576623D01*
X135817598Y-93432986D01*
X135888355Y-93300609D01*
X135888356Y-93300607D01*
X135983578Y-93184578D01*
X136099606Y-93089356D01*
X136178379Y-93047251D01*
X136231985Y-93018598D01*
X136375622Y-92975026D01*
X136375623Y-92975026D01*
X136375626Y-92975025D01*
X136525000Y-92960313D01*
X136674373Y-92975025D01*
X136674373Y-92975025D01*
G37*
G36*
X134134373Y-92975025D02*
X134134376Y-92975026D01*
X134134377Y-92975026D01*
X134278014Y-93018598D01*
X134331620Y-93047251D01*
X134410393Y-93089356D01*
X134526422Y-93184578D01*
X134621644Y-93300606D01*
X134621645Y-93300608D01*
X134692402Y-93432985D01*
X134692402Y-93432986D01*
X134735975Y-93576626D01*
X134747000Y-93688568D01*
X134747000Y-94271432D01*
X134735975Y-94383374D01*
X134735974Y-94383377D01*
X134735974Y-94383378D01*
X134692402Y-94527015D01*
X134684072Y-94542599D01*
X134621644Y-94659394D01*
X134526422Y-94775422D01*
X134410394Y-94870644D01*
X134410392Y-94870645D01*
X134278015Y-94941402D01*
X134134378Y-94984974D01*
X134134377Y-94984974D01*
X134134374Y-94984975D01*
X133985000Y-94999687D01*
X133835627Y-94984975D01*
X133835624Y-94984974D01*
X133835623Y-94984974D01*
X133691986Y-94941402D01*
X133559609Y-94870645D01*
X133559607Y-94870644D01*
X133443579Y-94775422D01*
X133348354Y-94659391D01*
X133277600Y-94527021D01*
X133234025Y-94383374D01*
X133223000Y-94271432D01*
X133223000Y-93688569D01*
X133234025Y-93576627D01*
X133234026Y-93576623D01*
X133277598Y-93432986D01*
X133348355Y-93300609D01*
X133348356Y-93300607D01*
X133443578Y-93184578D01*
X133559606Y-93089356D01*
X133638379Y-93047251D01*
X133691985Y-93018598D01*
X133835622Y-92975026D01*
X133835623Y-92975026D01*
X133835626Y-92975025D01*
X133985000Y-92960313D01*
X134134373Y-92975025D01*
X134134373Y-92975025D01*
G37*
G36*
X131594373Y-92975025D02*
X131594376Y-92975026D01*
X131594377Y-92975026D01*
X131738014Y-93018598D01*
X131791620Y-93047251D01*
X131870393Y-93089356D01*
X131986422Y-93184578D01*
X132081644Y-93300606D01*
X132081645Y-93300608D01*
X132152402Y-93432985D01*
X132152402Y-93432986D01*
X132195975Y-93576626D01*
X132207000Y-93688568D01*
X132207000Y-94271432D01*
X132195975Y-94383374D01*
X132195974Y-94383377D01*
X132195974Y-94383378D01*
X132152402Y-94527015D01*
X132144072Y-94542599D01*
X132081644Y-94659394D01*
X131986422Y-94775422D01*
X131870394Y-94870644D01*
X131870392Y-94870645D01*
X131738015Y-94941402D01*
X131594378Y-94984974D01*
X131594377Y-94984974D01*
X131594374Y-94984975D01*
X131445000Y-94999687D01*
X131295627Y-94984975D01*
X131295624Y-94984974D01*
X131295623Y-94984974D01*
X131151986Y-94941402D01*
X131019609Y-94870645D01*
X131019607Y-94870644D01*
X130903579Y-94775422D01*
X130808354Y-94659391D01*
X130737600Y-94527021D01*
X130694025Y-94383374D01*
X130683000Y-94271432D01*
X130683000Y-93688569D01*
X130694025Y-93576627D01*
X130694026Y-93576623D01*
X130737598Y-93432986D01*
X130808355Y-93300609D01*
X130808356Y-93300607D01*
X130903578Y-93184578D01*
X131019606Y-93089356D01*
X131098379Y-93047251D01*
X131151985Y-93018598D01*
X131295622Y-92975026D01*
X131295623Y-92975026D01*
X131295626Y-92975025D01*
X131445000Y-92960313D01*
X131594373Y-92975025D01*
X131594373Y-92975025D01*
G37*
G36*
X129054373Y-92975025D02*
X129054376Y-92975026D01*
X129054377Y-92975026D01*
X129198014Y-93018598D01*
X129251620Y-93047251D01*
X129330393Y-93089356D01*
X129446422Y-93184578D01*
X129541644Y-93300606D01*
X129541645Y-93300608D01*
X129612402Y-93432985D01*
X129612402Y-93432986D01*
X129655975Y-93576626D01*
X129667000Y-93688568D01*
X129667000Y-94271432D01*
X129655975Y-94383374D01*
X129655974Y-94383377D01*
X129655974Y-94383378D01*
X129612402Y-94527015D01*
X129604072Y-94542599D01*
X129541644Y-94659394D01*
X129446422Y-94775422D01*
X129330394Y-94870644D01*
X129330392Y-94870645D01*
X129198015Y-94941402D01*
X129054378Y-94984974D01*
X129054377Y-94984974D01*
X129054374Y-94984975D01*
X128905000Y-94999687D01*
X128755627Y-94984975D01*
X128755624Y-94984974D01*
X128755623Y-94984974D01*
X128611986Y-94941402D01*
X128479609Y-94870645D01*
X128479607Y-94870644D01*
X128363579Y-94775422D01*
X128268354Y-94659391D01*
X128197600Y-94527021D01*
X128154025Y-94383374D01*
X128143000Y-94271432D01*
X128143000Y-93688569D01*
X128154025Y-93576627D01*
X128154026Y-93576623D01*
X128197598Y-93432986D01*
X128268355Y-93300609D01*
X128268356Y-93300607D01*
X128363578Y-93184578D01*
X128479606Y-93089356D01*
X128558379Y-93047251D01*
X128611985Y-93018598D01*
X128755622Y-92975026D01*
X128755623Y-92975026D01*
X128755626Y-92975025D01*
X128905000Y-92960313D01*
X129054373Y-92975025D01*
X129054373Y-92975025D01*
G37*
G36*
X126514373Y-92975025D02*
X126514376Y-92975026D01*
X126514377Y-92975026D01*
X126658014Y-93018598D01*
X126711620Y-93047251D01*
X126790393Y-93089356D01*
X126906422Y-93184578D01*
X127001644Y-93300606D01*
X127001645Y-93300608D01*
X127072402Y-93432985D01*
X127072402Y-93432986D01*
X127115975Y-93576626D01*
X127127000Y-93688568D01*
X127127000Y-94271432D01*
X127115975Y-94383374D01*
X127115974Y-94383377D01*
X127115974Y-94383378D01*
X127072402Y-94527015D01*
X127064072Y-94542599D01*
X127001644Y-94659394D01*
X126906422Y-94775422D01*
X126790394Y-94870644D01*
X126790392Y-94870645D01*
X126658015Y-94941402D01*
X126514378Y-94984974D01*
X126514377Y-94984974D01*
X126514374Y-94984975D01*
X126365000Y-94999687D01*
X126215627Y-94984975D01*
X126215624Y-94984974D01*
X126215623Y-94984974D01*
X126071986Y-94941402D01*
X125939609Y-94870645D01*
X125939607Y-94870644D01*
X125823579Y-94775422D01*
X125728354Y-94659391D01*
X125657600Y-94527021D01*
X125614025Y-94383374D01*
X125603000Y-94271432D01*
X125603000Y-93688569D01*
X125614025Y-93576627D01*
X125614026Y-93576623D01*
X125657598Y-93432986D01*
X125728355Y-93300609D01*
X125728356Y-93300607D01*
X125823578Y-93184578D01*
X125939606Y-93089356D01*
X126018379Y-93047251D01*
X126071985Y-93018598D01*
X126215622Y-92975026D01*
X126215623Y-92975026D01*
X126215626Y-92975025D01*
X126365000Y-92960313D01*
X126514373Y-92975025D01*
X126514373Y-92975025D01*
G37*
G36*
X123974373Y-92975025D02*
X123974376Y-92975026D01*
X123974377Y-92975026D01*
X124118014Y-93018598D01*
X124171620Y-93047251D01*
X124250393Y-93089356D01*
X124366422Y-93184578D01*
X124461644Y-93300606D01*
X124461645Y-93300608D01*
X124532402Y-93432985D01*
X124532402Y-93432986D01*
X124575975Y-93576626D01*
X124587000Y-93688568D01*
X124587000Y-94271432D01*
X124575975Y-94383374D01*
X124575974Y-94383377D01*
X124575974Y-94383378D01*
X124532402Y-94527015D01*
X124524072Y-94542599D01*
X124461644Y-94659394D01*
X124366422Y-94775422D01*
X124250394Y-94870644D01*
X124250392Y-94870645D01*
X124118015Y-94941402D01*
X123974378Y-94984974D01*
X123974377Y-94984974D01*
X123974374Y-94984975D01*
X123825000Y-94999687D01*
X123675627Y-94984975D01*
X123675624Y-94984974D01*
X123675623Y-94984974D01*
X123531986Y-94941402D01*
X123399609Y-94870645D01*
X123399607Y-94870644D01*
X123283579Y-94775422D01*
X123188354Y-94659391D01*
X123117600Y-94527021D01*
X123074025Y-94383374D01*
X123063000Y-94271432D01*
X123063000Y-93688569D01*
X123074025Y-93576627D01*
X123074026Y-93576623D01*
X123117598Y-93432986D01*
X123188355Y-93300609D01*
X123188356Y-93300607D01*
X123283578Y-93184578D01*
X123399606Y-93089356D01*
X123478379Y-93047251D01*
X123531985Y-93018598D01*
X123675622Y-92975026D01*
X123675623Y-92975026D01*
X123675626Y-92975025D01*
X123825000Y-92960313D01*
X123974373Y-92975025D01*
X123974373Y-92975025D01*
G37*
G36*
X121434373Y-92975025D02*
X121434376Y-92975026D01*
X121434377Y-92975026D01*
X121578014Y-93018598D01*
X121631620Y-93047251D01*
X121710393Y-93089356D01*
X121826422Y-93184578D01*
X121921644Y-93300606D01*
X121921645Y-93300608D01*
X121992402Y-93432985D01*
X121992402Y-93432986D01*
X122035975Y-93576626D01*
X122047000Y-93688568D01*
X122047000Y-94271432D01*
X122035975Y-94383374D01*
X122035974Y-94383377D01*
X122035974Y-94383378D01*
X121992402Y-94527015D01*
X121984072Y-94542599D01*
X121921644Y-94659394D01*
X121826422Y-94775422D01*
X121710394Y-94870644D01*
X121710392Y-94870645D01*
X121578015Y-94941402D01*
X121434378Y-94984974D01*
X121434377Y-94984974D01*
X121434374Y-94984975D01*
X121285000Y-94999687D01*
X121135627Y-94984975D01*
X121135624Y-94984974D01*
X121135623Y-94984974D01*
X120991986Y-94941402D01*
X120859609Y-94870645D01*
X120859607Y-94870644D01*
X120743579Y-94775422D01*
X120648354Y-94659391D01*
X120577600Y-94527021D01*
X120534025Y-94383374D01*
X120523000Y-94271432D01*
X120523000Y-93688569D01*
X120534025Y-93576627D01*
X120534026Y-93576623D01*
X120577598Y-93432986D01*
X120648355Y-93300609D01*
X120648356Y-93300607D01*
X120743578Y-93184578D01*
X120859606Y-93089356D01*
X120938379Y-93047251D01*
X120991985Y-93018598D01*
X121135622Y-92975026D01*
X121135623Y-92975026D01*
X121135626Y-92975025D01*
X121285000Y-92960313D01*
X121434373Y-92975025D01*
X121434373Y-92975025D01*
G37*
G36*
X116354373Y-92975025D02*
X116354376Y-92975026D01*
X116354377Y-92975026D01*
X116498014Y-93018598D01*
X116551620Y-93047251D01*
X116630393Y-93089356D01*
X116746422Y-93184578D01*
X116841644Y-93300606D01*
X116841645Y-93300608D01*
X116912402Y-93432985D01*
X116912402Y-93432986D01*
X116955975Y-93576626D01*
X116967000Y-93688568D01*
X116967000Y-94271432D01*
X116955975Y-94383374D01*
X116955974Y-94383377D01*
X116955974Y-94383378D01*
X116912402Y-94527015D01*
X116904072Y-94542599D01*
X116841644Y-94659394D01*
X116746422Y-94775422D01*
X116630394Y-94870644D01*
X116630392Y-94870645D01*
X116498015Y-94941402D01*
X116354378Y-94984974D01*
X116354377Y-94984974D01*
X116354374Y-94984975D01*
X116205000Y-94999687D01*
X116055627Y-94984975D01*
X116055624Y-94984974D01*
X116055623Y-94984974D01*
X115911986Y-94941402D01*
X115779609Y-94870645D01*
X115779607Y-94870644D01*
X115663579Y-94775422D01*
X115568354Y-94659391D01*
X115497600Y-94527021D01*
X115454025Y-94383374D01*
X115443000Y-94271432D01*
X115443000Y-93688569D01*
X115454025Y-93576627D01*
X115454026Y-93576623D01*
X115497598Y-93432986D01*
X115568355Y-93300609D01*
X115568356Y-93300607D01*
X115663578Y-93184578D01*
X115779606Y-93089356D01*
X115858379Y-93047251D01*
X115911985Y-93018598D01*
X116055622Y-92975026D01*
X116055623Y-92975026D01*
X116055626Y-92975025D01*
X116205000Y-92960313D01*
X116354373Y-92975025D01*
X116354373Y-92975025D01*
G37*
G36*
X113814373Y-92975025D02*
X113814376Y-92975026D01*
X113814377Y-92975026D01*
X113958014Y-93018598D01*
X114011620Y-93047251D01*
X114090393Y-93089356D01*
X114206422Y-93184578D01*
X114301644Y-93300606D01*
X114301645Y-93300608D01*
X114372402Y-93432985D01*
X114372402Y-93432986D01*
X114415975Y-93576626D01*
X114427000Y-93688568D01*
X114427000Y-94271432D01*
X114415975Y-94383374D01*
X114415974Y-94383377D01*
X114415974Y-94383378D01*
X114372402Y-94527015D01*
X114364072Y-94542599D01*
X114301644Y-94659394D01*
X114206422Y-94775422D01*
X114090394Y-94870644D01*
X114090392Y-94870645D01*
X113958015Y-94941402D01*
X113814378Y-94984974D01*
X113814377Y-94984974D01*
X113814374Y-94984975D01*
X113665000Y-94999687D01*
X113515627Y-94984975D01*
X113515624Y-94984974D01*
X113515623Y-94984974D01*
X113371986Y-94941402D01*
X113239609Y-94870645D01*
X113239607Y-94870644D01*
X113123579Y-94775422D01*
X113028354Y-94659391D01*
X112957600Y-94527021D01*
X112914025Y-94383374D01*
X112903000Y-94271432D01*
X112903000Y-93688569D01*
X112914025Y-93576627D01*
X112914026Y-93576623D01*
X112957598Y-93432986D01*
X113028355Y-93300609D01*
X113028356Y-93300607D01*
X113123578Y-93184578D01*
X113239606Y-93089356D01*
X113318379Y-93047251D01*
X113371985Y-93018598D01*
X113515622Y-92975026D01*
X113515623Y-92975026D01*
X113515626Y-92975025D01*
X113665000Y-92960313D01*
X113814373Y-92975025D01*
X113814373Y-92975025D01*
G37*
G36*
X111274373Y-92975025D02*
X111274376Y-92975026D01*
X111274377Y-92975026D01*
X111418014Y-93018598D01*
X111471620Y-93047251D01*
X111550393Y-93089356D01*
X111666422Y-93184578D01*
X111761644Y-93300606D01*
X111761645Y-93300608D01*
X111832402Y-93432985D01*
X111832402Y-93432986D01*
X111875975Y-93576626D01*
X111887000Y-93688568D01*
X111887000Y-94271432D01*
X111875975Y-94383374D01*
X111875974Y-94383377D01*
X111875974Y-94383378D01*
X111832402Y-94527015D01*
X111824072Y-94542599D01*
X111761644Y-94659394D01*
X111666422Y-94775422D01*
X111550394Y-94870644D01*
X111550392Y-94870645D01*
X111418015Y-94941402D01*
X111274378Y-94984974D01*
X111274377Y-94984974D01*
X111274374Y-94984975D01*
X111125000Y-94999687D01*
X110975627Y-94984975D01*
X110975624Y-94984974D01*
X110975623Y-94984974D01*
X110831986Y-94941402D01*
X110699609Y-94870645D01*
X110699607Y-94870644D01*
X110583579Y-94775422D01*
X110488354Y-94659391D01*
X110417600Y-94527021D01*
X110374025Y-94383374D01*
X110363000Y-94271432D01*
X110363000Y-93688569D01*
X110374025Y-93576627D01*
X110374026Y-93576623D01*
X110417598Y-93432986D01*
X110488355Y-93300609D01*
X110488356Y-93300607D01*
X110583578Y-93184578D01*
X110699606Y-93089356D01*
X110778379Y-93047251D01*
X110831985Y-93018598D01*
X110975622Y-92975026D01*
X110975623Y-92975026D01*
X110975626Y-92975025D01*
X111125000Y-92960313D01*
X111274373Y-92975025D01*
X111274373Y-92975025D01*
G37*
G36*
X108734373Y-92975025D02*
X108734376Y-92975026D01*
X108734377Y-92975026D01*
X108878014Y-93018598D01*
X108931620Y-93047251D01*
X109010393Y-93089356D01*
X109126422Y-93184578D01*
X109221644Y-93300606D01*
X109221645Y-93300608D01*
X109292402Y-93432985D01*
X109292402Y-93432986D01*
X109335975Y-93576626D01*
X109347000Y-93688568D01*
X109347000Y-94271432D01*
X109335975Y-94383374D01*
X109335974Y-94383377D01*
X109335974Y-94383378D01*
X109292402Y-94527015D01*
X109284072Y-94542599D01*
X109221644Y-94659394D01*
X109126422Y-94775422D01*
X109010394Y-94870644D01*
X109010392Y-94870645D01*
X108878015Y-94941402D01*
X108734378Y-94984974D01*
X108734377Y-94984974D01*
X108734374Y-94984975D01*
X108585000Y-94999687D01*
X108435627Y-94984975D01*
X108435624Y-94984974D01*
X108435623Y-94984974D01*
X108291986Y-94941402D01*
X108159609Y-94870645D01*
X108159607Y-94870644D01*
X108043579Y-94775422D01*
X107948354Y-94659391D01*
X107877600Y-94527021D01*
X107834025Y-94383374D01*
X107823000Y-94271432D01*
X107823000Y-93688569D01*
X107834025Y-93576627D01*
X107834026Y-93576623D01*
X107877598Y-93432986D01*
X107948355Y-93300609D01*
X107948356Y-93300607D01*
X108043578Y-93184578D01*
X108159606Y-93089356D01*
X108238379Y-93047251D01*
X108291985Y-93018598D01*
X108435622Y-92975026D01*
X108435623Y-92975026D01*
X108435626Y-92975025D01*
X108585000Y-92960313D01*
X108734373Y-92975025D01*
X108734373Y-92975025D01*
G37*
G36*
X98574373Y-92975025D02*
X98574376Y-92975026D01*
X98574377Y-92975026D01*
X98718014Y-93018598D01*
X98771620Y-93047251D01*
X98850393Y-93089356D01*
X98966422Y-93184578D01*
X99061644Y-93300606D01*
X99061645Y-93300608D01*
X99132402Y-93432985D01*
X99132402Y-93432986D01*
X99175975Y-93576626D01*
X99187000Y-93688568D01*
X99187000Y-94271432D01*
X99175975Y-94383374D01*
X99175974Y-94383377D01*
X99175974Y-94383378D01*
X99132402Y-94527015D01*
X99124072Y-94542599D01*
X99061644Y-94659394D01*
X98966422Y-94775422D01*
X98850394Y-94870644D01*
X98850392Y-94870645D01*
X98718015Y-94941402D01*
X98574378Y-94984974D01*
X98574377Y-94984974D01*
X98574374Y-94984975D01*
X98425000Y-94999687D01*
X98275627Y-94984975D01*
X98275624Y-94984974D01*
X98275623Y-94984974D01*
X98131986Y-94941402D01*
X97999609Y-94870645D01*
X97999607Y-94870644D01*
X97883579Y-94775422D01*
X97788354Y-94659391D01*
X97717600Y-94527021D01*
X97674025Y-94383374D01*
X97663000Y-94271432D01*
X97663000Y-93688569D01*
X97674025Y-93576627D01*
X97674026Y-93576623D01*
X97717598Y-93432986D01*
X97788355Y-93300609D01*
X97788356Y-93300607D01*
X97883578Y-93184578D01*
X97999606Y-93089356D01*
X98078379Y-93047251D01*
X98131985Y-93018598D01*
X98275622Y-92975026D01*
X98275623Y-92975026D01*
X98275626Y-92975025D01*
X98425000Y-92960313D01*
X98574373Y-92975025D01*
X98574373Y-92975025D01*
G37*
G36*
X106194373Y-92975025D02*
X106194376Y-92975026D01*
X106194377Y-92975026D01*
X106338014Y-93018598D01*
X106391620Y-93047251D01*
X106470393Y-93089356D01*
X106586422Y-93184578D01*
X106681644Y-93300606D01*
X106681645Y-93300608D01*
X106752402Y-93432985D01*
X106752402Y-93432986D01*
X106795975Y-93576626D01*
X106807000Y-93688568D01*
X106807000Y-94271432D01*
X106795975Y-94383374D01*
X106795974Y-94383377D01*
X106795974Y-94383378D01*
X106752402Y-94527015D01*
X106744072Y-94542599D01*
X106681644Y-94659394D01*
X106586422Y-94775422D01*
X106470394Y-94870644D01*
X106470392Y-94870645D01*
X106338015Y-94941402D01*
X106194378Y-94984974D01*
X106194377Y-94984974D01*
X106194374Y-94984975D01*
X106045000Y-94999687D01*
X105895627Y-94984975D01*
X105895624Y-94984974D01*
X105895623Y-94984974D01*
X105751986Y-94941402D01*
X105619609Y-94870645D01*
X105619607Y-94870644D01*
X105503579Y-94775422D01*
X105408354Y-94659391D01*
X105337600Y-94527021D01*
X105294025Y-94383374D01*
X105283000Y-94271432D01*
X105283000Y-93688569D01*
X105294025Y-93576627D01*
X105294026Y-93576623D01*
X105337598Y-93432986D01*
X105408355Y-93300609D01*
X105408356Y-93300607D01*
X105503578Y-93184578D01*
X105619606Y-93089356D01*
X105698379Y-93047251D01*
X105751985Y-93018598D01*
X105895622Y-92975026D01*
X105895623Y-92975026D01*
X105895626Y-92975025D01*
X106045000Y-92960313D01*
X106194373Y-92975025D01*
X106194373Y-92975025D01*
G37*
G36*
X101114373Y-92975025D02*
X101114376Y-92975026D01*
X101114377Y-92975026D01*
X101258014Y-93018598D01*
X101311620Y-93047251D01*
X101390393Y-93089356D01*
X101506422Y-93184578D01*
X101601644Y-93300606D01*
X101601645Y-93300608D01*
X101672402Y-93432985D01*
X101672402Y-93432986D01*
X101715975Y-93576626D01*
X101727000Y-93688568D01*
X101727000Y-94271432D01*
X101715975Y-94383374D01*
X101715974Y-94383377D01*
X101715974Y-94383378D01*
X101672402Y-94527015D01*
X101664072Y-94542599D01*
X101601644Y-94659394D01*
X101506422Y-94775422D01*
X101390394Y-94870644D01*
X101390392Y-94870645D01*
X101258015Y-94941402D01*
X101114378Y-94984974D01*
X101114377Y-94984974D01*
X101114374Y-94984975D01*
X100965000Y-94999687D01*
X100815627Y-94984975D01*
X100815624Y-94984974D01*
X100815623Y-94984974D01*
X100671986Y-94941402D01*
X100539609Y-94870645D01*
X100539607Y-94870644D01*
X100423579Y-94775422D01*
X100328354Y-94659391D01*
X100257600Y-94527021D01*
X100214025Y-94383374D01*
X100203000Y-94271432D01*
X100203000Y-93688569D01*
X100214025Y-93576627D01*
X100214026Y-93576623D01*
X100257598Y-93432986D01*
X100328355Y-93300609D01*
X100328356Y-93300607D01*
X100423578Y-93184578D01*
X100539606Y-93089356D01*
X100618379Y-93047251D01*
X100671985Y-93018598D01*
X100815622Y-92975026D01*
X100815623Y-92975026D01*
X100815626Y-92975025D01*
X100965000Y-92960313D01*
X101114373Y-92975025D01*
X101114373Y-92975025D01*
G37*
G36*
X118894373Y-92975025D02*
X118894376Y-92975026D01*
X118894377Y-92975026D01*
X119038014Y-93018598D01*
X119091620Y-93047251D01*
X119170393Y-93089356D01*
X119286422Y-93184578D01*
X119381644Y-93300606D01*
X119381645Y-93300608D01*
X119452402Y-93432985D01*
X119452402Y-93432986D01*
X119495975Y-93576626D01*
X119507000Y-93688568D01*
X119507000Y-94271432D01*
X119495975Y-94383374D01*
X119495974Y-94383377D01*
X119495974Y-94383378D01*
X119452402Y-94527015D01*
X119444072Y-94542599D01*
X119381644Y-94659394D01*
X119286422Y-94775422D01*
X119170394Y-94870644D01*
X119170392Y-94870645D01*
X119038015Y-94941402D01*
X118894378Y-94984974D01*
X118894377Y-94984974D01*
X118894374Y-94984975D01*
X118745000Y-94999687D01*
X118595627Y-94984975D01*
X118595624Y-94984974D01*
X118595623Y-94984974D01*
X118451986Y-94941402D01*
X118319609Y-94870645D01*
X118319607Y-94870644D01*
X118203579Y-94775422D01*
X118108354Y-94659391D01*
X118037600Y-94527021D01*
X117994025Y-94383374D01*
X117983000Y-94271432D01*
X117983000Y-93688569D01*
X117994025Y-93576627D01*
X117994026Y-93576623D01*
X118037598Y-93432986D01*
X118108355Y-93300609D01*
X118108356Y-93300607D01*
X118203578Y-93184578D01*
X118319606Y-93089356D01*
X118398379Y-93047251D01*
X118451985Y-93018598D01*
X118595622Y-92975026D01*
X118595623Y-92975026D01*
X118595626Y-92975025D01*
X118745000Y-92960313D01*
X118894373Y-92975025D01*
X118894373Y-92975025D01*
G37*
G36*
X106194373Y-90181025D02*
X106194376Y-90181026D01*
X106194377Y-90181026D01*
X106338014Y-90224598D01*
X106453299Y-90286219D01*
X106470393Y-90295356D01*
X106586422Y-90390578D01*
X106681644Y-90506606D01*
X106681645Y-90506608D01*
X106752402Y-90638985D01*
X106756433Y-90652274D01*
X106795975Y-90782626D01*
X106807000Y-90894568D01*
X106807000Y-91477432D01*
X106795975Y-91589374D01*
X106795974Y-91589377D01*
X106795974Y-91589378D01*
X106752402Y-91733015D01*
X106745891Y-91745196D01*
X106681644Y-91865394D01*
X106586422Y-91981422D01*
X106470394Y-92076644D01*
X106470392Y-92076645D01*
X106338015Y-92147402D01*
X106194378Y-92190974D01*
X106194377Y-92190974D01*
X106194374Y-92190975D01*
X106045000Y-92205687D01*
X105895627Y-92190975D01*
X105895624Y-92190974D01*
X105895623Y-92190974D01*
X105751986Y-92147402D01*
X105619609Y-92076645D01*
X105619607Y-92076644D01*
X105503579Y-91981422D01*
X105408354Y-91865391D01*
X105337600Y-91733021D01*
X105294025Y-91589374D01*
X105283000Y-91477432D01*
X105283000Y-90894569D01*
X105294025Y-90782627D01*
X105294026Y-90782623D01*
X105337598Y-90638986D01*
X105408355Y-90506609D01*
X105408356Y-90506607D01*
X105503578Y-90390578D01*
X105619606Y-90295356D01*
X105636700Y-90286219D01*
X105751985Y-90224598D01*
X105895622Y-90181026D01*
X105895623Y-90181026D01*
X105895626Y-90181025D01*
X106045000Y-90166313D01*
X106194373Y-90181025D01*
X106194373Y-90181025D01*
G37*
G36*
X116354373Y-90181025D02*
X116354376Y-90181026D01*
X116354377Y-90181026D01*
X116498014Y-90224598D01*
X116613299Y-90286219D01*
X116630393Y-90295356D01*
X116746422Y-90390578D01*
X116841644Y-90506606D01*
X116841645Y-90506608D01*
X116912402Y-90638985D01*
X116916433Y-90652274D01*
X116955975Y-90782626D01*
X116967000Y-90894568D01*
X116967000Y-91477432D01*
X116955975Y-91589374D01*
X116955974Y-91589377D01*
X116955974Y-91589378D01*
X116912402Y-91733015D01*
X116905891Y-91745196D01*
X116841644Y-91865394D01*
X116746422Y-91981422D01*
X116630394Y-92076644D01*
X116630392Y-92076645D01*
X116498015Y-92147402D01*
X116354378Y-92190974D01*
X116354377Y-92190974D01*
X116354374Y-92190975D01*
X116205000Y-92205687D01*
X116055627Y-92190975D01*
X116055624Y-92190974D01*
X116055623Y-92190974D01*
X115911986Y-92147402D01*
X115779609Y-92076645D01*
X115779607Y-92076644D01*
X115663579Y-91981422D01*
X115568354Y-91865391D01*
X115497600Y-91733021D01*
X115454025Y-91589374D01*
X115443000Y-91477432D01*
X115443000Y-90894569D01*
X115454025Y-90782627D01*
X115454026Y-90782623D01*
X115497598Y-90638986D01*
X115568355Y-90506609D01*
X115568356Y-90506607D01*
X115663578Y-90390578D01*
X115779606Y-90295356D01*
X115796700Y-90286219D01*
X115911985Y-90224598D01*
X116055622Y-90181026D01*
X116055623Y-90181026D01*
X116055626Y-90181025D01*
X116205000Y-90166313D01*
X116354373Y-90181025D01*
X116354373Y-90181025D01*
G37*
G36*
X101114373Y-90181025D02*
X101114376Y-90181026D01*
X101114377Y-90181026D01*
X101258014Y-90224598D01*
X101373299Y-90286219D01*
X101390393Y-90295356D01*
X101506422Y-90390578D01*
X101601644Y-90506606D01*
X101601645Y-90506608D01*
X101672402Y-90638985D01*
X101676433Y-90652274D01*
X101715975Y-90782626D01*
X101727000Y-90894568D01*
X101727000Y-91477432D01*
X101715975Y-91589374D01*
X101715974Y-91589377D01*
X101715974Y-91589378D01*
X101672402Y-91733015D01*
X101665891Y-91745196D01*
X101601644Y-91865394D01*
X101506422Y-91981422D01*
X101390394Y-92076644D01*
X101390392Y-92076645D01*
X101258015Y-92147402D01*
X101114378Y-92190974D01*
X101114377Y-92190974D01*
X101114374Y-92190975D01*
X100965000Y-92205687D01*
X100815627Y-92190975D01*
X100815624Y-92190974D01*
X100815623Y-92190974D01*
X100671986Y-92147402D01*
X100539609Y-92076645D01*
X100539607Y-92076644D01*
X100423579Y-91981422D01*
X100328354Y-91865391D01*
X100257600Y-91733021D01*
X100214025Y-91589374D01*
X100203000Y-91477432D01*
X100203000Y-90894569D01*
X100214025Y-90782627D01*
X100214026Y-90782623D01*
X100257598Y-90638986D01*
X100328355Y-90506609D01*
X100328356Y-90506607D01*
X100423578Y-90390578D01*
X100539606Y-90295356D01*
X100556700Y-90286219D01*
X100671985Y-90224598D01*
X100815622Y-90181026D01*
X100815623Y-90181026D01*
X100815626Y-90181025D01*
X100965000Y-90166313D01*
X101114373Y-90181025D01*
X101114373Y-90181025D01*
G37*
G36*
X103654373Y-90181025D02*
X103654376Y-90181026D01*
X103654377Y-90181026D01*
X103798014Y-90224598D01*
X103913299Y-90286219D01*
X103930393Y-90295356D01*
X104046422Y-90390578D01*
X104141644Y-90506606D01*
X104141645Y-90506608D01*
X104212402Y-90638985D01*
X104216433Y-90652274D01*
X104255975Y-90782626D01*
X104267000Y-90894568D01*
X104267000Y-91477432D01*
X104255975Y-91589374D01*
X104255974Y-91589377D01*
X104255974Y-91589378D01*
X104212402Y-91733015D01*
X104205891Y-91745196D01*
X104141644Y-91865394D01*
X104046422Y-91981422D01*
X103930394Y-92076644D01*
X103930392Y-92076645D01*
X103798015Y-92147402D01*
X103654378Y-92190974D01*
X103654377Y-92190974D01*
X103654374Y-92190975D01*
X103505000Y-92205687D01*
X103355627Y-92190975D01*
X103355624Y-92190974D01*
X103355623Y-92190974D01*
X103211986Y-92147402D01*
X103079609Y-92076645D01*
X103079607Y-92076644D01*
X102963579Y-91981422D01*
X102868354Y-91865391D01*
X102797600Y-91733021D01*
X102754025Y-91589374D01*
X102743000Y-91477432D01*
X102743000Y-90894569D01*
X102754025Y-90782627D01*
X102754026Y-90782623D01*
X102797598Y-90638986D01*
X102868355Y-90506609D01*
X102868356Y-90506607D01*
X102963578Y-90390578D01*
X103079606Y-90295356D01*
X103096700Y-90286219D01*
X103211985Y-90224598D01*
X103355622Y-90181026D01*
X103355623Y-90181026D01*
X103355626Y-90181025D01*
X103505000Y-90166313D01*
X103654373Y-90181025D01*
X103654373Y-90181025D01*
G37*
G36*
X108734373Y-90181025D02*
X108734376Y-90181026D01*
X108734377Y-90181026D01*
X108878014Y-90224598D01*
X108993299Y-90286219D01*
X109010393Y-90295356D01*
X109126422Y-90390578D01*
X109221644Y-90506606D01*
X109221645Y-90506608D01*
X109292402Y-90638985D01*
X109296433Y-90652274D01*
X109335975Y-90782626D01*
X109347000Y-90894568D01*
X109347000Y-91477432D01*
X109335975Y-91589374D01*
X109335974Y-91589377D01*
X109335974Y-91589378D01*
X109292402Y-91733015D01*
X109285891Y-91745196D01*
X109221644Y-91865394D01*
X109126422Y-91981422D01*
X109010394Y-92076644D01*
X109010392Y-92076645D01*
X108878015Y-92147402D01*
X108734378Y-92190974D01*
X108734377Y-92190974D01*
X108734374Y-92190975D01*
X108585000Y-92205687D01*
X108435627Y-92190975D01*
X108435624Y-92190974D01*
X108435623Y-92190974D01*
X108291986Y-92147402D01*
X108159609Y-92076645D01*
X108159607Y-92076644D01*
X108043579Y-91981422D01*
X107948354Y-91865391D01*
X107877600Y-91733021D01*
X107834025Y-91589374D01*
X107823000Y-91477432D01*
X107823000Y-90894569D01*
X107834025Y-90782627D01*
X107834026Y-90782623D01*
X107877598Y-90638986D01*
X107948355Y-90506609D01*
X107948356Y-90506607D01*
X108043578Y-90390578D01*
X108159606Y-90295356D01*
X108176700Y-90286219D01*
X108291985Y-90224598D01*
X108435622Y-90181026D01*
X108435623Y-90181026D01*
X108435626Y-90181025D01*
X108585000Y-90166313D01*
X108734373Y-90181025D01*
X108734373Y-90181025D01*
G37*
G36*
X111274373Y-90181025D02*
X111274376Y-90181026D01*
X111274377Y-90181026D01*
X111418014Y-90224598D01*
X111533299Y-90286219D01*
X111550393Y-90295356D01*
X111666422Y-90390578D01*
X111761644Y-90506606D01*
X111761645Y-90506608D01*
X111832402Y-90638985D01*
X111836433Y-90652274D01*
X111875975Y-90782626D01*
X111887000Y-90894568D01*
X111887000Y-91477432D01*
X111875975Y-91589374D01*
X111875974Y-91589377D01*
X111875974Y-91589378D01*
X111832402Y-91733015D01*
X111825891Y-91745196D01*
X111761644Y-91865394D01*
X111666422Y-91981422D01*
X111550394Y-92076644D01*
X111550392Y-92076645D01*
X111418015Y-92147402D01*
X111274378Y-92190974D01*
X111274377Y-92190974D01*
X111274374Y-92190975D01*
X111125000Y-92205687D01*
X110975627Y-92190975D01*
X110975624Y-92190974D01*
X110975623Y-92190974D01*
X110831986Y-92147402D01*
X110699609Y-92076645D01*
X110699607Y-92076644D01*
X110583579Y-91981422D01*
X110488354Y-91865391D01*
X110417600Y-91733021D01*
X110374025Y-91589374D01*
X110363000Y-91477432D01*
X110363000Y-90894569D01*
X110374025Y-90782627D01*
X110374026Y-90782623D01*
X110417598Y-90638986D01*
X110488355Y-90506609D01*
X110488356Y-90506607D01*
X110583578Y-90390578D01*
X110699606Y-90295356D01*
X110716700Y-90286219D01*
X110831985Y-90224598D01*
X110975622Y-90181026D01*
X110975623Y-90181026D01*
X110975626Y-90181025D01*
X111125000Y-90166313D01*
X111274373Y-90181025D01*
X111274373Y-90181025D01*
G37*
G36*
X113814373Y-90181025D02*
X113814376Y-90181026D01*
X113814377Y-90181026D01*
X113958014Y-90224598D01*
X114073299Y-90286219D01*
X114090393Y-90295356D01*
X114206422Y-90390578D01*
X114301644Y-90506606D01*
X114301645Y-90506608D01*
X114372402Y-90638985D01*
X114376433Y-90652274D01*
X114415975Y-90782626D01*
X114427000Y-90894568D01*
X114427000Y-91477432D01*
X114415975Y-91589374D01*
X114415974Y-91589377D01*
X114415974Y-91589378D01*
X114372402Y-91733015D01*
X114365891Y-91745196D01*
X114301644Y-91865394D01*
X114206422Y-91981422D01*
X114090394Y-92076644D01*
X114090392Y-92076645D01*
X113958015Y-92147402D01*
X113814378Y-92190974D01*
X113814377Y-92190974D01*
X113814374Y-92190975D01*
X113665000Y-92205687D01*
X113515627Y-92190975D01*
X113515624Y-92190974D01*
X113515623Y-92190974D01*
X113371986Y-92147402D01*
X113239609Y-92076645D01*
X113239607Y-92076644D01*
X113123579Y-91981422D01*
X113028354Y-91865391D01*
X112957600Y-91733021D01*
X112914025Y-91589374D01*
X112903000Y-91477432D01*
X112903000Y-90894569D01*
X112914025Y-90782627D01*
X112914026Y-90782623D01*
X112957598Y-90638986D01*
X113028355Y-90506609D01*
X113028356Y-90506607D01*
X113123578Y-90390578D01*
X113239606Y-90295356D01*
X113256700Y-90286219D01*
X113371985Y-90224598D01*
X113515622Y-90181026D01*
X113515623Y-90181026D01*
X113515626Y-90181025D01*
X113665000Y-90166313D01*
X113814373Y-90181025D01*
X113814373Y-90181025D01*
G37*
G36*
X121434373Y-90181025D02*
X121434376Y-90181026D01*
X121434377Y-90181026D01*
X121578014Y-90224598D01*
X121693299Y-90286219D01*
X121710393Y-90295356D01*
X121826422Y-90390578D01*
X121921644Y-90506606D01*
X121921645Y-90506608D01*
X121992402Y-90638985D01*
X121996433Y-90652274D01*
X122035975Y-90782626D01*
X122047000Y-90894568D01*
X122047000Y-91477432D01*
X122035975Y-91589374D01*
X122035974Y-91589377D01*
X122035974Y-91589378D01*
X121992402Y-91733015D01*
X121985891Y-91745196D01*
X121921644Y-91865394D01*
X121826422Y-91981422D01*
X121710394Y-92076644D01*
X121710392Y-92076645D01*
X121578015Y-92147402D01*
X121434378Y-92190974D01*
X121434377Y-92190974D01*
X121434374Y-92190975D01*
X121285000Y-92205687D01*
X121135627Y-92190975D01*
X121135624Y-92190974D01*
X121135623Y-92190974D01*
X120991986Y-92147402D01*
X120859609Y-92076645D01*
X120859607Y-92076644D01*
X120743579Y-91981422D01*
X120648354Y-91865391D01*
X120577600Y-91733021D01*
X120534025Y-91589374D01*
X120523000Y-91477432D01*
X120523000Y-90894569D01*
X120534025Y-90782627D01*
X120534026Y-90782623D01*
X120577598Y-90638986D01*
X120648355Y-90506609D01*
X120648356Y-90506607D01*
X120743578Y-90390578D01*
X120859606Y-90295356D01*
X120876700Y-90286219D01*
X120991985Y-90224598D01*
X121135622Y-90181026D01*
X121135623Y-90181026D01*
X121135626Y-90181025D01*
X121285000Y-90166313D01*
X121434373Y-90181025D01*
X121434373Y-90181025D01*
G37*
G36*
X123974373Y-90181025D02*
X123974376Y-90181026D01*
X123974377Y-90181026D01*
X124118014Y-90224598D01*
X124233299Y-90286219D01*
X124250393Y-90295356D01*
X124366422Y-90390578D01*
X124461644Y-90506606D01*
X124461645Y-90506608D01*
X124532402Y-90638985D01*
X124536433Y-90652274D01*
X124575975Y-90782626D01*
X124587000Y-90894568D01*
X124587000Y-91477432D01*
X124575975Y-91589374D01*
X124575974Y-91589377D01*
X124575974Y-91589378D01*
X124532402Y-91733015D01*
X124525891Y-91745196D01*
X124461644Y-91865394D01*
X124366422Y-91981422D01*
X124250394Y-92076644D01*
X124250392Y-92076645D01*
X124118015Y-92147402D01*
X123974378Y-92190974D01*
X123974377Y-92190974D01*
X123974374Y-92190975D01*
X123825000Y-92205687D01*
X123675627Y-92190975D01*
X123675624Y-92190974D01*
X123675623Y-92190974D01*
X123531986Y-92147402D01*
X123399609Y-92076645D01*
X123399607Y-92076644D01*
X123283579Y-91981422D01*
X123188354Y-91865391D01*
X123117600Y-91733021D01*
X123074025Y-91589374D01*
X123063000Y-91477432D01*
X123063000Y-90894569D01*
X123074025Y-90782627D01*
X123074026Y-90782623D01*
X123117598Y-90638986D01*
X123188355Y-90506609D01*
X123188356Y-90506607D01*
X123283578Y-90390578D01*
X123399606Y-90295356D01*
X123416700Y-90286219D01*
X123531985Y-90224598D01*
X123675622Y-90181026D01*
X123675623Y-90181026D01*
X123675626Y-90181025D01*
X123825000Y-90166313D01*
X123974373Y-90181025D01*
X123974373Y-90181025D01*
G37*
G36*
X126514373Y-90181025D02*
X126514376Y-90181026D01*
X126514377Y-90181026D01*
X126658014Y-90224598D01*
X126773299Y-90286219D01*
X126790393Y-90295356D01*
X126906422Y-90390578D01*
X127001644Y-90506606D01*
X127001645Y-90506608D01*
X127072402Y-90638985D01*
X127076433Y-90652274D01*
X127115975Y-90782626D01*
X127127000Y-90894568D01*
X127127000Y-91477432D01*
X127115975Y-91589374D01*
X127115974Y-91589377D01*
X127115974Y-91589378D01*
X127072402Y-91733015D01*
X127065891Y-91745196D01*
X127001644Y-91865394D01*
X126906422Y-91981422D01*
X126790394Y-92076644D01*
X126790392Y-92076645D01*
X126658015Y-92147402D01*
X126514378Y-92190974D01*
X126514377Y-92190974D01*
X126514374Y-92190975D01*
X126365000Y-92205687D01*
X126215627Y-92190975D01*
X126215624Y-92190974D01*
X126215623Y-92190974D01*
X126071986Y-92147402D01*
X125939609Y-92076645D01*
X125939607Y-92076644D01*
X125823579Y-91981422D01*
X125728354Y-91865391D01*
X125657600Y-91733021D01*
X125614025Y-91589374D01*
X125603000Y-91477432D01*
X125603000Y-90894569D01*
X125614025Y-90782627D01*
X125614026Y-90782623D01*
X125657598Y-90638986D01*
X125728355Y-90506609D01*
X125728356Y-90506607D01*
X125823578Y-90390578D01*
X125939606Y-90295356D01*
X125956700Y-90286219D01*
X126071985Y-90224598D01*
X126215622Y-90181026D01*
X126215623Y-90181026D01*
X126215626Y-90181025D01*
X126365000Y-90166313D01*
X126514373Y-90181025D01*
X126514373Y-90181025D01*
G37*
G36*
X129054373Y-90181025D02*
X129054376Y-90181026D01*
X129054377Y-90181026D01*
X129198014Y-90224598D01*
X129313299Y-90286219D01*
X129330393Y-90295356D01*
X129446422Y-90390578D01*
X129541644Y-90506606D01*
X129541645Y-90506608D01*
X129612402Y-90638985D01*
X129616433Y-90652274D01*
X129655975Y-90782626D01*
X129667000Y-90894568D01*
X129667000Y-91477432D01*
X129655975Y-91589374D01*
X129655974Y-91589377D01*
X129655974Y-91589378D01*
X129612402Y-91733015D01*
X129605891Y-91745196D01*
X129541644Y-91865394D01*
X129446422Y-91981422D01*
X129330394Y-92076644D01*
X129330392Y-92076645D01*
X129198015Y-92147402D01*
X129054378Y-92190974D01*
X129054377Y-92190974D01*
X129054374Y-92190975D01*
X128905000Y-92205687D01*
X128755627Y-92190975D01*
X128755624Y-92190974D01*
X128755623Y-92190974D01*
X128611986Y-92147402D01*
X128479609Y-92076645D01*
X128479607Y-92076644D01*
X128363579Y-91981422D01*
X128268354Y-91865391D01*
X128197600Y-91733021D01*
X128154025Y-91589374D01*
X128143000Y-91477432D01*
X128143000Y-90894569D01*
X128154025Y-90782627D01*
X128154026Y-90782623D01*
X128197598Y-90638986D01*
X128268355Y-90506609D01*
X128268356Y-90506607D01*
X128363578Y-90390578D01*
X128479606Y-90295356D01*
X128496700Y-90286219D01*
X128611985Y-90224598D01*
X128755622Y-90181026D01*
X128755623Y-90181026D01*
X128755626Y-90181025D01*
X128905000Y-90166313D01*
X129054373Y-90181025D01*
X129054373Y-90181025D01*
G37*
G36*
X131594373Y-90181025D02*
X131594376Y-90181026D01*
X131594377Y-90181026D01*
X131738014Y-90224598D01*
X131853299Y-90286219D01*
X131870393Y-90295356D01*
X131986422Y-90390578D01*
X132081644Y-90506606D01*
X132081645Y-90506608D01*
X132152402Y-90638985D01*
X132156433Y-90652274D01*
X132195975Y-90782626D01*
X132207000Y-90894568D01*
X132207000Y-91477432D01*
X132195975Y-91589374D01*
X132195974Y-91589377D01*
X132195974Y-91589378D01*
X132152402Y-91733015D01*
X132145891Y-91745196D01*
X132081644Y-91865394D01*
X131986422Y-91981422D01*
X131870394Y-92076644D01*
X131870392Y-92076645D01*
X131738015Y-92147402D01*
X131594378Y-92190974D01*
X131594377Y-92190974D01*
X131594374Y-92190975D01*
X131445000Y-92205687D01*
X131295627Y-92190975D01*
X131295624Y-92190974D01*
X131295623Y-92190974D01*
X131151986Y-92147402D01*
X131019609Y-92076645D01*
X131019607Y-92076644D01*
X130903579Y-91981422D01*
X130808354Y-91865391D01*
X130737600Y-91733021D01*
X130694025Y-91589374D01*
X130683000Y-91477432D01*
X130683000Y-90894569D01*
X130694025Y-90782627D01*
X130694026Y-90782623D01*
X130737598Y-90638986D01*
X130808355Y-90506609D01*
X130808356Y-90506607D01*
X130903578Y-90390578D01*
X131019606Y-90295356D01*
X131036700Y-90286219D01*
X131151985Y-90224598D01*
X131295622Y-90181026D01*
X131295623Y-90181026D01*
X131295626Y-90181025D01*
X131445000Y-90166313D01*
X131594373Y-90181025D01*
X131594373Y-90181025D01*
G37*
G36*
X134134373Y-90181025D02*
X134134376Y-90181026D01*
X134134377Y-90181026D01*
X134278014Y-90224598D01*
X134393299Y-90286219D01*
X134410393Y-90295356D01*
X134526422Y-90390578D01*
X134621644Y-90506606D01*
X134621645Y-90506608D01*
X134692402Y-90638985D01*
X134696433Y-90652274D01*
X134735975Y-90782626D01*
X134747000Y-90894568D01*
X134747000Y-91477432D01*
X134735975Y-91589374D01*
X134735974Y-91589377D01*
X134735974Y-91589378D01*
X134692402Y-91733015D01*
X134685891Y-91745196D01*
X134621644Y-91865394D01*
X134526422Y-91981422D01*
X134410394Y-92076644D01*
X134410392Y-92076645D01*
X134278015Y-92147402D01*
X134134378Y-92190974D01*
X134134377Y-92190974D01*
X134134374Y-92190975D01*
X133985000Y-92205687D01*
X133835627Y-92190975D01*
X133835624Y-92190974D01*
X133835623Y-92190974D01*
X133691986Y-92147402D01*
X133559609Y-92076645D01*
X133559607Y-92076644D01*
X133443579Y-91981422D01*
X133348354Y-91865391D01*
X133277600Y-91733021D01*
X133234025Y-91589374D01*
X133223000Y-91477432D01*
X133223000Y-90894569D01*
X133234025Y-90782627D01*
X133234026Y-90782623D01*
X133277598Y-90638986D01*
X133348355Y-90506609D01*
X133348356Y-90506607D01*
X133443578Y-90390578D01*
X133559606Y-90295356D01*
X133576700Y-90286219D01*
X133691985Y-90224598D01*
X133835622Y-90181026D01*
X133835623Y-90181026D01*
X133835626Y-90181025D01*
X133985000Y-90166313D01*
X134134373Y-90181025D01*
X134134373Y-90181025D01*
G37*
G36*
X98574373Y-90181025D02*
X98574376Y-90181026D01*
X98574377Y-90181026D01*
X98718014Y-90224598D01*
X98833299Y-90286219D01*
X98850393Y-90295356D01*
X98966422Y-90390578D01*
X99061644Y-90506606D01*
X99061645Y-90506608D01*
X99132402Y-90638985D01*
X99136433Y-90652274D01*
X99175975Y-90782626D01*
X99187000Y-90894568D01*
X99187000Y-91477432D01*
X99175975Y-91589374D01*
X99175974Y-91589377D01*
X99175974Y-91589378D01*
X99132402Y-91733015D01*
X99125891Y-91745196D01*
X99061644Y-91865394D01*
X98966422Y-91981422D01*
X98850394Y-92076644D01*
X98850392Y-92076645D01*
X98718015Y-92147402D01*
X98574378Y-92190974D01*
X98574377Y-92190974D01*
X98574374Y-92190975D01*
X98425000Y-92205687D01*
X98275627Y-92190975D01*
X98275624Y-92190974D01*
X98275623Y-92190974D01*
X98131986Y-92147402D01*
X97999609Y-92076645D01*
X97999607Y-92076644D01*
X97883579Y-91981422D01*
X97788354Y-91865391D01*
X97717600Y-91733021D01*
X97674025Y-91589374D01*
X97663000Y-91477432D01*
X97663000Y-90894569D01*
X97674025Y-90782627D01*
X97674026Y-90782623D01*
X97717598Y-90638986D01*
X97788355Y-90506609D01*
X97788356Y-90506607D01*
X97883578Y-90390578D01*
X97999606Y-90295356D01*
X98016700Y-90286219D01*
X98131985Y-90224598D01*
X98275622Y-90181026D01*
X98275623Y-90181026D01*
X98275626Y-90181025D01*
X98425000Y-90166313D01*
X98574373Y-90181025D01*
X98574373Y-90181025D01*
G37*
G36*
X118894373Y-90181025D02*
X118894376Y-90181026D01*
X118894377Y-90181026D01*
X119038014Y-90224598D01*
X119153299Y-90286219D01*
X119170393Y-90295356D01*
X119286422Y-90390578D01*
X119381644Y-90506606D01*
X119381645Y-90506608D01*
X119452402Y-90638985D01*
X119456433Y-90652274D01*
X119495975Y-90782626D01*
X119507000Y-90894568D01*
X119507000Y-91477432D01*
X119495975Y-91589374D01*
X119495974Y-91589377D01*
X119495974Y-91589378D01*
X119452402Y-91733015D01*
X119445891Y-91745196D01*
X119381644Y-91865394D01*
X119286422Y-91981422D01*
X119170394Y-92076644D01*
X119170392Y-92076645D01*
X119038015Y-92147402D01*
X118894378Y-92190974D01*
X118894377Y-92190974D01*
X118894374Y-92190975D01*
X118745000Y-92205687D01*
X118595627Y-92190975D01*
X118595624Y-92190974D01*
X118595623Y-92190974D01*
X118451986Y-92147402D01*
X118319609Y-92076645D01*
X118319607Y-92076644D01*
X118203579Y-91981422D01*
X118108354Y-91865391D01*
X118037600Y-91733021D01*
X117994025Y-91589374D01*
X117983000Y-91477432D01*
X117983000Y-90894569D01*
X117994025Y-90782627D01*
X117994026Y-90782623D01*
X118037598Y-90638986D01*
X118108355Y-90506609D01*
X118108356Y-90506607D01*
X118203578Y-90390578D01*
X118319606Y-90295356D01*
X118336700Y-90286219D01*
X118451985Y-90224598D01*
X118595622Y-90181026D01*
X118595623Y-90181026D01*
X118595626Y-90181025D01*
X118745000Y-90166313D01*
X118894373Y-90181025D01*
X118894373Y-90181025D01*
G37*
G36*
X137287000Y-92202000D02*
X135763000Y-92202000D01*
X135763000Y-90170000D01*
X137287000Y-90170000D01*
X137287000Y-92202000D01*
X137287000Y-92202000D01*
G37*
G36*
X144619537Y-86389401D02*
X144619540Y-86389402D01*
X144619541Y-86389402D01*
X145002575Y-86505594D01*
X145232620Y-86628556D01*
X145355582Y-86694280D01*
X145664993Y-86948207D01*
X145918920Y-87257618D01*
X145967665Y-87348814D01*
X146107606Y-87610625D01*
X146223798Y-87993660D01*
X146223799Y-87993664D01*
X146253200Y-88292178D01*
X146253200Y-89507823D01*
X146223799Y-89806337D01*
X146223798Y-89806340D01*
X146223798Y-89806341D01*
X146107606Y-90189375D01*
X145984644Y-90419420D01*
X145918920Y-90542382D01*
X145664993Y-90851793D01*
X145355582Y-91105720D01*
X145232620Y-91171444D01*
X145002574Y-91294406D01*
X144619540Y-91410598D01*
X144619539Y-91410598D01*
X144619536Y-91410599D01*
X144221200Y-91449832D01*
X143822863Y-91410599D01*
X143822860Y-91410598D01*
X143822859Y-91410598D01*
X143439825Y-91294406D01*
X143209780Y-91171444D01*
X143086818Y-91105720D01*
X142777407Y-90851793D01*
X142523480Y-90542382D01*
X142391443Y-90295356D01*
X142334794Y-90189374D01*
X142218602Y-89806340D01*
X142218602Y-89806339D01*
X142218601Y-89806336D01*
X142189200Y-89507822D01*
X142189200Y-88292177D01*
X142218601Y-87993663D01*
X142236457Y-87934800D01*
X142334794Y-87610625D01*
X142457756Y-87380580D01*
X142523481Y-87257618D01*
X142777408Y-86948207D01*
X143086819Y-86694280D01*
X143209781Y-86628556D01*
X143439826Y-86505594D01*
X143822860Y-86389402D01*
X143822861Y-86389402D01*
X143822864Y-86389401D01*
X144221200Y-86350168D01*
X144619537Y-86389401D01*
X144619537Y-86389401D01*
G37*
G36*
X91275000Y-91385000D02*
X89475000Y-91385000D01*
X89475000Y-89745000D01*
X91275000Y-89745000D01*
X91275000Y-91385000D01*
X91275000Y-91385000D01*
G37*
G36*
X93405000Y-91385000D02*
X91605000Y-91385000D01*
X91605000Y-89745000D01*
X93405000Y-89745000D01*
X93405000Y-91385000D01*
X93405000Y-91385000D01*
G37*
G36*
X150564144Y-87147726D02*
X150564146Y-87147727D01*
X150564149Y-87147727D01*
X150899303Y-87249395D01*
X151188241Y-87403836D01*
X151208185Y-87414496D01*
X151478918Y-87636682D01*
X151701104Y-87907415D01*
X151701105Y-87907417D01*
X151866205Y-88216297D01*
X151967873Y-88551451D01*
X151967873Y-88551454D01*
X151967874Y-88551456D01*
X152002203Y-88900000D01*
X151967874Y-89248544D01*
X151967873Y-89248546D01*
X151967873Y-89248549D01*
X151866205Y-89583703D01*
X151715742Y-89865200D01*
X151701104Y-89892585D01*
X151478918Y-90163318D01*
X151208185Y-90385504D01*
X151208183Y-90385505D01*
X150899303Y-90550605D01*
X150564149Y-90652273D01*
X150564146Y-90652273D01*
X150564144Y-90652274D01*
X150302944Y-90678000D01*
X149112256Y-90678000D01*
X148851056Y-90652274D01*
X148851054Y-90652273D01*
X148851051Y-90652273D01*
X148515897Y-90550605D01*
X148207017Y-90385505D01*
X148207015Y-90385504D01*
X147936282Y-90163318D01*
X147714096Y-89892585D01*
X147699458Y-89865200D01*
X147548995Y-89583703D01*
X147447327Y-89248549D01*
X147447327Y-89248546D01*
X147447326Y-89248544D01*
X147412997Y-88900000D01*
X147447326Y-88551456D01*
X147447327Y-88551454D01*
X147447327Y-88551451D01*
X147548995Y-88216297D01*
X147714095Y-87907417D01*
X147714096Y-87907415D01*
X147936282Y-87636682D01*
X148207015Y-87414496D01*
X148226959Y-87403836D01*
X148515897Y-87249395D01*
X148851051Y-87147727D01*
X148851054Y-87147727D01*
X148851056Y-87147726D01*
X149112256Y-87122000D01*
X150302944Y-87122000D01*
X150564144Y-87147726D01*
X150564144Y-87147726D01*
G37*
G36*
X153370022Y-87947164D02*
X153494340Y-87971892D01*
X153669991Y-88044649D01*
X153669994Y-88044651D01*
X153828079Y-88150280D01*
X153962520Y-88284721D01*
X153967507Y-88292185D01*
X154068151Y-88442809D01*
X154140908Y-88618460D01*
X154178000Y-88804937D01*
X154178000Y-88995063D01*
X154140908Y-89181540D01*
X154068151Y-89357191D01*
X154068149Y-89357194D01*
X153967503Y-89507822D01*
X153962519Y-89515280D01*
X153828080Y-89649719D01*
X153669991Y-89755351D01*
X153494340Y-89828108D01*
X153370022Y-89852836D01*
X153307864Y-89865200D01*
X153117736Y-89865200D01*
X153055578Y-89852836D01*
X152931260Y-89828108D01*
X152755609Y-89755351D01*
X152597520Y-89649719D01*
X152463081Y-89515280D01*
X152458098Y-89507822D01*
X152357451Y-89357194D01*
X152357449Y-89357191D01*
X152284692Y-89181540D01*
X152247600Y-88995063D01*
X152247600Y-88804937D01*
X152284692Y-88618460D01*
X152357449Y-88442809D01*
X152458093Y-88292185D01*
X152463080Y-88284721D01*
X152597521Y-88150280D01*
X152755606Y-88044651D01*
X152755609Y-88044649D01*
X152931260Y-87971892D01*
X153055578Y-87947164D01*
X153117736Y-87934800D01*
X153307864Y-87934800D01*
X153370022Y-87947164D01*
X153370022Y-87947164D01*
G37*
G36*
X116586000Y-89535000D02*
X115316000Y-89535000D01*
X115316000Y-86995000D01*
X116586000Y-86995000D01*
X116586000Y-89535000D01*
X116586000Y-89535000D01*
G37*
G36*
X119634000Y-89535000D02*
X118364000Y-89535000D01*
X118364000Y-86995000D01*
X119634000Y-86995000D01*
X119634000Y-89535000D01*
X119634000Y-89535000D01*
G37*
G36*
X104465000Y-88460000D02*
X103815000Y-88460000D01*
X103815000Y-87460000D01*
X104465000Y-87460000D01*
X104465000Y-88460000D01*
X104465000Y-88460000D01*
G37*
G36*
X103195000Y-88460000D02*
X102545000Y-88460000D01*
X102545000Y-87460000D01*
X103195000Y-87460000D01*
X103195000Y-88460000D01*
X103195000Y-88460000D01*
G37*
G36*
X100655000Y-88460000D02*
X100005000Y-88460000D01*
X100005000Y-87460000D01*
X100655000Y-87460000D01*
X100655000Y-88460000D01*
X100655000Y-88460000D01*
G37*
G36*
X101925000Y-88460000D02*
X101275000Y-88460000D01*
X101275000Y-87460000D01*
X101925000Y-87460000D01*
X101925000Y-88460000D01*
X101925000Y-88460000D01*
G37*
G36*
X133675000Y-88460000D02*
X133025000Y-88460000D01*
X133025000Y-87460000D01*
X133675000Y-87460000D01*
X133675000Y-88460000D01*
X133675000Y-88460000D01*
G37*
G36*
X132405000Y-88460000D02*
X131755000Y-88460000D01*
X131755000Y-87460000D01*
X132405000Y-87460000D01*
X132405000Y-88460000D01*
X132405000Y-88460000D01*
G37*
G36*
X131135000Y-88460000D02*
X130485000Y-88460000D01*
X130485000Y-87460000D01*
X131135000Y-87460000D01*
X131135000Y-88460000D01*
X131135000Y-88460000D01*
G37*
G36*
X134945000Y-88460000D02*
X134295000Y-88460000D01*
X134295000Y-87460000D01*
X134945000Y-87460000D01*
X134945000Y-88460000D01*
X134945000Y-88460000D01*
G37*
G36*
X124785000Y-88460000D02*
X124135000Y-88460000D01*
X124135000Y-87460000D01*
X124785000Y-87460000D01*
X124785000Y-88460000D01*
X124785000Y-88460000D01*
G37*
G36*
X126055000Y-88460000D02*
X125405000Y-88460000D01*
X125405000Y-87460000D01*
X126055000Y-87460000D01*
X126055000Y-88460000D01*
X126055000Y-88460000D01*
G37*
G36*
X108275000Y-88460000D02*
X107625000Y-88460000D01*
X107625000Y-87460000D01*
X108275000Y-87460000D01*
X108275000Y-88460000D01*
X108275000Y-88460000D01*
G37*
G36*
X127325000Y-88460000D02*
X126675000Y-88460000D01*
X126675000Y-87460000D01*
X127325000Y-87460000D01*
X127325000Y-88460000D01*
X127325000Y-88460000D01*
G37*
G36*
X109545000Y-88460000D02*
X108895000Y-88460000D01*
X108895000Y-87460000D01*
X109545000Y-87460000D01*
X109545000Y-88460000D01*
X109545000Y-88460000D01*
G37*
G36*
X112085000Y-88460000D02*
X111435000Y-88460000D01*
X111435000Y-87460000D01*
X112085000Y-87460000D01*
X112085000Y-88460000D01*
X112085000Y-88460000D01*
G37*
G36*
X123515000Y-88460000D02*
X122865000Y-88460000D01*
X122865000Y-87460000D01*
X123515000Y-87460000D01*
X123515000Y-88460000D01*
X123515000Y-88460000D01*
G37*
G36*
X110815000Y-88460000D02*
X110165000Y-88460000D01*
X110165000Y-87460000D01*
X110815000Y-87460000D01*
X110815000Y-88460000D01*
X110815000Y-88460000D01*
G37*
G36*
X119634000Y-86360000D02*
X118364000Y-86360000D01*
X118364000Y-83820000D01*
X119634000Y-83820000D01*
X119634000Y-86360000D01*
X119634000Y-86360000D01*
G37*
G36*
X116586000Y-86360000D02*
X115316000Y-86360000D01*
X115316000Y-83820000D01*
X116586000Y-83820000D01*
X116586000Y-86360000D01*
X116586000Y-86360000D01*
G37*
G36*
X152316744Y-82651926D02*
X152316746Y-82651927D01*
X152316749Y-82651927D01*
X152651903Y-82753595D01*
X152940841Y-82908036D01*
X152960785Y-82918696D01*
X153231518Y-83140882D01*
X153453704Y-83411615D01*
X153453705Y-83411617D01*
X153618805Y-83720497D01*
X153720473Y-84055651D01*
X153720473Y-84055654D01*
X153720474Y-84055656D01*
X153754803Y-84404200D01*
X153720474Y-84752744D01*
X153720473Y-84752746D01*
X153720473Y-84752749D01*
X153618805Y-85087903D01*
X153526817Y-85260000D01*
X153453704Y-85396785D01*
X153231518Y-85667518D01*
X152960785Y-85889704D01*
X152960783Y-85889705D01*
X152651903Y-86054805D01*
X152316749Y-86156473D01*
X152316746Y-86156473D01*
X152316744Y-86156474D01*
X152055544Y-86182200D01*
X150356856Y-86182200D01*
X150095656Y-86156474D01*
X150095654Y-86156473D01*
X150095651Y-86156473D01*
X149760497Y-86054805D01*
X149451617Y-85889705D01*
X149451615Y-85889704D01*
X149180882Y-85667518D01*
X148958696Y-85396785D01*
X148885583Y-85260000D01*
X148793595Y-85087903D01*
X148691927Y-84752749D01*
X148691927Y-84752746D01*
X148691926Y-84752744D01*
X148657597Y-84404200D01*
X148691926Y-84055656D01*
X148691927Y-84055654D01*
X148691927Y-84055651D01*
X148793595Y-83720497D01*
X148958695Y-83411617D01*
X148958696Y-83411615D01*
X149180882Y-83140882D01*
X149451615Y-82918696D01*
X149471559Y-82908036D01*
X149760497Y-82753595D01*
X150095651Y-82651927D01*
X150095654Y-82651927D01*
X150095656Y-82651926D01*
X150356856Y-82626200D01*
X152055544Y-82626200D01*
X152316744Y-82651926D01*
X152316744Y-82651926D01*
G37*
G36*
X134945000Y-85260000D02*
X134295000Y-85260000D01*
X134295000Y-84260000D01*
X134945000Y-84260000D01*
X134945000Y-85260000D01*
X134945000Y-85260000D01*
G37*
G36*
X100655000Y-85260000D02*
X100005000Y-85260000D01*
X100005000Y-84260000D01*
X100655000Y-84260000D01*
X100655000Y-85260000D01*
X100655000Y-85260000D01*
G37*
G36*
X108275000Y-85260000D02*
X107625000Y-85260000D01*
X107625000Y-84260000D01*
X108275000Y-84260000D01*
X108275000Y-85260000D01*
X108275000Y-85260000D01*
G37*
G36*
X109545000Y-85260000D02*
X108895000Y-85260000D01*
X108895000Y-84260000D01*
X109545000Y-84260000D01*
X109545000Y-85260000D01*
X109545000Y-85260000D01*
G37*
G36*
X101925000Y-85260000D02*
X101275000Y-85260000D01*
X101275000Y-84260000D01*
X101925000Y-84260000D01*
X101925000Y-85260000D01*
X101925000Y-85260000D01*
G37*
G36*
X110815000Y-85260000D02*
X110165000Y-85260000D01*
X110165000Y-84260000D01*
X110815000Y-84260000D01*
X110815000Y-85260000D01*
X110815000Y-85260000D01*
G37*
G36*
X112085000Y-85260000D02*
X111435000Y-85260000D01*
X111435000Y-84260000D01*
X112085000Y-84260000D01*
X112085000Y-85260000D01*
X112085000Y-85260000D01*
G37*
G36*
X103195000Y-85260000D02*
X102545000Y-85260000D01*
X102545000Y-84260000D01*
X103195000Y-84260000D01*
X103195000Y-85260000D01*
X103195000Y-85260000D01*
G37*
G36*
X132405000Y-85260000D02*
X131755000Y-85260000D01*
X131755000Y-84260000D01*
X132405000Y-84260000D01*
X132405000Y-85260000D01*
X132405000Y-85260000D01*
G37*
G36*
X104465000Y-85260000D02*
X103815000Y-85260000D01*
X103815000Y-84260000D01*
X104465000Y-84260000D01*
X104465000Y-85260000D01*
X104465000Y-85260000D01*
G37*
G36*
X131135000Y-85260000D02*
X130485000Y-85260000D01*
X130485000Y-84260000D01*
X131135000Y-84260000D01*
X131135000Y-85260000D01*
X131135000Y-85260000D01*
G37*
G36*
X127325000Y-85260000D02*
X126675000Y-85260000D01*
X126675000Y-84260000D01*
X127325000Y-84260000D01*
X127325000Y-85260000D01*
X127325000Y-85260000D01*
G37*
G36*
X126055000Y-85260000D02*
X125405000Y-85260000D01*
X125405000Y-84260000D01*
X126055000Y-84260000D01*
X126055000Y-85260000D01*
X126055000Y-85260000D01*
G37*
G36*
X123515000Y-85260000D02*
X122865000Y-85260000D01*
X122865000Y-84260000D01*
X123515000Y-84260000D01*
X123515000Y-85260000D01*
X123515000Y-85260000D01*
G37*
G36*
X124785000Y-85260000D02*
X124135000Y-85260000D01*
X124135000Y-84260000D01*
X124785000Y-84260000D01*
X124785000Y-85260000D01*
X124785000Y-85260000D01*
G37*
G36*
X133675000Y-85260000D02*
X133025000Y-85260000D01*
X133025000Y-84260000D01*
X133675000Y-84260000D01*
X133675000Y-85260000D01*
X133675000Y-85260000D01*
G37*
G36*
X121075000Y-82530000D02*
X119725000Y-82530000D01*
X119725000Y-82130000D01*
X121075000Y-82130000D01*
X121075000Y-82530000D01*
X121075000Y-82530000D01*
G37*
G36*
X115225000Y-82530000D02*
X113875000Y-82530000D01*
X113875000Y-82130000D01*
X115225000Y-82130000D01*
X115225000Y-82530000D01*
X115225000Y-82530000D01*
G37*
G36*
X115225000Y-81880000D02*
X113875000Y-81880000D01*
X113875000Y-81480000D01*
X115225000Y-81480000D01*
X115225000Y-81880000D01*
X115225000Y-81880000D01*
G37*
G36*
X121075000Y-81880000D02*
X119725000Y-81880000D01*
X119725000Y-81480000D01*
X121075000Y-81480000D01*
X121075000Y-81880000D01*
X121075000Y-81880000D01*
G37*
G36*
X115225000Y-81230000D02*
X113875000Y-81230000D01*
X113875000Y-80830000D01*
X115225000Y-80830000D01*
X115225000Y-81230000D01*
X115225000Y-81230000D01*
G37*
G36*
X121075000Y-81230000D02*
X119725000Y-81230000D01*
X119725000Y-80830000D01*
X121075000Y-80830000D01*
X121075000Y-81230000D01*
X121075000Y-81230000D01*
G37*
G36*
X115225000Y-80580000D02*
X113875000Y-80580000D01*
X113875000Y-80180000D01*
X115225000Y-80180000D01*
X115225000Y-80580000D01*
X115225000Y-80580000D01*
G37*
G36*
X121075000Y-80580000D02*
X119725000Y-80580000D01*
X119725000Y-80180000D01*
X121075000Y-80180000D01*
X121075000Y-80580000D01*
X121075000Y-80580000D01*
G37*
G36*
X115225000Y-79930000D02*
X113875000Y-79930000D01*
X113875000Y-79530000D01*
X115225000Y-79530000D01*
X115225000Y-79930000D01*
X115225000Y-79930000D01*
G37*
G36*
X121075000Y-79930000D02*
X119725000Y-79930000D01*
X119725000Y-79530000D01*
X121075000Y-79530000D01*
X121075000Y-79930000D01*
X121075000Y-79930000D01*
G37*
G36*
X121075000Y-79280000D02*
X119725000Y-79280000D01*
X119725000Y-78880000D01*
X121075000Y-78880000D01*
X121075000Y-79280000D01*
X121075000Y-79280000D01*
G37*
G36*
X115225000Y-79280000D02*
X113875000Y-79280000D01*
X113875000Y-78880000D01*
X115225000Y-78880000D01*
X115225000Y-79280000D01*
X115225000Y-79280000D01*
G37*
G36*
X121075000Y-78630000D02*
X119725000Y-78630000D01*
X119725000Y-78230000D01*
X121075000Y-78230000D01*
X121075000Y-78630000D01*
X121075000Y-78630000D01*
G37*
G36*
X115225000Y-78630000D02*
X113875000Y-78630000D01*
X113875000Y-78230000D01*
X115225000Y-78230000D01*
X115225000Y-78630000D01*
X115225000Y-78630000D01*
G37*
G36*
X115225000Y-77980000D02*
X113875000Y-77980000D01*
X113875000Y-77580000D01*
X115225000Y-77580000D01*
X115225000Y-77980000D01*
X115225000Y-77980000D01*
G37*
G36*
X121075000Y-77980000D02*
X119725000Y-77980000D01*
X119725000Y-77580000D01*
X121075000Y-77580000D01*
X121075000Y-77980000D01*
X121075000Y-77980000D01*
G37*
G36*
X89824620Y-74444776D02*
X90053625Y-74490328D01*
X90377197Y-74624355D01*
X90668410Y-74818938D01*
X90916062Y-75066590D01*
X91110645Y-75357803D01*
X91244672Y-75681375D01*
X91313000Y-76024883D01*
X91313000Y-76375117D01*
X91244672Y-76718625D01*
X91110645Y-77042197D01*
X90980923Y-77236339D01*
X90918341Y-77330000D01*
X90916062Y-77333410D01*
X90668410Y-77581062D01*
X90377197Y-77775645D01*
X90053625Y-77909672D01*
X89824620Y-77955224D01*
X89710118Y-77978000D01*
X89359882Y-77978000D01*
X89245380Y-77955224D01*
X89016375Y-77909672D01*
X88692803Y-77775645D01*
X88401590Y-77581062D01*
X88153938Y-77333410D01*
X88151660Y-77330000D01*
X88089077Y-77236339D01*
X87959355Y-77042197D01*
X87825328Y-76718625D01*
X87757000Y-76375117D01*
X87757000Y-76024883D01*
X87825328Y-75681375D01*
X87959355Y-75357803D01*
X88153938Y-75066590D01*
X88401590Y-74818938D01*
X88692803Y-74624355D01*
X89016375Y-74490328D01*
X89245380Y-74444776D01*
X89359882Y-74422000D01*
X89710118Y-74422000D01*
X89824620Y-74444776D01*
X89824620Y-74444776D01*
G37*
G36*
X115225000Y-77330000D02*
X113875000Y-77330000D01*
X113875000Y-76930000D01*
X115225000Y-76930000D01*
X115225000Y-77330000D01*
X115225000Y-77330000D01*
G37*
G36*
X121075000Y-77330000D02*
X119725000Y-77330000D01*
X119725000Y-76930000D01*
X121075000Y-76930000D01*
X121075000Y-77330000D01*
X121075000Y-77330000D01*
G37*
G36*
X121075000Y-76680000D02*
X119725000Y-76680000D01*
X119725000Y-76280000D01*
X121075000Y-76280000D01*
X121075000Y-76680000D01*
X121075000Y-76680000D01*
G37*
G36*
X115225000Y-76680000D02*
X113875000Y-76680000D01*
X113875000Y-76280000D01*
X115225000Y-76280000D01*
X115225000Y-76680000D01*
X115225000Y-76680000D01*
G37*
G36*
X121075000Y-76030000D02*
X119725000Y-76030000D01*
X119725000Y-75630000D01*
X121075000Y-75630000D01*
X121075000Y-76030000D01*
X121075000Y-76030000D01*
G37*
G36*
X115225000Y-76030000D02*
X113875000Y-76030000D01*
X113875000Y-75630000D01*
X115225000Y-75630000D01*
X115225000Y-76030000D01*
X115225000Y-76030000D01*
G37*
G36*
X121075000Y-75380000D02*
X119725000Y-75380000D01*
X119725000Y-74980000D01*
X121075000Y-74980000D01*
X121075000Y-75380000D01*
X121075000Y-75380000D01*
G37*
G36*
X115225000Y-75380000D02*
X113875000Y-75380000D01*
X113875000Y-74980000D01*
X115225000Y-74980000D01*
X115225000Y-75380000D01*
X115225000Y-75380000D01*
G37*
G36*
X115225000Y-74730000D02*
X113875000Y-74730000D01*
X113875000Y-74330000D01*
X115225000Y-74330000D01*
X115225000Y-74730000D01*
X115225000Y-74730000D01*
G37*
G36*
X121075000Y-74730000D02*
X119725000Y-74730000D01*
X119725000Y-74330000D01*
X121075000Y-74330000D01*
X121075000Y-74730000D01*
X121075000Y-74730000D01*
G37*
G36*
X121075000Y-74080000D02*
X119725000Y-74080000D01*
X119725000Y-73680000D01*
X121075000Y-73680000D01*
X121075000Y-74080000D01*
X121075000Y-74080000D01*
G37*
G36*
X115225000Y-74080000D02*
X113875000Y-74080000D01*
X113875000Y-73680000D01*
X115225000Y-73680000D01*
X115225000Y-74080000D01*
X115225000Y-74080000D01*
G37*
G36*
X130464620Y-69364776D02*
X130693625Y-69410328D01*
X131017197Y-69544355D01*
X131211339Y-69674077D01*
X131308409Y-69738937D01*
X131556063Y-69986591D01*
X131620923Y-70083661D01*
X131750645Y-70277803D01*
X131884672Y-70601375D01*
X131953000Y-70944883D01*
X131953000Y-71295117D01*
X131884672Y-71638625D01*
X131750645Y-71962197D01*
X131644115Y-72121630D01*
X131566704Y-72237484D01*
X131556062Y-72253410D01*
X131308410Y-72501062D01*
X131017197Y-72695645D01*
X130693625Y-72829672D01*
X130464620Y-72875224D01*
X130350118Y-72898000D01*
X129999882Y-72898000D01*
X129885380Y-72875224D01*
X129656375Y-72829672D01*
X129332803Y-72695645D01*
X129041590Y-72501062D01*
X128793938Y-72253410D01*
X128783297Y-72237484D01*
X128705885Y-72121630D01*
X128599355Y-71962197D01*
X128465328Y-71638625D01*
X128397000Y-71295117D01*
X128397000Y-70944883D01*
X128465328Y-70601375D01*
X128599355Y-70277803D01*
X128729077Y-70083661D01*
X128793937Y-69986591D01*
X129041591Y-69738937D01*
X129138661Y-69674077D01*
X129332803Y-69544355D01*
X129656375Y-69410328D01*
X129885380Y-69364776D01*
X129999882Y-69342000D01*
X130350118Y-69342000D01*
X130464620Y-69364776D01*
X130464620Y-69364776D01*
G37*
G36*
X113846739Y-69863414D02*
X114021501Y-69916427D01*
X114182563Y-70002516D01*
X114323730Y-70118370D01*
X114439584Y-70259537D01*
X114525673Y-70420598D01*
X114578686Y-70595360D01*
X114592100Y-70731556D01*
X114592100Y-71508443D01*
X114578686Y-71644639D01*
X114525673Y-71819402D01*
X114439584Y-71980463D01*
X114323730Y-72121630D01*
X114182563Y-72237484D01*
X114021502Y-72323573D01*
X113846740Y-72376586D01*
X113665000Y-72394486D01*
X113483261Y-72376586D01*
X113308499Y-72323573D01*
X113147438Y-72237484D01*
X113006271Y-72121630D01*
X112890417Y-71980463D01*
X112804329Y-71819403D01*
X112784719Y-71754760D01*
X112751315Y-71644643D01*
X112751315Y-71644640D01*
X112751314Y-71644638D01*
X112737900Y-71508444D01*
X112737900Y-70731557D01*
X112751314Y-70595361D01*
X112804327Y-70420599D01*
X112890416Y-70259537D01*
X113006270Y-70118370D01*
X113147437Y-70002516D01*
X113308498Y-69916427D01*
X113483260Y-69863414D01*
X113665000Y-69845514D01*
X113846739Y-69863414D01*
X113846739Y-69863414D01*
G37*
G36*
X96066739Y-69863414D02*
X96241501Y-69916427D01*
X96402563Y-70002516D01*
X96543730Y-70118370D01*
X96659584Y-70259537D01*
X96745673Y-70420598D01*
X96798686Y-70595360D01*
X96812100Y-70731556D01*
X96812100Y-71508443D01*
X96798686Y-71644639D01*
X96745673Y-71819402D01*
X96659584Y-71980463D01*
X96543730Y-72121630D01*
X96402563Y-72237484D01*
X96241502Y-72323573D01*
X96066740Y-72376586D01*
X95885000Y-72394486D01*
X95703261Y-72376586D01*
X95528499Y-72323573D01*
X95367438Y-72237484D01*
X95226271Y-72121630D01*
X95110417Y-71980463D01*
X95024329Y-71819403D01*
X95004719Y-71754760D01*
X94971315Y-71644643D01*
X94971315Y-71644640D01*
X94971314Y-71644638D01*
X94957900Y-71508444D01*
X94957900Y-70731557D01*
X94971314Y-70595361D01*
X95024327Y-70420599D01*
X95110416Y-70259537D01*
X95226270Y-70118370D01*
X95367437Y-70002516D01*
X95528498Y-69916427D01*
X95703260Y-69863414D01*
X95885000Y-69845514D01*
X96066739Y-69863414D01*
X96066739Y-69863414D01*
G37*
G36*
X98606739Y-69863414D02*
X98781501Y-69916427D01*
X98942563Y-70002516D01*
X99083730Y-70118370D01*
X99199584Y-70259537D01*
X99285673Y-70420598D01*
X99338686Y-70595360D01*
X99352100Y-70731556D01*
X99352100Y-71508443D01*
X99338686Y-71644639D01*
X99285673Y-71819402D01*
X99199584Y-71980463D01*
X99083730Y-72121630D01*
X98942563Y-72237484D01*
X98781502Y-72323573D01*
X98606740Y-72376586D01*
X98425000Y-72394486D01*
X98243261Y-72376586D01*
X98068499Y-72323573D01*
X97907438Y-72237484D01*
X97766271Y-72121630D01*
X97650417Y-71980463D01*
X97564329Y-71819403D01*
X97544719Y-71754760D01*
X97511315Y-71644643D01*
X97511315Y-71644640D01*
X97511314Y-71644638D01*
X97497900Y-71508444D01*
X97497900Y-70731557D01*
X97511314Y-70595361D01*
X97564327Y-70420599D01*
X97650416Y-70259537D01*
X97766270Y-70118370D01*
X97907437Y-70002516D01*
X98068498Y-69916427D01*
X98243260Y-69863414D01*
X98425000Y-69845514D01*
X98606739Y-69863414D01*
X98606739Y-69863414D01*
G37*
G36*
X101146739Y-69863414D02*
X101321501Y-69916427D01*
X101482563Y-70002516D01*
X101623730Y-70118370D01*
X101739584Y-70259537D01*
X101825673Y-70420598D01*
X101878686Y-70595360D01*
X101892100Y-70731556D01*
X101892100Y-71508443D01*
X101878686Y-71644639D01*
X101825673Y-71819402D01*
X101739584Y-71980463D01*
X101623730Y-72121630D01*
X101482563Y-72237484D01*
X101321502Y-72323573D01*
X101146740Y-72376586D01*
X100965000Y-72394486D01*
X100783261Y-72376586D01*
X100608499Y-72323573D01*
X100447438Y-72237484D01*
X100306271Y-72121630D01*
X100190417Y-71980463D01*
X100104329Y-71819403D01*
X100084719Y-71754760D01*
X100051315Y-71644643D01*
X100051315Y-71644640D01*
X100051314Y-71644638D01*
X100037900Y-71508444D01*
X100037900Y-70731557D01*
X100051314Y-70595361D01*
X100104327Y-70420599D01*
X100190416Y-70259537D01*
X100306270Y-70118370D01*
X100447437Y-70002516D01*
X100608498Y-69916427D01*
X100783260Y-69863414D01*
X100965000Y-69845514D01*
X101146739Y-69863414D01*
X101146739Y-69863414D01*
G37*
G36*
X103686739Y-69863414D02*
X103861501Y-69916427D01*
X104022563Y-70002516D01*
X104163730Y-70118370D01*
X104279584Y-70259537D01*
X104365673Y-70420598D01*
X104418686Y-70595360D01*
X104432100Y-70731556D01*
X104432100Y-71508443D01*
X104418686Y-71644639D01*
X104365673Y-71819402D01*
X104279584Y-71980463D01*
X104163730Y-72121630D01*
X104022563Y-72237484D01*
X103861502Y-72323573D01*
X103686740Y-72376586D01*
X103505000Y-72394486D01*
X103323261Y-72376586D01*
X103148499Y-72323573D01*
X102987438Y-72237484D01*
X102846271Y-72121630D01*
X102730417Y-71980463D01*
X102644329Y-71819403D01*
X102624719Y-71754760D01*
X102591315Y-71644643D01*
X102591315Y-71644640D01*
X102591314Y-71644638D01*
X102577900Y-71508444D01*
X102577900Y-70731557D01*
X102591314Y-70595361D01*
X102644327Y-70420599D01*
X102730416Y-70259537D01*
X102846270Y-70118370D01*
X102987437Y-70002516D01*
X103148498Y-69916427D01*
X103323260Y-69863414D01*
X103505000Y-69845514D01*
X103686739Y-69863414D01*
X103686739Y-69863414D01*
G37*
G36*
X106226739Y-69863414D02*
X106401501Y-69916427D01*
X106562563Y-70002516D01*
X106703730Y-70118370D01*
X106819584Y-70259537D01*
X106905673Y-70420598D01*
X106958686Y-70595360D01*
X106972100Y-70731556D01*
X106972100Y-71508443D01*
X106958686Y-71644639D01*
X106905673Y-71819402D01*
X106819584Y-71980463D01*
X106703730Y-72121630D01*
X106562563Y-72237484D01*
X106401502Y-72323573D01*
X106226740Y-72376586D01*
X106045000Y-72394486D01*
X105863261Y-72376586D01*
X105688499Y-72323573D01*
X105527438Y-72237484D01*
X105386271Y-72121630D01*
X105270417Y-71980463D01*
X105184329Y-71819403D01*
X105164719Y-71754760D01*
X105131315Y-71644643D01*
X105131315Y-71644640D01*
X105131314Y-71644638D01*
X105117900Y-71508444D01*
X105117900Y-70731557D01*
X105131314Y-70595361D01*
X105184327Y-70420599D01*
X105270416Y-70259537D01*
X105386270Y-70118370D01*
X105527437Y-70002516D01*
X105688498Y-69916427D01*
X105863260Y-69863414D01*
X106045000Y-69845514D01*
X106226739Y-69863414D01*
X106226739Y-69863414D01*
G37*
G36*
X90986739Y-69863414D02*
X91161501Y-69916427D01*
X91322563Y-70002516D01*
X91463730Y-70118370D01*
X91579584Y-70259537D01*
X91665673Y-70420598D01*
X91718686Y-70595360D01*
X91732100Y-70731556D01*
X91732100Y-71508443D01*
X91718686Y-71644639D01*
X91665673Y-71819402D01*
X91579584Y-71980463D01*
X91463730Y-72121630D01*
X91322563Y-72237484D01*
X91161502Y-72323573D01*
X90986740Y-72376586D01*
X90805000Y-72394486D01*
X90623261Y-72376586D01*
X90448499Y-72323573D01*
X90287438Y-72237484D01*
X90146271Y-72121630D01*
X90030417Y-71980463D01*
X89944329Y-71819403D01*
X89924719Y-71754760D01*
X89891315Y-71644643D01*
X89891315Y-71644640D01*
X89891314Y-71644638D01*
X89877900Y-71508444D01*
X89877900Y-70731557D01*
X89891314Y-70595361D01*
X89944327Y-70420599D01*
X90030416Y-70259537D01*
X90146270Y-70118370D01*
X90287437Y-70002516D01*
X90448498Y-69916427D01*
X90623260Y-69863414D01*
X90805000Y-69845514D01*
X90986739Y-69863414D01*
X90986739Y-69863414D01*
G37*
G36*
X111306739Y-69863414D02*
X111481501Y-69916427D01*
X111642563Y-70002516D01*
X111783730Y-70118370D01*
X111899584Y-70259537D01*
X111985673Y-70420598D01*
X112038686Y-70595360D01*
X112052100Y-70731556D01*
X112052100Y-71508443D01*
X112038686Y-71644639D01*
X111985673Y-71819402D01*
X111899584Y-71980463D01*
X111783730Y-72121630D01*
X111642563Y-72237484D01*
X111481502Y-72323573D01*
X111306740Y-72376586D01*
X111125000Y-72394486D01*
X110943261Y-72376586D01*
X110768499Y-72323573D01*
X110607438Y-72237484D01*
X110466271Y-72121630D01*
X110350417Y-71980463D01*
X110264329Y-71819403D01*
X110244719Y-71754760D01*
X110211315Y-71644643D01*
X110211315Y-71644640D01*
X110211314Y-71644638D01*
X110197900Y-71508444D01*
X110197900Y-70731557D01*
X110211314Y-70595361D01*
X110264327Y-70420599D01*
X110350416Y-70259537D01*
X110466270Y-70118370D01*
X110607437Y-70002516D01*
X110768498Y-69916427D01*
X110943260Y-69863414D01*
X111125000Y-69845514D01*
X111306739Y-69863414D01*
X111306739Y-69863414D01*
G37*
G36*
X116386739Y-69863414D02*
X116561501Y-69916427D01*
X116722563Y-70002516D01*
X116863730Y-70118370D01*
X116979584Y-70259537D01*
X117065673Y-70420598D01*
X117118686Y-70595360D01*
X117132100Y-70731556D01*
X117132100Y-71508443D01*
X117118686Y-71644639D01*
X117065673Y-71819402D01*
X116979584Y-71980463D01*
X116863730Y-72121630D01*
X116722563Y-72237484D01*
X116561502Y-72323573D01*
X116386740Y-72376586D01*
X116205000Y-72394486D01*
X116023261Y-72376586D01*
X115848499Y-72323573D01*
X115687438Y-72237484D01*
X115546271Y-72121630D01*
X115430417Y-71980463D01*
X115344329Y-71819403D01*
X115324719Y-71754760D01*
X115291315Y-71644643D01*
X115291315Y-71644640D01*
X115291314Y-71644638D01*
X115277900Y-71508444D01*
X115277900Y-70731557D01*
X115291314Y-70595361D01*
X115344327Y-70420599D01*
X115430416Y-70259537D01*
X115546270Y-70118370D01*
X115687437Y-70002516D01*
X115848498Y-69916427D01*
X116023260Y-69863414D01*
X116205000Y-69845514D01*
X116386739Y-69863414D01*
X116386739Y-69863414D01*
G37*
G36*
X118926739Y-69863414D02*
X119101501Y-69916427D01*
X119262563Y-70002516D01*
X119403730Y-70118370D01*
X119519584Y-70259537D01*
X119605673Y-70420598D01*
X119658686Y-70595360D01*
X119672100Y-70731556D01*
X119672100Y-71508443D01*
X119658686Y-71644639D01*
X119605673Y-71819402D01*
X119519584Y-71980463D01*
X119403730Y-72121630D01*
X119262563Y-72237484D01*
X119101502Y-72323573D01*
X118926740Y-72376586D01*
X118745000Y-72394486D01*
X118563261Y-72376586D01*
X118388499Y-72323573D01*
X118227438Y-72237484D01*
X118086271Y-72121630D01*
X117970417Y-71980463D01*
X117884329Y-71819403D01*
X117864719Y-71754760D01*
X117831315Y-71644643D01*
X117831315Y-71644640D01*
X117831314Y-71644638D01*
X117817900Y-71508444D01*
X117817900Y-70731557D01*
X117831314Y-70595361D01*
X117884327Y-70420599D01*
X117970416Y-70259537D01*
X118086270Y-70118370D01*
X118227437Y-70002516D01*
X118388498Y-69916427D01*
X118563260Y-69863414D01*
X118745000Y-69845514D01*
X118926739Y-69863414D01*
X118926739Y-69863414D01*
G37*
G36*
X121466739Y-69863414D02*
X121641501Y-69916427D01*
X121802563Y-70002516D01*
X121943730Y-70118370D01*
X122059584Y-70259537D01*
X122145673Y-70420598D01*
X122198686Y-70595360D01*
X122212100Y-70731556D01*
X122212100Y-71508443D01*
X122198686Y-71644639D01*
X122145673Y-71819402D01*
X122059584Y-71980463D01*
X121943730Y-72121630D01*
X121802563Y-72237484D01*
X121641502Y-72323573D01*
X121466740Y-72376586D01*
X121285000Y-72394486D01*
X121103261Y-72376586D01*
X120928499Y-72323573D01*
X120767438Y-72237484D01*
X120626271Y-72121630D01*
X120510417Y-71980463D01*
X120424329Y-71819403D01*
X120404719Y-71754760D01*
X120371315Y-71644643D01*
X120371315Y-71644640D01*
X120371314Y-71644638D01*
X120357900Y-71508444D01*
X120357900Y-70731557D01*
X120371314Y-70595361D01*
X120424327Y-70420599D01*
X120510416Y-70259537D01*
X120626270Y-70118370D01*
X120767437Y-70002516D01*
X120928498Y-69916427D01*
X121103260Y-69863414D01*
X121285000Y-69845514D01*
X121466739Y-69863414D01*
X121466739Y-69863414D01*
G37*
G36*
X124006739Y-69863414D02*
X124181501Y-69916427D01*
X124342563Y-70002516D01*
X124483730Y-70118370D01*
X124599584Y-70259537D01*
X124685673Y-70420598D01*
X124738686Y-70595360D01*
X124752100Y-70731556D01*
X124752100Y-71508443D01*
X124738686Y-71644639D01*
X124685673Y-71819402D01*
X124599584Y-71980463D01*
X124483730Y-72121630D01*
X124342563Y-72237484D01*
X124181502Y-72323573D01*
X124006740Y-72376586D01*
X123825000Y-72394486D01*
X123643261Y-72376586D01*
X123468499Y-72323573D01*
X123307438Y-72237484D01*
X123166271Y-72121630D01*
X123050417Y-71980463D01*
X122964329Y-71819403D01*
X122944719Y-71754760D01*
X122911315Y-71644643D01*
X122911315Y-71644640D01*
X122911314Y-71644638D01*
X122897900Y-71508444D01*
X122897900Y-70731557D01*
X122911314Y-70595361D01*
X122964327Y-70420599D01*
X123050416Y-70259537D01*
X123166270Y-70118370D01*
X123307437Y-70002516D01*
X123468498Y-69916427D01*
X123643260Y-69863414D01*
X123825000Y-69845514D01*
X124006739Y-69863414D01*
X124006739Y-69863414D01*
G37*
G36*
X126546739Y-69863414D02*
X126721501Y-69916427D01*
X126882563Y-70002516D01*
X127023730Y-70118370D01*
X127139584Y-70259537D01*
X127225673Y-70420598D01*
X127278686Y-70595360D01*
X127292100Y-70731556D01*
X127292100Y-71508443D01*
X127278686Y-71644639D01*
X127225673Y-71819402D01*
X127139584Y-71980463D01*
X127023730Y-72121630D01*
X126882563Y-72237484D01*
X126721502Y-72323573D01*
X126546740Y-72376586D01*
X126365000Y-72394486D01*
X126183261Y-72376586D01*
X126008499Y-72323573D01*
X125847438Y-72237484D01*
X125706271Y-72121630D01*
X125590417Y-71980463D01*
X125504329Y-71819403D01*
X125484719Y-71754760D01*
X125451315Y-71644643D01*
X125451315Y-71644640D01*
X125451314Y-71644638D01*
X125437900Y-71508444D01*
X125437900Y-70731557D01*
X125451314Y-70595361D01*
X125504327Y-70420599D01*
X125590416Y-70259537D01*
X125706270Y-70118370D01*
X125847437Y-70002516D01*
X126008498Y-69916427D01*
X126183260Y-69863414D01*
X126365000Y-69845514D01*
X126546739Y-69863414D01*
X126546739Y-69863414D01*
G37*
G36*
X93526739Y-69863414D02*
X93701501Y-69916427D01*
X93862563Y-70002516D01*
X94003730Y-70118370D01*
X94119584Y-70259537D01*
X94205673Y-70420598D01*
X94258686Y-70595360D01*
X94272100Y-70731556D01*
X94272100Y-71508443D01*
X94258686Y-71644639D01*
X94205673Y-71819402D01*
X94119584Y-71980463D01*
X94003730Y-72121630D01*
X93862563Y-72237484D01*
X93701502Y-72323573D01*
X93526740Y-72376586D01*
X93345000Y-72394486D01*
X93163261Y-72376586D01*
X92988499Y-72323573D01*
X92827438Y-72237484D01*
X92686271Y-72121630D01*
X92570417Y-71980463D01*
X92484329Y-71819403D01*
X92464719Y-71754760D01*
X92431315Y-71644643D01*
X92431315Y-71644640D01*
X92431314Y-71644638D01*
X92417900Y-71508444D01*
X92417900Y-70731557D01*
X92431314Y-70595361D01*
X92484327Y-70420599D01*
X92570416Y-70259537D01*
X92686270Y-70118370D01*
X92827437Y-70002516D01*
X92988498Y-69916427D01*
X93163260Y-69863414D01*
X93345000Y-69845514D01*
X93526739Y-69863414D01*
X93526739Y-69863414D01*
G37*
G36*
X108766739Y-69863414D02*
X108941501Y-69916427D01*
X109102563Y-70002516D01*
X109243730Y-70118370D01*
X109359584Y-70259537D01*
X109445673Y-70420598D01*
X109498686Y-70595360D01*
X109512100Y-70731556D01*
X109512100Y-71508443D01*
X109498686Y-71644639D01*
X109445673Y-71819402D01*
X109359584Y-71980463D01*
X109243730Y-72121630D01*
X109102563Y-72237484D01*
X108941502Y-72323573D01*
X108766740Y-72376586D01*
X108585000Y-72394486D01*
X108403261Y-72376586D01*
X108228499Y-72323573D01*
X108067438Y-72237484D01*
X107926271Y-72121630D01*
X107810417Y-71980463D01*
X107724329Y-71819403D01*
X107704719Y-71754760D01*
X107671315Y-71644643D01*
X107671315Y-71644640D01*
X107671314Y-71644638D01*
X107657900Y-71508444D01*
X107657900Y-70731557D01*
X107671314Y-70595361D01*
X107724327Y-70420599D01*
X107810416Y-70259537D01*
X107926270Y-70118370D01*
X108067437Y-70002516D01*
X108228498Y-69916427D01*
X108403260Y-69863414D01*
X108585000Y-69845514D01*
X108766739Y-69863414D01*
X108766739Y-69863414D01*
G37*
G36*
X89192100Y-72390000D02*
X87337900Y-72390000D01*
X87337900Y-69850000D01*
X89192100Y-69850000D01*
X89192100Y-72390000D01*
X89192100Y-72390000D01*
G37*
M02*
