G04 #@! TF.GenerationSoftware,KiCad,Pcbnew,6.0.0-rc1-unknown-4d73cfb~66~ubuntu18.04.1*
G04 #@! TF.CreationDate,2018-11-28T14:14:14-05:00
G04 #@! TF.ProjectId,servo_controller_3x2,73657276-6f5f-4636-9f6e-74726f6c6c65,1.0*
G04 #@! TF.SameCoordinates,Original*
G04 #@! TF.FileFunction,Legend,Top*
G04 #@! TF.FilePolarity,Positive*
%FSLAX46Y46*%
G04 Gerber Fmt 4.6, Leading zero omitted, Abs format (unit mm)*
G04 Created by KiCad (PCBNEW 6.0.0-rc1-unknown-4d73cfb~66~ubuntu18.04.1) date Wed 28 Nov 2018 02:14:14 PM EST*
%MOMM*%
%LPD*%
G01*
G04 APERTURE LIST*
%ADD10C,0.508000*%
%ADD11C,0.254000*%
%ADD12C,0.228600*%
%ADD13C,0.190500*%
%ADD14C,0.381000*%
%ADD15C,0.250000*%
%ADD16C,0.375000*%
%ADD17C,3.556000*%
%ADD18O,1.854200X2.540000*%
%ADD19R,1.854200X2.540000*%
%ADD20O,1.524000X2.032000*%
%ADD21R,1.524000X2.032000*%
%ADD22R,4.100000X2.000000*%
%ADD23O,2.032000X1.524000*%
%ADD24C,1.930400*%
%ADD25O,4.572000X3.556000*%
%ADD26O,4.064000X5.080000*%
%ADD27O,5.080000X3.556000*%
G04 APERTURE END LIST*
D10*
X152012952Y-99217238D02*
X151045333Y-99217238D01*
X150948571Y-100184857D01*
X151045333Y-100088095D01*
X151238857Y-99991333D01*
X151722666Y-99991333D01*
X151916190Y-100088095D01*
X152012952Y-100184857D01*
X152109714Y-100378380D01*
X152109714Y-100862190D01*
X152012952Y-101055714D01*
X151916190Y-101152476D01*
X151722666Y-101249238D01*
X151238857Y-101249238D01*
X151045333Y-101152476D01*
X150948571Y-101055714D01*
X152690285Y-99217238D02*
X153367619Y-101249238D01*
X154044952Y-99217238D01*
D11*
X149763238Y-95806380D02*
X149811619Y-95758000D01*
X149908380Y-95709619D01*
X150150285Y-95709619D01*
X150247047Y-95758000D01*
X150295428Y-95806380D01*
X150343809Y-95903142D01*
X150343809Y-95999904D01*
X150295428Y-96145047D01*
X149714857Y-96725619D01*
X150343809Y-96725619D01*
X150779238Y-96628857D02*
X150827619Y-96677238D01*
X150779238Y-96725619D01*
X150730857Y-96677238D01*
X150779238Y-96628857D01*
X150779238Y-96725619D01*
X151795238Y-96725619D02*
X151214666Y-96725619D01*
X151504952Y-96725619D02*
X151504952Y-95709619D01*
X151408190Y-95854761D01*
X151311428Y-95951523D01*
X151214666Y-95999904D01*
X152133904Y-96725619D02*
X152666095Y-96048285D01*
X152133904Y-96048285D02*
X152666095Y-96725619D01*
X153536952Y-95709619D02*
X153053142Y-95709619D01*
X153004761Y-96193428D01*
X153053142Y-96145047D01*
X153149904Y-96096666D01*
X153391809Y-96096666D01*
X153488571Y-96145047D01*
X153536952Y-96193428D01*
X153585333Y-96290190D01*
X153585333Y-96532095D01*
X153536952Y-96628857D01*
X153488571Y-96677238D01*
X153391809Y-96725619D01*
X153149904Y-96725619D01*
X153053142Y-96677238D01*
X153004761Y-96628857D01*
X154020761Y-96628857D02*
X154069142Y-96677238D01*
X154020761Y-96725619D01*
X153972380Y-96677238D01*
X154020761Y-96628857D01*
X154020761Y-96725619D01*
X154988380Y-95709619D02*
X154504571Y-95709619D01*
X154456190Y-96193428D01*
X154504571Y-96145047D01*
X154601333Y-96096666D01*
X154843238Y-96096666D01*
X154940000Y-96145047D01*
X154988380Y-96193428D01*
X155036761Y-96290190D01*
X155036761Y-96532095D01*
X154988380Y-96628857D01*
X154940000Y-96677238D01*
X154843238Y-96725619D01*
X154601333Y-96725619D01*
X154504571Y-96677238D01*
X154456190Y-96628857D01*
X149763238Y-98406857D02*
X149714857Y-98455238D01*
X149569714Y-98503619D01*
X149472952Y-98503619D01*
X149327809Y-98455238D01*
X149231047Y-98358476D01*
X149182666Y-98261714D01*
X149134285Y-98068190D01*
X149134285Y-97923047D01*
X149182666Y-97729523D01*
X149231047Y-97632761D01*
X149327809Y-97536000D01*
X149472952Y-97487619D01*
X149569714Y-97487619D01*
X149714857Y-97536000D01*
X149763238Y-97584380D01*
X150585714Y-98455238D02*
X150488952Y-98503619D01*
X150295428Y-98503619D01*
X150198666Y-98455238D01*
X150150285Y-98358476D01*
X150150285Y-97971428D01*
X150198666Y-97874666D01*
X150295428Y-97826285D01*
X150488952Y-97826285D01*
X150585714Y-97874666D01*
X150634095Y-97971428D01*
X150634095Y-98068190D01*
X150150285Y-98164952D01*
X151069523Y-97826285D02*
X151069523Y-98503619D01*
X151069523Y-97923047D02*
X151117904Y-97874666D01*
X151214666Y-97826285D01*
X151359809Y-97826285D01*
X151456571Y-97874666D01*
X151504952Y-97971428D01*
X151504952Y-98503619D01*
X151843619Y-97826285D02*
X152230666Y-97826285D01*
X151988761Y-97487619D02*
X151988761Y-98358476D01*
X152037142Y-98455238D01*
X152133904Y-98503619D01*
X152230666Y-98503619D01*
X152956380Y-98455238D02*
X152859619Y-98503619D01*
X152666095Y-98503619D01*
X152569333Y-98455238D01*
X152520952Y-98358476D01*
X152520952Y-97971428D01*
X152569333Y-97874666D01*
X152666095Y-97826285D01*
X152859619Y-97826285D01*
X152956380Y-97874666D01*
X153004761Y-97971428D01*
X153004761Y-98068190D01*
X152520952Y-98164952D01*
X153440190Y-98503619D02*
X153440190Y-97826285D01*
X153440190Y-98019809D02*
X153488571Y-97923047D01*
X153536952Y-97874666D01*
X153633714Y-97826285D01*
X153730476Y-97826285D01*
X154843238Y-98116571D02*
X155617333Y-98116571D01*
X155230285Y-98503619D02*
X155230285Y-97729523D01*
D12*
X156210000Y-67945000D02*
X85725000Y-67945000D01*
X156210000Y-109855000D02*
X156210000Y-67945000D01*
X85725000Y-109855000D02*
X156210000Y-109855000D01*
X85725000Y-67945000D02*
X85725000Y-109855000D01*
D13*
X92437857Y-104599619D02*
X92437857Y-103583619D01*
X92873285Y-104599619D02*
X92873285Y-104067428D01*
X92824904Y-103970666D01*
X92728142Y-103922285D01*
X92583000Y-103922285D01*
X92486238Y-103970666D01*
X92437857Y-104019047D01*
X93211952Y-103922285D02*
X93599000Y-103922285D01*
X93357095Y-103583619D02*
X93357095Y-104454476D01*
X93405476Y-104551238D01*
X93502238Y-104599619D01*
X93599000Y-104599619D01*
X93792523Y-103922285D02*
X94179571Y-103922285D01*
X93937666Y-103583619D02*
X93937666Y-104454476D01*
X93986047Y-104551238D01*
X94082809Y-104599619D01*
X94179571Y-104599619D01*
X94518238Y-103922285D02*
X94518238Y-104938285D01*
X94518238Y-103970666D02*
X94615000Y-103922285D01*
X94808523Y-103922285D01*
X94905285Y-103970666D01*
X94953666Y-104019047D01*
X95002047Y-104115809D01*
X95002047Y-104406095D01*
X94953666Y-104502857D01*
X94905285Y-104551238D01*
X94808523Y-104599619D01*
X94615000Y-104599619D01*
X94518238Y-104551238D01*
X95389095Y-104551238D02*
X95485857Y-104599619D01*
X95679380Y-104599619D01*
X95776142Y-104551238D01*
X95824523Y-104454476D01*
X95824523Y-104406095D01*
X95776142Y-104309333D01*
X95679380Y-104260952D01*
X95534238Y-104260952D01*
X95437476Y-104212571D01*
X95389095Y-104115809D01*
X95389095Y-104067428D01*
X95437476Y-103970666D01*
X95534238Y-103922285D01*
X95679380Y-103922285D01*
X95776142Y-103970666D01*
X96259952Y-104502857D02*
X96308333Y-104551238D01*
X96259952Y-104599619D01*
X96211571Y-104551238D01*
X96259952Y-104502857D01*
X96259952Y-104599619D01*
X96259952Y-103970666D02*
X96308333Y-104019047D01*
X96259952Y-104067428D01*
X96211571Y-104019047D01*
X96259952Y-103970666D01*
X96259952Y-104067428D01*
X97469476Y-103535238D02*
X96598619Y-104841523D01*
X98533857Y-103535238D02*
X97663000Y-104841523D01*
X99307952Y-103922285D02*
X99307952Y-104744761D01*
X99259571Y-104841523D01*
X99211190Y-104889904D01*
X99114428Y-104938285D01*
X98969285Y-104938285D01*
X98872523Y-104889904D01*
X99307952Y-104551238D02*
X99211190Y-104599619D01*
X99017666Y-104599619D01*
X98920904Y-104551238D01*
X98872523Y-104502857D01*
X98824142Y-104406095D01*
X98824142Y-104115809D01*
X98872523Y-104019047D01*
X98920904Y-103970666D01*
X99017666Y-103922285D01*
X99211190Y-103922285D01*
X99307952Y-103970666D01*
X99791761Y-104599619D02*
X99791761Y-103922285D01*
X99791761Y-103583619D02*
X99743380Y-103632000D01*
X99791761Y-103680380D01*
X99840142Y-103632000D01*
X99791761Y-103583619D01*
X99791761Y-103680380D01*
X100130428Y-103922285D02*
X100517476Y-103922285D01*
X100275571Y-103583619D02*
X100275571Y-104454476D01*
X100323952Y-104551238D01*
X100420714Y-104599619D01*
X100517476Y-104599619D01*
X100856142Y-104599619D02*
X100856142Y-103583619D01*
X101291571Y-104599619D02*
X101291571Y-104067428D01*
X101243190Y-103970666D01*
X101146428Y-103922285D01*
X101001285Y-103922285D01*
X100904523Y-103970666D01*
X100856142Y-104019047D01*
X102210809Y-103922285D02*
X102210809Y-104599619D01*
X101775380Y-103922285D02*
X101775380Y-104454476D01*
X101823761Y-104551238D01*
X101920523Y-104599619D01*
X102065666Y-104599619D01*
X102162428Y-104551238D01*
X102210809Y-104502857D01*
X102694619Y-104599619D02*
X102694619Y-103583619D01*
X102694619Y-103970666D02*
X102791380Y-103922285D01*
X102984904Y-103922285D01*
X103081666Y-103970666D01*
X103130047Y-104019047D01*
X103178428Y-104115809D01*
X103178428Y-104406095D01*
X103130047Y-104502857D01*
X103081666Y-104551238D01*
X102984904Y-104599619D01*
X102791380Y-104599619D01*
X102694619Y-104551238D01*
X103613857Y-104502857D02*
X103662238Y-104551238D01*
X103613857Y-104599619D01*
X103565476Y-104551238D01*
X103613857Y-104502857D01*
X103613857Y-104599619D01*
X104533095Y-104551238D02*
X104436333Y-104599619D01*
X104242809Y-104599619D01*
X104146047Y-104551238D01*
X104097666Y-104502857D01*
X104049285Y-104406095D01*
X104049285Y-104115809D01*
X104097666Y-104019047D01*
X104146047Y-103970666D01*
X104242809Y-103922285D01*
X104436333Y-103922285D01*
X104533095Y-103970666D01*
X105113666Y-104599619D02*
X105016904Y-104551238D01*
X104968523Y-104502857D01*
X104920142Y-104406095D01*
X104920142Y-104115809D01*
X104968523Y-104019047D01*
X105016904Y-103970666D01*
X105113666Y-103922285D01*
X105258809Y-103922285D01*
X105355571Y-103970666D01*
X105403952Y-104019047D01*
X105452333Y-104115809D01*
X105452333Y-104406095D01*
X105403952Y-104502857D01*
X105355571Y-104551238D01*
X105258809Y-104599619D01*
X105113666Y-104599619D01*
X105887761Y-104599619D02*
X105887761Y-103922285D01*
X105887761Y-104019047D02*
X105936142Y-103970666D01*
X106032904Y-103922285D01*
X106178047Y-103922285D01*
X106274809Y-103970666D01*
X106323190Y-104067428D01*
X106323190Y-104599619D01*
X106323190Y-104067428D02*
X106371571Y-103970666D01*
X106468333Y-103922285D01*
X106613476Y-103922285D01*
X106710238Y-103970666D01*
X106758619Y-104067428D01*
X106758619Y-104599619D01*
X107968142Y-103535238D02*
X107097285Y-104841523D01*
X108306809Y-103922285D02*
X108306809Y-104793142D01*
X108258428Y-104889904D01*
X108161666Y-104938285D01*
X108113285Y-104938285D01*
X108306809Y-103583619D02*
X108258428Y-103632000D01*
X108306809Y-103680380D01*
X108355190Y-103632000D01*
X108306809Y-103583619D01*
X108306809Y-103680380D01*
X109226047Y-104599619D02*
X109226047Y-104067428D01*
X109177666Y-103970666D01*
X109080904Y-103922285D01*
X108887380Y-103922285D01*
X108790619Y-103970666D01*
X109226047Y-104551238D02*
X109129285Y-104599619D01*
X108887380Y-104599619D01*
X108790619Y-104551238D01*
X108742238Y-104454476D01*
X108742238Y-104357714D01*
X108790619Y-104260952D01*
X108887380Y-104212571D01*
X109129285Y-104212571D01*
X109226047Y-104164190D01*
X109709857Y-103922285D02*
X109709857Y-104599619D01*
X109709857Y-104019047D02*
X109758238Y-103970666D01*
X109855000Y-103922285D01*
X110000142Y-103922285D01*
X110096904Y-103970666D01*
X110145285Y-104067428D01*
X110145285Y-104599619D01*
X111016142Y-104551238D02*
X110919380Y-104599619D01*
X110725857Y-104599619D01*
X110629095Y-104551238D01*
X110580714Y-104454476D01*
X110580714Y-104067428D01*
X110629095Y-103970666D01*
X110725857Y-103922285D01*
X110919380Y-103922285D01*
X111016142Y-103970666D01*
X111064523Y-104067428D01*
X111064523Y-104164190D01*
X110580714Y-104260952D01*
X111645095Y-104599619D02*
X111548333Y-104551238D01*
X111499952Y-104454476D01*
X111499952Y-103583619D01*
X112032142Y-104599619D02*
X112032142Y-103922285D01*
X112032142Y-103583619D02*
X111983761Y-103632000D01*
X112032142Y-103680380D01*
X112080523Y-103632000D01*
X112032142Y-103583619D01*
X112032142Y-103680380D01*
X112951380Y-104599619D02*
X112951380Y-104067428D01*
X112903000Y-103970666D01*
X112806238Y-103922285D01*
X112612714Y-103922285D01*
X112515952Y-103970666D01*
X112951380Y-104551238D02*
X112854619Y-104599619D01*
X112612714Y-104599619D01*
X112515952Y-104551238D01*
X112467571Y-104454476D01*
X112467571Y-104357714D01*
X112515952Y-104260952D01*
X112612714Y-104212571D01*
X112854619Y-104212571D01*
X112951380Y-104164190D01*
X113435190Y-104212571D02*
X114209285Y-104212571D01*
X114693095Y-104599619D02*
X114693095Y-103922285D01*
X114693095Y-104019047D02*
X114741476Y-103970666D01*
X114838238Y-103922285D01*
X114983380Y-103922285D01*
X115080142Y-103970666D01*
X115128523Y-104067428D01*
X115128523Y-104599619D01*
X115128523Y-104067428D02*
X115176904Y-103970666D01*
X115273666Y-103922285D01*
X115418809Y-103922285D01*
X115515571Y-103970666D01*
X115563952Y-104067428D01*
X115563952Y-104599619D01*
X116192904Y-104599619D02*
X116096142Y-104551238D01*
X116047761Y-104502857D01*
X115999380Y-104406095D01*
X115999380Y-104115809D01*
X116047761Y-104019047D01*
X116096142Y-103970666D01*
X116192904Y-103922285D01*
X116338047Y-103922285D01*
X116434809Y-103970666D01*
X116483190Y-104019047D01*
X116531571Y-104115809D01*
X116531571Y-104406095D01*
X116483190Y-104502857D01*
X116434809Y-104551238D01*
X116338047Y-104599619D01*
X116192904Y-104599619D01*
X117402428Y-104599619D02*
X117402428Y-103583619D01*
X117402428Y-104551238D02*
X117305666Y-104599619D01*
X117112142Y-104599619D01*
X117015380Y-104551238D01*
X116967000Y-104502857D01*
X116918619Y-104406095D01*
X116918619Y-104115809D01*
X116967000Y-104019047D01*
X117015380Y-103970666D01*
X117112142Y-103922285D01*
X117305666Y-103922285D01*
X117402428Y-103970666D01*
X118321666Y-103922285D02*
X118321666Y-104599619D01*
X117886238Y-103922285D02*
X117886238Y-104454476D01*
X117934619Y-104551238D01*
X118031380Y-104599619D01*
X118176523Y-104599619D01*
X118273285Y-104551238D01*
X118321666Y-104502857D01*
X118950619Y-104599619D02*
X118853857Y-104551238D01*
X118805476Y-104454476D01*
X118805476Y-103583619D01*
X119773095Y-104599619D02*
X119773095Y-104067428D01*
X119724714Y-103970666D01*
X119627952Y-103922285D01*
X119434428Y-103922285D01*
X119337666Y-103970666D01*
X119773095Y-104551238D02*
X119676333Y-104599619D01*
X119434428Y-104599619D01*
X119337666Y-104551238D01*
X119289285Y-104454476D01*
X119289285Y-104357714D01*
X119337666Y-104260952D01*
X119434428Y-104212571D01*
X119676333Y-104212571D01*
X119773095Y-104164190D01*
X120256904Y-104599619D02*
X120256904Y-103922285D01*
X120256904Y-104115809D02*
X120305285Y-104019047D01*
X120353666Y-103970666D01*
X120450428Y-103922285D01*
X120547190Y-103922285D01*
X120885857Y-104212571D02*
X121659952Y-104212571D01*
X122579190Y-104599619D02*
X122579190Y-103583619D01*
X122579190Y-104551238D02*
X122482428Y-104599619D01*
X122288904Y-104599619D01*
X122192142Y-104551238D01*
X122143761Y-104502857D01*
X122095380Y-104406095D01*
X122095380Y-104115809D01*
X122143761Y-104019047D01*
X122192142Y-103970666D01*
X122288904Y-103922285D01*
X122482428Y-103922285D01*
X122579190Y-103970666D01*
X123450047Y-104551238D02*
X123353285Y-104599619D01*
X123159761Y-104599619D01*
X123063000Y-104551238D01*
X123014619Y-104454476D01*
X123014619Y-104067428D01*
X123063000Y-103970666D01*
X123159761Y-103922285D01*
X123353285Y-103922285D01*
X123450047Y-103970666D01*
X123498428Y-104067428D01*
X123498428Y-104164190D01*
X123014619Y-104260952D01*
X123837095Y-103922285D02*
X124079000Y-104599619D01*
X124320904Y-103922285D01*
X124707952Y-104599619D02*
X124707952Y-103922285D01*
X124707952Y-103583619D02*
X124659571Y-103632000D01*
X124707952Y-103680380D01*
X124756333Y-103632000D01*
X124707952Y-103583619D01*
X124707952Y-103680380D01*
X125627190Y-104551238D02*
X125530428Y-104599619D01*
X125336904Y-104599619D01*
X125240142Y-104551238D01*
X125191761Y-104502857D01*
X125143380Y-104406095D01*
X125143380Y-104115809D01*
X125191761Y-104019047D01*
X125240142Y-103970666D01*
X125336904Y-103922285D01*
X125530428Y-103922285D01*
X125627190Y-103970666D01*
X126449666Y-104551238D02*
X126352904Y-104599619D01*
X126159380Y-104599619D01*
X126062619Y-104551238D01*
X126014238Y-104454476D01*
X126014238Y-104067428D01*
X126062619Y-103970666D01*
X126159380Y-103922285D01*
X126352904Y-103922285D01*
X126449666Y-103970666D01*
X126498047Y-104067428D01*
X126498047Y-104164190D01*
X126014238Y-104260952D01*
X126885095Y-104551238D02*
X126981857Y-104599619D01*
X127175380Y-104599619D01*
X127272142Y-104551238D01*
X127320523Y-104454476D01*
X127320523Y-104406095D01*
X127272142Y-104309333D01*
X127175380Y-104260952D01*
X127030238Y-104260952D01*
X126933476Y-104212571D01*
X126885095Y-104115809D01*
X126885095Y-104067428D01*
X126933476Y-103970666D01*
X127030238Y-103922285D01*
X127175380Y-103922285D01*
X127272142Y-103970666D01*
D11*
X86311619Y-97294095D02*
X87037333Y-97294095D01*
X87182476Y-97342476D01*
X87279238Y-97439238D01*
X87327619Y-97584380D01*
X87327619Y-97681142D01*
X87327619Y-96374857D02*
X86795428Y-96374857D01*
X86698666Y-96423238D01*
X86650285Y-96520000D01*
X86650285Y-96713523D01*
X86698666Y-96810285D01*
X87279238Y-96374857D02*
X87327619Y-96471619D01*
X87327619Y-96713523D01*
X87279238Y-96810285D01*
X87182476Y-96858666D01*
X87085714Y-96858666D01*
X86988952Y-96810285D01*
X86940571Y-96713523D01*
X86940571Y-96471619D01*
X86892190Y-96374857D01*
X86650285Y-95891047D02*
X87327619Y-95891047D01*
X86747047Y-95891047D02*
X86698666Y-95842666D01*
X86650285Y-95745904D01*
X86650285Y-95600761D01*
X86698666Y-95504000D01*
X86795428Y-95455619D01*
X87327619Y-95455619D01*
X87279238Y-94584761D02*
X87327619Y-94681523D01*
X87327619Y-94875047D01*
X87279238Y-94971809D01*
X87182476Y-95020190D01*
X86795428Y-95020190D01*
X86698666Y-94971809D01*
X86650285Y-94875047D01*
X86650285Y-94681523D01*
X86698666Y-94584761D01*
X86795428Y-94536380D01*
X86892190Y-94536380D01*
X86988952Y-95020190D01*
X87327619Y-93955809D02*
X87279238Y-94052571D01*
X87182476Y-94100952D01*
X86311619Y-94100952D01*
X87327619Y-93568761D02*
X86650285Y-93568761D01*
X86311619Y-93568761D02*
X86360000Y-93617142D01*
X86408380Y-93568761D01*
X86360000Y-93520380D01*
X86311619Y-93568761D01*
X86408380Y-93568761D01*
X87327619Y-92649523D02*
X86795428Y-92649523D01*
X86698666Y-92697904D01*
X86650285Y-92794666D01*
X86650285Y-92988190D01*
X86698666Y-93084952D01*
X87279238Y-92649523D02*
X87327619Y-92746285D01*
X87327619Y-92988190D01*
X87279238Y-93084952D01*
X87182476Y-93133333D01*
X87085714Y-93133333D01*
X86988952Y-93084952D01*
X86940571Y-92988190D01*
X86940571Y-92746285D01*
X86892190Y-92649523D01*
X87327619Y-91391619D02*
X86311619Y-91391619D01*
X87037333Y-91052952D01*
X86311619Y-90714285D01*
X87327619Y-90714285D01*
X87327619Y-90085333D02*
X87279238Y-90182095D01*
X87230857Y-90230476D01*
X87134095Y-90278857D01*
X86843809Y-90278857D01*
X86747047Y-90230476D01*
X86698666Y-90182095D01*
X86650285Y-90085333D01*
X86650285Y-89940190D01*
X86698666Y-89843428D01*
X86747047Y-89795047D01*
X86843809Y-89746666D01*
X87134095Y-89746666D01*
X87230857Y-89795047D01*
X87279238Y-89843428D01*
X87327619Y-89940190D01*
X87327619Y-90085333D01*
X87327619Y-88875809D02*
X86311619Y-88875809D01*
X87279238Y-88875809D02*
X87327619Y-88972571D01*
X87327619Y-89166095D01*
X87279238Y-89262857D01*
X87230857Y-89311238D01*
X87134095Y-89359619D01*
X86843809Y-89359619D01*
X86747047Y-89311238D01*
X86698666Y-89262857D01*
X86650285Y-89166095D01*
X86650285Y-88972571D01*
X86698666Y-88875809D01*
X86650285Y-87956571D02*
X87327619Y-87956571D01*
X86650285Y-88392000D02*
X87182476Y-88392000D01*
X87279238Y-88343619D01*
X87327619Y-88246857D01*
X87327619Y-88101714D01*
X87279238Y-88004952D01*
X87230857Y-87956571D01*
X87327619Y-87327619D02*
X87279238Y-87424380D01*
X87182476Y-87472761D01*
X86311619Y-87472761D01*
X87327619Y-86505142D02*
X86795428Y-86505142D01*
X86698666Y-86553523D01*
X86650285Y-86650285D01*
X86650285Y-86843809D01*
X86698666Y-86940571D01*
X87279238Y-86505142D02*
X87327619Y-86601904D01*
X87327619Y-86843809D01*
X87279238Y-86940571D01*
X87182476Y-86988952D01*
X87085714Y-86988952D01*
X86988952Y-86940571D01*
X86940571Y-86843809D01*
X86940571Y-86601904D01*
X86892190Y-86505142D01*
X87327619Y-86021333D02*
X86650285Y-86021333D01*
X86843809Y-86021333D02*
X86747047Y-85972952D01*
X86698666Y-85924571D01*
X86650285Y-85827809D01*
X86650285Y-85731047D01*
X87327619Y-84618285D02*
X86311619Y-84618285D01*
X86311619Y-84376380D01*
X86360000Y-84231238D01*
X86456761Y-84134476D01*
X86553523Y-84086095D01*
X86747047Y-84037714D01*
X86892190Y-84037714D01*
X87085714Y-84086095D01*
X87182476Y-84134476D01*
X87279238Y-84231238D01*
X87327619Y-84376380D01*
X87327619Y-84618285D01*
X87279238Y-83215238D02*
X87327619Y-83312000D01*
X87327619Y-83505523D01*
X87279238Y-83602285D01*
X87182476Y-83650666D01*
X86795428Y-83650666D01*
X86698666Y-83602285D01*
X86650285Y-83505523D01*
X86650285Y-83312000D01*
X86698666Y-83215238D01*
X86795428Y-83166857D01*
X86892190Y-83166857D01*
X86988952Y-83650666D01*
X86650285Y-82828190D02*
X87327619Y-82586285D01*
X86650285Y-82344380D01*
X87327619Y-81957333D02*
X86650285Y-81957333D01*
X86311619Y-81957333D02*
X86360000Y-82005714D01*
X86408380Y-81957333D01*
X86360000Y-81908952D01*
X86311619Y-81957333D01*
X86408380Y-81957333D01*
X87279238Y-81038095D02*
X87327619Y-81134857D01*
X87327619Y-81328380D01*
X87279238Y-81425142D01*
X87230857Y-81473523D01*
X87134095Y-81521904D01*
X86843809Y-81521904D01*
X86747047Y-81473523D01*
X86698666Y-81425142D01*
X86650285Y-81328380D01*
X86650285Y-81134857D01*
X86698666Y-81038095D01*
X87279238Y-80215619D02*
X87327619Y-80312380D01*
X87327619Y-80505904D01*
X87279238Y-80602666D01*
X87182476Y-80651047D01*
X86795428Y-80651047D01*
X86698666Y-80602666D01*
X86650285Y-80505904D01*
X86650285Y-80312380D01*
X86698666Y-80215619D01*
X86795428Y-80167238D01*
X86892190Y-80167238D01*
X86988952Y-80651047D01*
X89057238Y-94802476D02*
X89105619Y-94705714D01*
X89105619Y-94512190D01*
X89057238Y-94415428D01*
X88960476Y-94367047D01*
X88912095Y-94367047D01*
X88815333Y-94415428D01*
X88766952Y-94512190D01*
X88766952Y-94657333D01*
X88718571Y-94754095D01*
X88621809Y-94802476D01*
X88573428Y-94802476D01*
X88476666Y-94754095D01*
X88428285Y-94657333D01*
X88428285Y-94512190D01*
X88476666Y-94415428D01*
X89057238Y-93544571D02*
X89105619Y-93641333D01*
X89105619Y-93834857D01*
X89057238Y-93931619D01*
X88960476Y-93980000D01*
X88573428Y-93980000D01*
X88476666Y-93931619D01*
X88428285Y-93834857D01*
X88428285Y-93641333D01*
X88476666Y-93544571D01*
X88573428Y-93496190D01*
X88670190Y-93496190D01*
X88766952Y-93980000D01*
X89105619Y-93060761D02*
X88428285Y-93060761D01*
X88621809Y-93060761D02*
X88525047Y-93012380D01*
X88476666Y-92964000D01*
X88428285Y-92867238D01*
X88428285Y-92770476D01*
X88428285Y-92528571D02*
X89105619Y-92286666D01*
X88428285Y-92044761D01*
X89105619Y-91512571D02*
X89057238Y-91609333D01*
X89008857Y-91657714D01*
X88912095Y-91706095D01*
X88621809Y-91706095D01*
X88525047Y-91657714D01*
X88476666Y-91609333D01*
X88428285Y-91512571D01*
X88428285Y-91367428D01*
X88476666Y-91270666D01*
X88525047Y-91222285D01*
X88621809Y-91173904D01*
X88912095Y-91173904D01*
X89008857Y-91222285D01*
X89057238Y-91270666D01*
X89105619Y-91367428D01*
X89105619Y-91512571D01*
X89202380Y-90980380D02*
X89202380Y-90206285D01*
X89057238Y-89528952D02*
X89105619Y-89625714D01*
X89105619Y-89819238D01*
X89057238Y-89916000D01*
X89008857Y-89964380D01*
X88912095Y-90012761D01*
X88621809Y-90012761D01*
X88525047Y-89964380D01*
X88476666Y-89916000D01*
X88428285Y-89819238D01*
X88428285Y-89625714D01*
X88476666Y-89528952D01*
X89105619Y-88948380D02*
X89057238Y-89045142D01*
X89008857Y-89093523D01*
X88912095Y-89141904D01*
X88621809Y-89141904D01*
X88525047Y-89093523D01*
X88476666Y-89045142D01*
X88428285Y-88948380D01*
X88428285Y-88803238D01*
X88476666Y-88706476D01*
X88525047Y-88658095D01*
X88621809Y-88609714D01*
X88912095Y-88609714D01*
X89008857Y-88658095D01*
X89057238Y-88706476D01*
X89105619Y-88803238D01*
X89105619Y-88948380D01*
X88428285Y-88174285D02*
X89105619Y-88174285D01*
X88525047Y-88174285D02*
X88476666Y-88125904D01*
X88428285Y-88029142D01*
X88428285Y-87884000D01*
X88476666Y-87787238D01*
X88573428Y-87738857D01*
X89105619Y-87738857D01*
X88428285Y-87400190D02*
X88428285Y-87013142D01*
X88089619Y-87255047D02*
X88960476Y-87255047D01*
X89057238Y-87206666D01*
X89105619Y-87109904D01*
X89105619Y-87013142D01*
X89105619Y-86674476D02*
X88428285Y-86674476D01*
X88621809Y-86674476D02*
X88525047Y-86626095D01*
X88476666Y-86577714D01*
X88428285Y-86480952D01*
X88428285Y-86384190D01*
X89105619Y-85900380D02*
X89057238Y-85997142D01*
X89008857Y-86045523D01*
X88912095Y-86093904D01*
X88621809Y-86093904D01*
X88525047Y-86045523D01*
X88476666Y-85997142D01*
X88428285Y-85900380D01*
X88428285Y-85755238D01*
X88476666Y-85658476D01*
X88525047Y-85610095D01*
X88621809Y-85561714D01*
X88912095Y-85561714D01*
X89008857Y-85610095D01*
X89057238Y-85658476D01*
X89105619Y-85755238D01*
X89105619Y-85900380D01*
X89105619Y-84981142D02*
X89057238Y-85077904D01*
X88960476Y-85126285D01*
X88089619Y-85126285D01*
X89105619Y-84448952D02*
X89057238Y-84545714D01*
X88960476Y-84594095D01*
X88089619Y-84594095D01*
X89057238Y-83674857D02*
X89105619Y-83771619D01*
X89105619Y-83965142D01*
X89057238Y-84061904D01*
X88960476Y-84110285D01*
X88573428Y-84110285D01*
X88476666Y-84061904D01*
X88428285Y-83965142D01*
X88428285Y-83771619D01*
X88476666Y-83674857D01*
X88573428Y-83626476D01*
X88670190Y-83626476D01*
X88766952Y-84110285D01*
X89105619Y-83191047D02*
X88428285Y-83191047D01*
X88621809Y-83191047D02*
X88525047Y-83142666D01*
X88476666Y-83094285D01*
X88428285Y-82997523D01*
X88428285Y-82900761D01*
X90206285Y-95939428D02*
X91222285Y-95939428D01*
X90254666Y-95939428D02*
X90206285Y-95842666D01*
X90206285Y-95649142D01*
X90254666Y-95552380D01*
X90303047Y-95504000D01*
X90399809Y-95455619D01*
X90690095Y-95455619D01*
X90786857Y-95504000D01*
X90835238Y-95552380D01*
X90883619Y-95649142D01*
X90883619Y-95842666D01*
X90835238Y-95939428D01*
X90883619Y-94584761D02*
X90351428Y-94584761D01*
X90254666Y-94633142D01*
X90206285Y-94729904D01*
X90206285Y-94923428D01*
X90254666Y-95020190D01*
X90835238Y-94584761D02*
X90883619Y-94681523D01*
X90883619Y-94923428D01*
X90835238Y-95020190D01*
X90738476Y-95068571D01*
X90641714Y-95068571D01*
X90544952Y-95020190D01*
X90496571Y-94923428D01*
X90496571Y-94681523D01*
X90448190Y-94584761D01*
X90883619Y-94100952D02*
X90206285Y-94100952D01*
X90399809Y-94100952D02*
X90303047Y-94052571D01*
X90254666Y-94004190D01*
X90206285Y-93907428D01*
X90206285Y-93810666D01*
X90206285Y-93617142D02*
X90206285Y-93230095D01*
X89867619Y-93472000D02*
X90738476Y-93472000D01*
X90835238Y-93423619D01*
X90883619Y-93326857D01*
X90883619Y-93230095D01*
X90980380Y-93133333D02*
X90980380Y-92359238D01*
X90206285Y-92117333D02*
X90883619Y-92117333D01*
X90303047Y-92117333D02*
X90254666Y-92068952D01*
X90206285Y-91972190D01*
X90206285Y-91827047D01*
X90254666Y-91730285D01*
X90351428Y-91681904D01*
X90883619Y-91681904D01*
X90206285Y-90762666D02*
X90883619Y-90762666D01*
X90206285Y-91198095D02*
X90738476Y-91198095D01*
X90835238Y-91149714D01*
X90883619Y-91052952D01*
X90883619Y-90907809D01*
X90835238Y-90811047D01*
X90786857Y-90762666D01*
X90883619Y-90278857D02*
X90206285Y-90278857D01*
X90303047Y-90278857D02*
X90254666Y-90230476D01*
X90206285Y-90133714D01*
X90206285Y-89988571D01*
X90254666Y-89891809D01*
X90351428Y-89843428D01*
X90883619Y-89843428D01*
X90351428Y-89843428D02*
X90254666Y-89795047D01*
X90206285Y-89698285D01*
X90206285Y-89553142D01*
X90254666Y-89456380D01*
X90351428Y-89408000D01*
X90883619Y-89408000D01*
X90883619Y-88924190D02*
X89867619Y-88924190D01*
X90254666Y-88924190D02*
X90206285Y-88827428D01*
X90206285Y-88633904D01*
X90254666Y-88537142D01*
X90303047Y-88488761D01*
X90399809Y-88440380D01*
X90690095Y-88440380D01*
X90786857Y-88488761D01*
X90835238Y-88537142D01*
X90883619Y-88633904D01*
X90883619Y-88827428D01*
X90835238Y-88924190D01*
X90835238Y-87617904D02*
X90883619Y-87714666D01*
X90883619Y-87908190D01*
X90835238Y-88004952D01*
X90738476Y-88053333D01*
X90351428Y-88053333D01*
X90254666Y-88004952D01*
X90206285Y-87908190D01*
X90206285Y-87714666D01*
X90254666Y-87617904D01*
X90351428Y-87569523D01*
X90448190Y-87569523D01*
X90544952Y-88053333D01*
X90883619Y-87134095D02*
X90206285Y-87134095D01*
X90399809Y-87134095D02*
X90303047Y-87085714D01*
X90254666Y-87037333D01*
X90206285Y-86940571D01*
X90206285Y-86843809D01*
X90786857Y-86505142D02*
X90835238Y-86456761D01*
X90883619Y-86505142D01*
X90835238Y-86553523D01*
X90786857Y-86505142D01*
X90883619Y-86505142D01*
X90254666Y-86505142D02*
X90303047Y-86456761D01*
X90351428Y-86505142D01*
X90303047Y-86553523D01*
X90254666Y-86505142D01*
X90351428Y-86505142D01*
X90883619Y-84715047D02*
X90883619Y-85295619D01*
X90883619Y-85005333D02*
X89867619Y-85005333D01*
X90012761Y-85102095D01*
X90109523Y-85198857D01*
X90157904Y-85295619D01*
X90883619Y-83747428D02*
X90883619Y-84328000D01*
X90883619Y-84037714D02*
X89867619Y-84037714D01*
X90012761Y-84134476D01*
X90109523Y-84231238D01*
X90157904Y-84328000D01*
X89867619Y-83408761D02*
X89867619Y-82779809D01*
X90254666Y-83118476D01*
X90254666Y-82973333D01*
X90303047Y-82876571D01*
X90351428Y-82828190D01*
X90448190Y-82779809D01*
X90690095Y-82779809D01*
X90786857Y-82828190D01*
X90835238Y-82876571D01*
X90883619Y-82973333D01*
X90883619Y-83263619D01*
X90835238Y-83360380D01*
X90786857Y-83408761D01*
X90883619Y-81812190D02*
X90883619Y-82392761D01*
X90883619Y-82102476D02*
X89867619Y-82102476D01*
X90012761Y-82199238D01*
X90109523Y-82295999D01*
X90157904Y-82392761D01*
X92661619Y-96447428D02*
X92661619Y-97028000D01*
X92661619Y-96737714D02*
X91645619Y-96737714D01*
X91790761Y-96834476D01*
X91887523Y-96931238D01*
X91935904Y-97028000D01*
X92661619Y-95479809D02*
X92661619Y-96060380D01*
X92661619Y-95770095D02*
X91645619Y-95770095D01*
X91790761Y-95866857D01*
X91887523Y-95963619D01*
X91935904Y-96060380D01*
X91597238Y-94318666D02*
X92903523Y-95189523D01*
X91742380Y-94028380D02*
X91694000Y-93980000D01*
X91645619Y-93883238D01*
X91645619Y-93641333D01*
X91694000Y-93544571D01*
X91742380Y-93496190D01*
X91839142Y-93447809D01*
X91935904Y-93447809D01*
X92081047Y-93496190D01*
X92661619Y-94076761D01*
X92661619Y-93447809D01*
X91645619Y-92818857D02*
X91645619Y-92722095D01*
X91694000Y-92625333D01*
X91742380Y-92576952D01*
X91839142Y-92528571D01*
X92032666Y-92480190D01*
X92274571Y-92480190D01*
X92468095Y-92528571D01*
X92564857Y-92576952D01*
X92613238Y-92625333D01*
X92661619Y-92722095D01*
X92661619Y-92818857D01*
X92613238Y-92915619D01*
X92564857Y-92964000D01*
X92468095Y-93012380D01*
X92274571Y-93060761D01*
X92032666Y-93060761D01*
X91839142Y-93012380D01*
X91742380Y-92964000D01*
X91694000Y-92915619D01*
X91645619Y-92818857D01*
X92661619Y-91512571D02*
X92661619Y-92093142D01*
X92661619Y-91802857D02*
X91645619Y-91802857D01*
X91790761Y-91899619D01*
X91887523Y-91996380D01*
X91935904Y-92093142D01*
X92081047Y-90932000D02*
X92032666Y-91028761D01*
X91984285Y-91077142D01*
X91887523Y-91125523D01*
X91839142Y-91125523D01*
X91742380Y-91077142D01*
X91694000Y-91028761D01*
X91645619Y-90932000D01*
X91645619Y-90738476D01*
X91694000Y-90641714D01*
X91742380Y-90593333D01*
X91839142Y-90544952D01*
X91887523Y-90544952D01*
X91984285Y-90593333D01*
X92032666Y-90641714D01*
X92081047Y-90738476D01*
X92081047Y-90932000D01*
X92129428Y-91028761D01*
X92177809Y-91077142D01*
X92274571Y-91125523D01*
X92468095Y-91125523D01*
X92564857Y-91077142D01*
X92613238Y-91028761D01*
X92661619Y-90932000D01*
X92661619Y-90738476D01*
X92613238Y-90641714D01*
X92564857Y-90593333D01*
X92468095Y-90544952D01*
X92274571Y-90544952D01*
X92177809Y-90593333D01*
X92129428Y-90641714D01*
X92081047Y-90738476D01*
X91984285Y-89432190D02*
X92661619Y-89190285D01*
X91984285Y-88948380D01*
X92613238Y-88174285D02*
X92661619Y-88271047D01*
X92661619Y-88464571D01*
X92613238Y-88561333D01*
X92516476Y-88609714D01*
X92129428Y-88609714D01*
X92032666Y-88561333D01*
X91984285Y-88464571D01*
X91984285Y-88271047D01*
X92032666Y-88174285D01*
X92129428Y-88125904D01*
X92226190Y-88125904D01*
X92322952Y-88609714D01*
X92661619Y-87690476D02*
X91984285Y-87690476D01*
X92177809Y-87690476D02*
X92081047Y-87642095D01*
X92032666Y-87593714D01*
X91984285Y-87496952D01*
X91984285Y-87400190D01*
X92661619Y-85755238D02*
X92661619Y-86335809D01*
X92661619Y-86045523D02*
X91645619Y-86045523D01*
X91790761Y-86142285D01*
X91887523Y-86239047D01*
X91935904Y-86335809D01*
X92564857Y-85319809D02*
X92613238Y-85271428D01*
X92661619Y-85319809D01*
X92613238Y-85368190D01*
X92564857Y-85319809D01*
X92661619Y-85319809D01*
X91645619Y-84642476D02*
X91645619Y-84545714D01*
X91694000Y-84448952D01*
X91742380Y-84400571D01*
X91839142Y-84352190D01*
X92032666Y-84303809D01*
X92274571Y-84303809D01*
X92468095Y-84352190D01*
X92564857Y-84400571D01*
X92613238Y-84448952D01*
X92661619Y-84545714D01*
X92661619Y-84642476D01*
X92613238Y-84739238D01*
X92564857Y-84787619D01*
X92468095Y-84836000D01*
X92274571Y-84884380D01*
X92032666Y-84884380D01*
X91839142Y-84836000D01*
X91742380Y-84787619D01*
X91694000Y-84739238D01*
X91645619Y-84642476D01*
X91645619Y-83191047D02*
X91645619Y-82562095D01*
X92032666Y-82900761D01*
X92032666Y-82755619D01*
X92081047Y-82658857D01*
X92129428Y-82610476D01*
X92226190Y-82562095D01*
X92468095Y-82562095D01*
X92564857Y-82610476D01*
X92613238Y-82658857D01*
X92661619Y-82755619D01*
X92661619Y-83045904D01*
X92613238Y-83142666D01*
X92564857Y-83191047D01*
X92661619Y-82223428D02*
X91984285Y-81691238D01*
X91984285Y-82223428D02*
X92661619Y-81691238D01*
X91742380Y-81352571D02*
X91694000Y-81304190D01*
X91645619Y-81207428D01*
X91645619Y-80965523D01*
X91694000Y-80868761D01*
X91742380Y-80820380D01*
X91839142Y-80772000D01*
X91935904Y-80772000D01*
X92081047Y-80820380D01*
X92661619Y-81400952D01*
X92661619Y-80772000D01*
D12*
G04 #@! TO.C,MDB1*
X132715000Y-71120000D02*
G75*
G03X132715000Y-71120000I-2540000J0D01*
G01*
X132715000Y-106680000D02*
G75*
G03X132715000Y-106680000I-2540000J0D01*
G01*
X92075000Y-101600000D02*
G75*
G03X92075000Y-101600000I-2540000J0D01*
G01*
X92075000Y-76200000D02*
G75*
G03X92075000Y-76200000I-2540000J0D01*
G01*
D14*
G04 #@! TO.C,P2*
X137795000Y-101600000D02*
X135255000Y-101600000D01*
X135255000Y-86360000D02*
X137795000Y-86360000D01*
X137795000Y-86360000D02*
X137795000Y-101600000D01*
X135255000Y-101600000D02*
X132715000Y-101600000D01*
X135255000Y-86360000D02*
X135255000Y-101600000D01*
X132715000Y-86360000D02*
X135255000Y-86360000D01*
X130175000Y-86360000D02*
X132715000Y-86360000D01*
X132715000Y-86360000D02*
X132715000Y-101600000D01*
X132715000Y-101600000D02*
X130175000Y-101600000D01*
X127635000Y-86360000D02*
X130175000Y-86360000D01*
X130175000Y-86360000D02*
X130175000Y-101600000D01*
X130175000Y-101600000D02*
X127635000Y-101600000D01*
X125095000Y-86360000D02*
X127635000Y-86360000D01*
X127635000Y-101600000D02*
X125095000Y-101600000D01*
X127635000Y-86360000D02*
X127635000Y-101600000D01*
X122555000Y-86360000D02*
X125095000Y-86360000D01*
X125095000Y-101600000D02*
X122555000Y-101600000D01*
X125095000Y-86360000D02*
X125095000Y-101600000D01*
X120015000Y-86360000D02*
X122555000Y-86360000D01*
X122555000Y-86360000D02*
X122555000Y-101600000D01*
X122555000Y-101600000D02*
X120015000Y-101600000D01*
X117475000Y-86360000D02*
X120015000Y-86360000D01*
X120015000Y-101600000D02*
X117475000Y-101600000D01*
X120015000Y-86360000D02*
X120015000Y-101600000D01*
X114935000Y-86360000D02*
X117475000Y-86360000D01*
X117475000Y-86360000D02*
X117475000Y-101600000D01*
X117475000Y-101600000D02*
X114935000Y-101600000D01*
X114935000Y-101600000D02*
X112395000Y-101600000D01*
X112395000Y-86360000D02*
X114935000Y-86360000D01*
X114935000Y-86360000D02*
X114935000Y-101600000D01*
X112395000Y-101600000D02*
X109855000Y-101600000D01*
X109855000Y-86360000D02*
X112395000Y-86360000D01*
X112395000Y-86360000D02*
X112395000Y-101600000D01*
X109855000Y-101600000D02*
X107315000Y-101600000D01*
X109855000Y-86360000D02*
X109855000Y-101600000D01*
X107315000Y-86360000D02*
X109855000Y-86360000D01*
X107315000Y-101600000D02*
X104775000Y-101600000D01*
X107315000Y-86360000D02*
X107315000Y-101600000D01*
X104775000Y-86360000D02*
X107315000Y-86360000D01*
X104775000Y-101600000D02*
X102235000Y-101600000D01*
X104775000Y-86360000D02*
X104775000Y-101600000D01*
X102235000Y-86360000D02*
X104775000Y-86360000D01*
X102235000Y-101600000D02*
X99695000Y-101600000D01*
X102235000Y-86360000D02*
X102235000Y-101600000D01*
X99695000Y-86360000D02*
X102235000Y-86360000D01*
X97155000Y-101600000D02*
X97155000Y-97790000D01*
X99695000Y-101600000D02*
X97155000Y-101600000D01*
X99695000Y-86360000D02*
X99695000Y-101600000D01*
X97155000Y-86360000D02*
X99695000Y-86360000D01*
X97155000Y-90170000D02*
X97155000Y-86360000D01*
X97155000Y-90170000D02*
X137795000Y-90170000D01*
X97155000Y-97790000D02*
X97155000Y-90170000D01*
X137795000Y-97790000D02*
X97155000Y-97790000D01*
X137795000Y-90170000D02*
X137795000Y-97790000D01*
D15*
G04 #@! TO.C,C1*
X153105000Y-80080000D02*
X143805000Y-80080000D01*
X143805000Y-80080000D02*
X142805000Y-79080000D01*
X142805000Y-79080000D02*
X142805000Y-70780000D01*
X142805000Y-70780000D02*
X143805000Y-69780000D01*
X143805000Y-69780000D02*
X153105000Y-69780000D01*
X153105000Y-80080000D02*
X153105000Y-69780000D01*
X152955000Y-74930000D02*
G75*
G03X152955000Y-74930000I-5000000J0D01*
G01*
D12*
X151384000Y-78486000D02*
X151384000Y-71374000D01*
X151511000Y-78359000D02*
X151511000Y-71501000D01*
X151638000Y-78232000D02*
X151638000Y-71755000D01*
X151765000Y-77978000D02*
X151765000Y-71882000D01*
X151892000Y-77851000D02*
X151892000Y-72136000D01*
X152019000Y-77597000D02*
X152019000Y-72263000D01*
X152146000Y-77470000D02*
X152146000Y-72517000D01*
X152273000Y-77216000D02*
X152273000Y-72644000D01*
X152400000Y-76962000D02*
X152400000Y-73025000D01*
X152527000Y-76708000D02*
X152527000Y-73279000D01*
X152654000Y-76327000D02*
X152654000Y-73660000D01*
X152781000Y-75819000D02*
X152781000Y-74168000D01*
G04 #@! TO.C,L1*
X144272000Y-95758000D02*
X144272000Y-94742000D01*
X144780000Y-95250000D02*
X143764000Y-95250000D01*
X140970000Y-96520000D02*
X140970000Y-93980000D01*
X140970000Y-93980000D02*
X148590000Y-93980000D01*
X148590000Y-93980000D02*
X148590000Y-96520000D01*
X148590000Y-96520000D02*
X140970000Y-96520000D01*
D14*
G04 #@! TO.C,P1*
X142875000Y-83820000D02*
X142875000Y-93980000D01*
X142875000Y-93980000D02*
X156210000Y-93980000D01*
X142875000Y-83820000D02*
X156210000Y-83820000D01*
X156210000Y-83820000D02*
X156210000Y-93980000D01*
G04 #@! TD*
G04 #@! TO.C,P2*
D13*
X116912571Y-85434714D02*
X116912571Y-84672714D01*
X117202857Y-84672714D01*
X117275428Y-84709000D01*
X117311714Y-84745285D01*
X117348000Y-84817857D01*
X117348000Y-84926714D01*
X117311714Y-84999285D01*
X117275428Y-85035571D01*
X117202857Y-85071857D01*
X116912571Y-85071857D01*
X117638285Y-84745285D02*
X117674571Y-84709000D01*
X117747142Y-84672714D01*
X117928571Y-84672714D01*
X118001142Y-84709000D01*
X118037428Y-84745285D01*
X118073714Y-84817857D01*
X118073714Y-84890428D01*
X118037428Y-84999285D01*
X117602000Y-85434714D01*
X118073714Y-85434714D01*
D14*
X99114428Y-99779364D02*
X99114428Y-100650221D01*
X99114428Y-100214792D02*
X97590428Y-100214792D01*
X97808142Y-100359935D01*
X97953285Y-100505078D01*
X98025857Y-100650221D01*
X97590428Y-98400507D02*
X97590428Y-99126221D01*
X98316142Y-99198792D01*
X98243571Y-99126221D01*
X98171000Y-98981078D01*
X98171000Y-98618221D01*
X98243571Y-98473078D01*
X98316142Y-98400507D01*
X98461285Y-98327935D01*
X98824142Y-98327935D01*
X98969285Y-98400507D01*
X99041857Y-98473078D01*
X99114428Y-98618221D01*
X99114428Y-98981078D01*
X99041857Y-99126221D01*
X98969285Y-99198792D01*
X101654428Y-99779364D02*
X101654428Y-100650221D01*
X101654428Y-100214792D02*
X100130428Y-100214792D01*
X100348142Y-100359935D01*
X100493285Y-100505078D01*
X100565857Y-100650221D01*
X100638428Y-98473078D02*
X101654428Y-98473078D01*
X100057857Y-98835935D02*
X101146428Y-99198792D01*
X101146428Y-98255364D01*
X104194428Y-99779364D02*
X104194428Y-100650221D01*
X104194428Y-100214792D02*
X102670428Y-100214792D01*
X102888142Y-100359935D01*
X103033285Y-100505078D01*
X103105857Y-100650221D01*
X102670428Y-99271364D02*
X102670428Y-98327935D01*
X103251000Y-98835935D01*
X103251000Y-98618221D01*
X103323571Y-98473078D01*
X103396142Y-98400507D01*
X103541285Y-98327935D01*
X103904142Y-98327935D01*
X104049285Y-98400507D01*
X104121857Y-98473078D01*
X104194428Y-98618221D01*
X104194428Y-99053650D01*
X104121857Y-99198792D01*
X104049285Y-99271364D01*
X106734428Y-99779364D02*
X106734428Y-100650221D01*
X106734428Y-100214792D02*
X105210428Y-100214792D01*
X105428142Y-100359935D01*
X105573285Y-100505078D01*
X105645857Y-100650221D01*
X105355571Y-99198792D02*
X105283000Y-99126221D01*
X105210428Y-98981078D01*
X105210428Y-98618221D01*
X105283000Y-98473078D01*
X105355571Y-98400507D01*
X105500714Y-98327935D01*
X105645857Y-98327935D01*
X105863571Y-98400507D01*
X106734428Y-99271364D01*
X106734428Y-98327935D01*
X109274428Y-99779364D02*
X109274428Y-100650221D01*
X109274428Y-100214792D02*
X107750428Y-100214792D01*
X107968142Y-100359935D01*
X108113285Y-100505078D01*
X108185857Y-100650221D01*
X109274428Y-98327935D02*
X109274428Y-99198792D01*
X109274428Y-98763364D02*
X107750428Y-98763364D01*
X107968142Y-98908507D01*
X108113285Y-99053650D01*
X108185857Y-99198792D01*
X111814428Y-99779364D02*
X111814428Y-100650221D01*
X111814428Y-100214792D02*
X110290428Y-100214792D01*
X110508142Y-100359935D01*
X110653285Y-100505078D01*
X110725857Y-100650221D01*
X110290428Y-98835935D02*
X110290428Y-98690792D01*
X110363000Y-98545650D01*
X110435571Y-98473078D01*
X110580714Y-98400507D01*
X110871000Y-98327935D01*
X111233857Y-98327935D01*
X111524142Y-98400507D01*
X111669285Y-98473078D01*
X111741857Y-98545650D01*
X111814428Y-98690792D01*
X111814428Y-98835935D01*
X111741857Y-98981078D01*
X111669285Y-99053650D01*
X111524142Y-99126221D01*
X111233857Y-99198792D01*
X110871000Y-99198792D01*
X110580714Y-99126221D01*
X110435571Y-99053650D01*
X110363000Y-98981078D01*
X110290428Y-98835935D01*
X114354428Y-99053650D02*
X114354428Y-98763364D01*
X114281857Y-98618221D01*
X114209285Y-98545650D01*
X113991571Y-98400507D01*
X113701285Y-98327935D01*
X113120714Y-98327935D01*
X112975571Y-98400507D01*
X112903000Y-98473078D01*
X112830428Y-98618221D01*
X112830428Y-98908507D01*
X112903000Y-99053650D01*
X112975571Y-99126221D01*
X113120714Y-99198792D01*
X113483571Y-99198792D01*
X113628714Y-99126221D01*
X113701285Y-99053650D01*
X113773857Y-98908507D01*
X113773857Y-98618221D01*
X113701285Y-98473078D01*
X113628714Y-98400507D01*
X113483571Y-98327935D01*
X116023571Y-98908507D02*
X115951000Y-99053650D01*
X115878428Y-99126221D01*
X115733285Y-99198792D01*
X115660714Y-99198792D01*
X115515571Y-99126221D01*
X115443000Y-99053650D01*
X115370428Y-98908507D01*
X115370428Y-98618221D01*
X115443000Y-98473078D01*
X115515571Y-98400507D01*
X115660714Y-98327935D01*
X115733285Y-98327935D01*
X115878428Y-98400507D01*
X115951000Y-98473078D01*
X116023571Y-98618221D01*
X116023571Y-98908507D01*
X116096142Y-99053650D01*
X116168714Y-99126221D01*
X116313857Y-99198792D01*
X116604142Y-99198792D01*
X116749285Y-99126221D01*
X116821857Y-99053650D01*
X116894428Y-98908507D01*
X116894428Y-98618221D01*
X116821857Y-98473078D01*
X116749285Y-98400507D01*
X116604142Y-98327935D01*
X116313857Y-98327935D01*
X116168714Y-98400507D01*
X116096142Y-98473078D01*
X116023571Y-98618221D01*
X117910428Y-99271364D02*
X117910428Y-98255364D01*
X119434428Y-98908507D01*
X120450428Y-98473078D02*
X120450428Y-98763364D01*
X120523000Y-98908507D01*
X120595571Y-98981078D01*
X120813285Y-99126221D01*
X121103571Y-99198792D01*
X121684142Y-99198792D01*
X121829285Y-99126221D01*
X121901857Y-99053650D01*
X121974428Y-98908507D01*
X121974428Y-98618221D01*
X121901857Y-98473078D01*
X121829285Y-98400507D01*
X121684142Y-98327935D01*
X121321285Y-98327935D01*
X121176142Y-98400507D01*
X121103571Y-98473078D01*
X121031000Y-98618221D01*
X121031000Y-98908507D01*
X121103571Y-99053650D01*
X121176142Y-99126221D01*
X121321285Y-99198792D01*
X122990428Y-98400507D02*
X122990428Y-99126221D01*
X123716142Y-99198792D01*
X123643571Y-99126221D01*
X123571000Y-98981078D01*
X123571000Y-98618221D01*
X123643571Y-98473078D01*
X123716142Y-98400507D01*
X123861285Y-98327935D01*
X124224142Y-98327935D01*
X124369285Y-98400507D01*
X124441857Y-98473078D01*
X124514428Y-98618221D01*
X124514428Y-98981078D01*
X124441857Y-99126221D01*
X124369285Y-99198792D01*
X126038428Y-98473078D02*
X127054428Y-98473078D01*
X125457857Y-98835935D02*
X126546428Y-99198792D01*
X126546428Y-98255364D01*
X128070428Y-99271364D02*
X128070428Y-98327935D01*
X128651000Y-98835935D01*
X128651000Y-98618221D01*
X128723571Y-98473078D01*
X128796142Y-98400507D01*
X128941285Y-98327935D01*
X129304142Y-98327935D01*
X129449285Y-98400507D01*
X129521857Y-98473078D01*
X129594428Y-98618221D01*
X129594428Y-99053650D01*
X129521857Y-99198792D01*
X129449285Y-99271364D01*
X130755571Y-99198792D02*
X130683000Y-99126221D01*
X130610428Y-98981078D01*
X130610428Y-98618221D01*
X130683000Y-98473078D01*
X130755571Y-98400507D01*
X130900714Y-98327935D01*
X131045857Y-98327935D01*
X131263571Y-98400507D01*
X132134428Y-99271364D01*
X132134428Y-98327935D01*
X134674428Y-98327935D02*
X134674428Y-99198792D01*
X134674428Y-98763364D02*
X133150428Y-98763364D01*
X133368142Y-98908507D01*
X133513285Y-99053650D01*
X133585857Y-99198792D01*
X135690428Y-98835935D02*
X135690428Y-98690792D01*
X135763000Y-98545650D01*
X135835571Y-98473078D01*
X135980714Y-98400507D01*
X136271000Y-98327935D01*
X136633857Y-98327935D01*
X136924142Y-98400507D01*
X137069285Y-98473078D01*
X137141857Y-98545650D01*
X137214428Y-98690792D01*
X137214428Y-98835935D01*
X137141857Y-98981078D01*
X137069285Y-99053650D01*
X136924142Y-99126221D01*
X136633857Y-99198792D01*
X136271000Y-99198792D01*
X135980714Y-99126221D01*
X135835571Y-99053650D01*
X135763000Y-98981078D01*
X135690428Y-98835935D01*
X135690428Y-89269207D02*
X135690428Y-89124064D01*
X135763000Y-88978921D01*
X135835571Y-88906350D01*
X135980714Y-88833778D01*
X136271000Y-88761207D01*
X136633857Y-88761207D01*
X136924142Y-88833778D01*
X137069285Y-88906350D01*
X137141857Y-88978921D01*
X137214428Y-89124064D01*
X137214428Y-89269207D01*
X137141857Y-89414350D01*
X137069285Y-89486921D01*
X136924142Y-89559492D01*
X136633857Y-89632064D01*
X136271000Y-89632064D01*
X135980714Y-89559492D01*
X135835571Y-89486921D01*
X135763000Y-89414350D01*
X135690428Y-89269207D01*
X134674428Y-88761207D02*
X134674428Y-89632064D01*
X134674428Y-89196635D02*
X133150428Y-89196635D01*
X133368142Y-89341778D01*
X133513285Y-89486921D01*
X133585857Y-89632064D01*
X130755571Y-89632064D02*
X130683000Y-89559492D01*
X130610428Y-89414350D01*
X130610428Y-89051492D01*
X130683000Y-88906350D01*
X130755571Y-88833778D01*
X130900714Y-88761207D01*
X131045857Y-88761207D01*
X131263571Y-88833778D01*
X132134428Y-89704635D01*
X132134428Y-88761207D01*
X128070428Y-89704635D02*
X128070428Y-88761207D01*
X128651000Y-89269207D01*
X128651000Y-89051492D01*
X128723571Y-88906350D01*
X128796142Y-88833778D01*
X128941285Y-88761207D01*
X129304142Y-88761207D01*
X129449285Y-88833778D01*
X129521857Y-88906350D01*
X129594428Y-89051492D01*
X129594428Y-89486921D01*
X129521857Y-89632064D01*
X129449285Y-89704635D01*
X126038428Y-88906350D02*
X127054428Y-88906350D01*
X125457857Y-89269207D02*
X126546428Y-89632064D01*
X126546428Y-88688635D01*
X122990428Y-88833778D02*
X122990428Y-89559492D01*
X123716142Y-89632064D01*
X123643571Y-89559492D01*
X123571000Y-89414350D01*
X123571000Y-89051492D01*
X123643571Y-88906350D01*
X123716142Y-88833778D01*
X123861285Y-88761207D01*
X124224142Y-88761207D01*
X124369285Y-88833778D01*
X124441857Y-88906350D01*
X124514428Y-89051492D01*
X124514428Y-89414350D01*
X124441857Y-89559492D01*
X124369285Y-89632064D01*
X120450428Y-88906350D02*
X120450428Y-89196635D01*
X120523000Y-89341778D01*
X120595571Y-89414350D01*
X120813285Y-89559492D01*
X121103571Y-89632064D01*
X121684142Y-89632064D01*
X121829285Y-89559492D01*
X121901857Y-89486921D01*
X121974428Y-89341778D01*
X121974428Y-89051492D01*
X121901857Y-88906350D01*
X121829285Y-88833778D01*
X121684142Y-88761207D01*
X121321285Y-88761207D01*
X121176142Y-88833778D01*
X121103571Y-88906350D01*
X121031000Y-89051492D01*
X121031000Y-89341778D01*
X121103571Y-89486921D01*
X121176142Y-89559492D01*
X121321285Y-89632064D01*
X117910428Y-89704635D02*
X117910428Y-88688635D01*
X119434428Y-89341778D01*
X116023571Y-89341778D02*
X115951000Y-89486921D01*
X115878428Y-89559492D01*
X115733285Y-89632064D01*
X115660714Y-89632064D01*
X115515571Y-89559492D01*
X115443000Y-89486921D01*
X115370428Y-89341778D01*
X115370428Y-89051492D01*
X115443000Y-88906350D01*
X115515571Y-88833778D01*
X115660714Y-88761207D01*
X115733285Y-88761207D01*
X115878428Y-88833778D01*
X115951000Y-88906350D01*
X116023571Y-89051492D01*
X116023571Y-89341778D01*
X116096142Y-89486921D01*
X116168714Y-89559492D01*
X116313857Y-89632064D01*
X116604142Y-89632064D01*
X116749285Y-89559492D01*
X116821857Y-89486921D01*
X116894428Y-89341778D01*
X116894428Y-89051492D01*
X116821857Y-88906350D01*
X116749285Y-88833778D01*
X116604142Y-88761207D01*
X116313857Y-88761207D01*
X116168714Y-88833778D01*
X116096142Y-88906350D01*
X116023571Y-89051492D01*
X114354428Y-89486921D02*
X114354428Y-89196635D01*
X114281857Y-89051492D01*
X114209285Y-88978921D01*
X113991571Y-88833778D01*
X113701285Y-88761207D01*
X113120714Y-88761207D01*
X112975571Y-88833778D01*
X112903000Y-88906350D01*
X112830428Y-89051492D01*
X112830428Y-89341778D01*
X112903000Y-89486921D01*
X112975571Y-89559492D01*
X113120714Y-89632064D01*
X113483571Y-89632064D01*
X113628714Y-89559492D01*
X113701285Y-89486921D01*
X113773857Y-89341778D01*
X113773857Y-89051492D01*
X113701285Y-88906350D01*
X113628714Y-88833778D01*
X113483571Y-88761207D01*
X111814428Y-88761207D02*
X111814428Y-89632064D01*
X111814428Y-89196635D02*
X110290428Y-89196635D01*
X110508142Y-89341778D01*
X110653285Y-89486921D01*
X110725857Y-89632064D01*
X110290428Y-87817778D02*
X110290428Y-87672635D01*
X110363000Y-87527492D01*
X110435571Y-87454921D01*
X110580714Y-87382350D01*
X110871000Y-87309778D01*
X111233857Y-87309778D01*
X111524142Y-87382350D01*
X111669285Y-87454921D01*
X111741857Y-87527492D01*
X111814428Y-87672635D01*
X111814428Y-87817778D01*
X111741857Y-87962921D01*
X111669285Y-88035492D01*
X111524142Y-88108064D01*
X111233857Y-88180635D01*
X110871000Y-88180635D01*
X110580714Y-88108064D01*
X110435571Y-88035492D01*
X110363000Y-87962921D01*
X110290428Y-87817778D01*
X109274428Y-88761207D02*
X109274428Y-89632064D01*
X109274428Y-89196635D02*
X107750428Y-89196635D01*
X107968142Y-89341778D01*
X108113285Y-89486921D01*
X108185857Y-89632064D01*
X109274428Y-87309778D02*
X109274428Y-88180635D01*
X109274428Y-87745207D02*
X107750428Y-87745207D01*
X107968142Y-87890350D01*
X108113285Y-88035492D01*
X108185857Y-88180635D01*
X106734428Y-88761207D02*
X106734428Y-89632064D01*
X106734428Y-89196635D02*
X105210428Y-89196635D01*
X105428142Y-89341778D01*
X105573285Y-89486921D01*
X105645857Y-89632064D01*
X105355571Y-88180635D02*
X105283000Y-88108064D01*
X105210428Y-87962921D01*
X105210428Y-87600064D01*
X105283000Y-87454921D01*
X105355571Y-87382350D01*
X105500714Y-87309778D01*
X105645857Y-87309778D01*
X105863571Y-87382350D01*
X106734428Y-88253207D01*
X106734428Y-87309778D01*
X104194428Y-88761207D02*
X104194428Y-89632064D01*
X104194428Y-89196635D02*
X102670428Y-89196635D01*
X102888142Y-89341778D01*
X103033285Y-89486921D01*
X103105857Y-89632064D01*
X102670428Y-88253207D02*
X102670428Y-87309778D01*
X103251000Y-87817778D01*
X103251000Y-87600064D01*
X103323571Y-87454921D01*
X103396142Y-87382350D01*
X103541285Y-87309778D01*
X103904142Y-87309778D01*
X104049285Y-87382350D01*
X104121857Y-87454921D01*
X104194428Y-87600064D01*
X104194428Y-88035492D01*
X104121857Y-88180635D01*
X104049285Y-88253207D01*
X101654428Y-88761207D02*
X101654428Y-89632064D01*
X101654428Y-89196635D02*
X100130428Y-89196635D01*
X100348142Y-89341778D01*
X100493285Y-89486921D01*
X100565857Y-89632064D01*
X100638428Y-87454921D02*
X101654428Y-87454921D01*
X100057857Y-87817778D02*
X101146428Y-88180635D01*
X101146428Y-87237207D01*
X99114428Y-88761207D02*
X99114428Y-89632064D01*
X99114428Y-89196635D02*
X97590428Y-89196635D01*
X97808142Y-89341778D01*
X97953285Y-89486921D01*
X98025857Y-89632064D01*
X97590428Y-87382350D02*
X97590428Y-88108064D01*
X98316142Y-88180635D01*
X98243571Y-88108064D01*
X98171000Y-87962921D01*
X98171000Y-87600064D01*
X98243571Y-87454921D01*
X98316142Y-87382350D01*
X98461285Y-87309778D01*
X98824142Y-87309778D01*
X98969285Y-87382350D01*
X99041857Y-87454921D01*
X99114428Y-87600064D01*
X99114428Y-87962921D01*
X99041857Y-88108064D01*
X98969285Y-88180635D01*
D10*
X138290904Y-96665142D02*
X139839095Y-96665142D01*
X138290904Y-94125142D02*
X139839095Y-94125142D01*
X139065000Y-94899238D02*
X139065000Y-93351047D01*
X95110904Y-96665142D02*
X96659095Y-96665142D01*
X95110904Y-94125142D02*
X96659095Y-94125142D01*
X95885000Y-94899238D02*
X95885000Y-93351047D01*
X95304428Y-92262476D02*
X95594714Y-92359238D01*
X96078523Y-92359238D01*
X96272047Y-92262476D01*
X96368809Y-92165714D01*
X96465571Y-91972190D01*
X96465571Y-91778666D01*
X96368809Y-91585142D01*
X96272047Y-91488380D01*
X96078523Y-91391619D01*
X95691476Y-91294857D01*
X95497952Y-91198095D01*
X95401190Y-91101333D01*
X95304428Y-90907809D01*
X95304428Y-90714285D01*
X95401190Y-90520761D01*
X95497952Y-90424000D01*
X95691476Y-90327238D01*
X96175285Y-90327238D01*
X96465571Y-90424000D01*
X138484428Y-92262476D02*
X138774714Y-92359238D01*
X139258523Y-92359238D01*
X139452047Y-92262476D01*
X139548809Y-92165714D01*
X139645571Y-91972190D01*
X139645571Y-91778666D01*
X139548809Y-91585142D01*
X139452047Y-91488380D01*
X139258523Y-91391619D01*
X138871476Y-91294857D01*
X138677952Y-91198095D01*
X138581190Y-91101333D01*
X138484428Y-90907809D01*
X138484428Y-90714285D01*
X138581190Y-90520761D01*
X138677952Y-90424000D01*
X138871476Y-90327238D01*
X139355285Y-90327238D01*
X139645571Y-90424000D01*
G04 #@! TO.C,C1*
D13*
X141877142Y-71882000D02*
X141913428Y-71918285D01*
X141949714Y-72027142D01*
X141949714Y-72099714D01*
X141913428Y-72208571D01*
X141840857Y-72281142D01*
X141768285Y-72317428D01*
X141623142Y-72353714D01*
X141514285Y-72353714D01*
X141369142Y-72317428D01*
X141296571Y-72281142D01*
X141224000Y-72208571D01*
X141187714Y-72099714D01*
X141187714Y-72027142D01*
X141224000Y-71918285D01*
X141260285Y-71882000D01*
X141949714Y-71156285D02*
X141949714Y-71591714D01*
X141949714Y-71374000D02*
X141187714Y-71374000D01*
X141296571Y-71446571D01*
X141369142Y-71519142D01*
X141405428Y-71591714D01*
D16*
X144208571Y-77577142D02*
X145351428Y-77577142D01*
X144780000Y-78148571D02*
X144780000Y-77005714D01*
G04 #@! TO.C,L1*
D13*
X141478000Y-93689714D02*
X141115142Y-93689714D01*
X141115142Y-92927714D01*
X142131142Y-93689714D02*
X141695714Y-93689714D01*
X141913428Y-93689714D02*
X141913428Y-92927714D01*
X141840857Y-93036571D01*
X141768285Y-93109142D01*
X141695714Y-93145428D01*
D11*
X146094476Y-95709619D02*
X145755809Y-95225809D01*
X145513904Y-95709619D02*
X145513904Y-94693619D01*
X145900952Y-94693619D01*
X145997714Y-94742000D01*
X146046095Y-94790380D01*
X146094476Y-94887142D01*
X146094476Y-95032285D01*
X146046095Y-95129047D01*
X145997714Y-95177428D01*
X145900952Y-95225809D01*
X145513904Y-95225809D01*
G04 #@! TO.C,P1*
D13*
X154377571Y-82894714D02*
X154377571Y-82132714D01*
X154667857Y-82132714D01*
X154740428Y-82169000D01*
X154776714Y-82205285D01*
X154813000Y-82277857D01*
X154813000Y-82386714D01*
X154776714Y-82459285D01*
X154740428Y-82495571D01*
X154667857Y-82531857D01*
X154377571Y-82531857D01*
X155538714Y-82894714D02*
X155103285Y-82894714D01*
X155321000Y-82894714D02*
X155321000Y-82132714D01*
X155248428Y-82241571D01*
X155175857Y-82314142D01*
X155103285Y-82350428D01*
G04 #@! TD*
%LPC*%
D17*
G04 #@! TO.C,MDB1*
X130175000Y-71120000D03*
X130175000Y-106680000D03*
X89535000Y-101600000D03*
X89535000Y-76200000D03*
D18*
X88265000Y-106680000D03*
X90805000Y-106680000D03*
X93345000Y-106680000D03*
X95885000Y-106680000D03*
X98425000Y-106680000D03*
X100965000Y-106680000D03*
X103505000Y-106680000D03*
X106045000Y-106680000D03*
X108585000Y-106680000D03*
X111125000Y-106680000D03*
X113665000Y-106680000D03*
X116205000Y-106680000D03*
X118745000Y-106680000D03*
X121285000Y-106680000D03*
X123825000Y-106680000D03*
X126365000Y-106680000D03*
X126365000Y-71120000D03*
X123825000Y-71120000D03*
X121285000Y-71120000D03*
X118745000Y-71120000D03*
X116205000Y-71120000D03*
X113665000Y-71120000D03*
X111125000Y-71120000D03*
X108585000Y-71120000D03*
X106045000Y-71120000D03*
X103505000Y-71120000D03*
X100965000Y-71120000D03*
X98425000Y-71120000D03*
X95885000Y-71120000D03*
D19*
X88265000Y-71120000D03*
D18*
X93345000Y-71120000D03*
X90805000Y-71120000D03*
G04 #@! TD*
D20*
G04 #@! TO.C,P2*
X98425000Y-93980000D03*
X100965000Y-93980000D03*
X103505000Y-93980000D03*
X106045000Y-93980000D03*
X108585000Y-93980000D03*
X111125000Y-93980000D03*
X113665000Y-93980000D03*
X116205000Y-93980000D03*
X118745000Y-93980000D03*
X121285000Y-93980000D03*
X123825000Y-93980000D03*
X126365000Y-93980000D03*
X128905000Y-93980000D03*
X131445000Y-93980000D03*
X133985000Y-93980000D03*
X136525000Y-93980000D03*
X98425000Y-96774000D03*
X98425000Y-91186000D03*
X100965000Y-96774000D03*
X100965000Y-91186000D03*
X103505000Y-96774000D03*
X103505000Y-91186000D03*
X106045000Y-96774000D03*
X106045000Y-91186000D03*
X108585000Y-96774000D03*
X108585000Y-91186000D03*
X111125000Y-96774000D03*
X111125000Y-91186000D03*
X113665000Y-96774000D03*
X113665000Y-91186000D03*
X116205000Y-96774000D03*
X116205000Y-91186000D03*
X118745000Y-96774000D03*
X118745000Y-91186000D03*
X121285000Y-96774000D03*
X121285000Y-91186000D03*
X123825000Y-96774000D03*
X123825000Y-91186000D03*
X126365000Y-96774000D03*
X126365000Y-91186000D03*
X128905000Y-96774000D03*
X128905000Y-91186000D03*
X131445000Y-96774000D03*
X131445000Y-91186000D03*
X133985000Y-96774000D03*
X133985000Y-91186000D03*
X136525000Y-96774000D03*
D21*
X136525000Y-91186000D03*
G04 #@! TD*
D22*
G04 #@! TO.C,C1*
X143605000Y-74930000D03*
X152305000Y-74930000D03*
G04 #@! TD*
D23*
G04 #@! TO.C,L1*
X142240000Y-95250000D03*
X147320000Y-95250000D03*
G04 #@! TD*
D24*
G04 #@! TO.C,P1*
X153212800Y-88900000D03*
D25*
X149707600Y-88900000D03*
D26*
X144221200Y-88900000D03*
D27*
X151206200Y-84404200D03*
X151206200Y-93395800D03*
G04 #@! TD*
M02*
