M48
; DRILL file {KiCad 6.0.0-rc1-unknown-4d73cfb~66~ubuntu18.04.1} date Wed 28 Nov 2018 02:14:16 PM EST
; FORMAT={-:-/ absolute / metric / decimal}
; #@! TF.CreationDate,2018-11-28T14:14:16-05:00
; #@! TF.GenerationSoftware,Kicad,Pcbnew,6.0.0-rc1-unknown-4d73cfb~66~ubuntu18.04.1
FMAT,2
METRIC
T1C0.635
T2C0.965
T3C1.016
T4C1.092
T5C1.600
T6C2.692
T7C3.150
T8C3.302
%
G90
G05
T1
X109.923Y-75.012
T2
X142.24Y-95.25
X147.32Y-95.25
T3
X98.425Y-91.44
X98.425Y-93.98
X98.425Y-96.52
X100.965Y-91.44
X100.965Y-93.98
X100.965Y-96.52
X103.505Y-91.44
X103.505Y-93.98
X103.505Y-96.52
X106.045Y-91.44
X106.045Y-93.98
X106.045Y-96.52
X108.585Y-91.44
X108.585Y-93.98
X108.585Y-96.52
X111.125Y-91.44
X111.125Y-93.98
X111.125Y-96.52
X113.665Y-91.44
X113.665Y-93.98
X113.665Y-96.52
X116.205Y-91.44
X116.205Y-93.98
X116.205Y-96.52
X118.745Y-91.44
X118.745Y-93.98
X118.745Y-96.52
X121.285Y-91.44
X121.285Y-93.98
X121.285Y-96.52
X123.825Y-91.44
X123.825Y-93.98
X123.825Y-96.52
X126.365Y-91.44
X126.365Y-93.98
X126.365Y-96.52
X128.905Y-91.44
X128.905Y-93.98
X128.905Y-96.52
X131.445Y-91.44
X131.445Y-93.98
X131.445Y-96.52
X133.985Y-91.44
X133.985Y-93.98
X133.985Y-96.52
X136.525Y-91.44
X136.525Y-93.98
X136.525Y-96.52
T4
X88.265Y-71.12
X88.265Y-106.68
X90.805Y-71.12
X90.805Y-106.68
X93.345Y-71.12
X93.345Y-106.68
X95.885Y-71.12
X95.885Y-106.68
X98.425Y-71.12
X98.425Y-106.68
X100.965Y-71.12
X100.965Y-106.68
X103.505Y-71.12
X103.505Y-106.68
X106.045Y-71.12
X106.045Y-106.68
X108.585Y-71.12
X108.585Y-106.68
X111.125Y-71.12
X111.125Y-106.68
X113.665Y-71.12
X113.665Y-106.68
X116.205Y-71.12
X116.205Y-106.68
X118.745Y-71.12
X118.745Y-106.68
X121.285Y-71.12
X121.285Y-106.68
X123.825Y-71.12
X123.825Y-106.68
X126.365Y-71.12
X126.365Y-106.68
T5
X153.213Y-88.9
T6
X150.216Y-88.9
X151.206Y-84.404
X151.206Y-93.396
T7
X144.221Y-88.9
T8
X89.535Y-76.2
X89.535Y-101.6
X130.175Y-71.12
X130.175Y-106.68
T0
M30
